<?xml version="1.0" encoding="UTF-8" standalone="no"?>
<svg width="191px" height="52px" viewBox="0 0 191 52" version="1.1" xmlns="http://www.w3.org/2000/svg" xmlns:xlink="http://www.w3.org/1999/xlink" xmlns:sketch="http://www.bohemiancoding.com/sketch/ns">
    <!-- Generator: Sketch 3.5.2 (25235) - http://www.bohemiancoding.com/sketch -->
    <title>Group 3</title>
    <desc>Created with Sketch.</desc>
    <defs></defs>
    <g id="Menu" stroke="none" stroke-width="1" fill="none" fill-rule="evenodd" sketch:type="MSPage">
        <g id="Menu---About" sketch:type="MSArtboardGroup" transform="translate(-176.000000, -476.000000)">
            <g id="Group-3" sketch:type="MSLayerGroup" transform="translate(176.000000, 472.000000)">
                <g id="elementslab" transform="translate(0.000000, 25.000000)" sketch:type="MSShapeGroup">
                    <path d="M13.2812,18.2817 C13.3202,16.1067 12.3882,12.7257 8.5432,12.7257 C5.0872,12.7257 3.5722,15.9117 3.3002,18.2817 L13.2812,18.2817 Z M3.2622,20.7287 C3.3392,25.3517 6.2912,27.2557 9.7082,27.2557 C12.1552,27.2557 13.6302,26.8287 14.9122,26.2847 L15.4942,28.7317 C14.2902,29.2757 12.2322,29.8977 9.2422,29.8977 C3.4562,29.8977 0.0002,26.0907 0.0002,20.4177 C0.0002,14.7457 3.3402,10.2787 8.8152,10.2787 C14.9522,10.2787 16.5822,15.6787 16.5822,19.1357 C16.5822,19.8357 16.5052,20.3797 16.4662,20.7287 L3.2622,20.7287 L3.2622,20.7287 Z" id="Fill-1" fill="#323231"></path>
                    <path d="M20.076,1.926 L23.494,1.926 L23.494,29.509 L20.076,29.509 L20.076,1.926 Z" id="Fill-3" fill="#323231"></path>
                    <path d="M40.425,18.2817 C40.464,16.1067 39.532,12.7257 35.687,12.7257 C32.231,12.7257 30.716,15.9117 30.445,18.2817 L40.425,18.2817 Z M30.406,20.7287 C30.484,25.3517 33.435,27.2557 36.852,27.2557 C39.299,27.2557 40.775,26.8287 42.056,26.2847 L42.639,28.7317 C41.435,29.2757 39.377,29.8977 36.386,29.8977 C30.6,29.8977 27.144,26.0907 27.144,20.4177 C27.144,14.7457 30.484,10.2787 35.959,10.2787 C42.096,10.2787 43.726,15.6787 43.726,19.1357 C43.726,19.8357 43.649,20.3797 43.61,20.7287 L30.406,20.7287 L30.406,20.7287 Z" id="Fill-5" fill="#323231"></path>
                    <path d="M47.2204,15.795 C47.2204,13.853 47.1814,12.26 47.0654,10.706 L50.0554,10.706 L50.2104,13.736 L50.3274,13.736 C51.3754,11.949 53.1234,10.279 56.2294,10.279 C58.7934,10.279 60.7344,11.832 61.5504,14.047 L61.6284,14.047 C62.2104,12.998 62.9484,12.182 63.7254,11.6 C64.8514,10.745 66.0934,10.279 67.8804,10.279 C70.3654,10.279 74.0554,11.91 74.0554,18.437 L74.0554,29.509 L70.7154,29.509 L70.7154,18.864 C70.7154,15.252 69.3944,13.076 66.6374,13.076 C64.6954,13.076 63.1814,14.513 62.5984,16.184 C62.4434,16.65 62.3274,17.271 62.3274,17.893 L62.3274,29.509 L58.9874,29.509 L58.9874,18.243 C58.9874,15.252 57.6664,13.076 55.0654,13.076 C52.9284,13.076 51.3754,14.785 50.8324,16.494 C50.6384,16.999 50.5604,17.582 50.5604,18.165 L50.5604,29.509 L47.2204,29.509 L47.2204,15.795 Z" id="Fill-6" fill="#323231"></path>
                    <path d="M90.7918,18.2817 C90.8308,16.1067 89.8978,12.7257 86.0538,12.7257 C82.5978,12.7257 81.0828,15.9117 80.8118,18.2817 L90.7918,18.2817 Z M80.7728,20.7287 C80.8508,25.3517 83.8018,27.2557 87.2188,27.2557 C89.6658,27.2557 91.1408,26.8287 92.4228,26.2847 L93.0048,28.7317 C91.8018,29.2757 89.7428,29.8977 86.7528,29.8977 C80.9668,29.8977 77.5108,26.0907 77.5108,20.4177 C77.5108,14.7457 80.8508,10.2787 86.3258,10.2787 C92.4628,10.2787 94.0928,15.6787 94.0928,19.1357 C94.0928,19.8357 94.0158,20.3797 93.9768,20.7287 L80.7728,20.7287 L80.7728,20.7287 Z" id="Fill-7" fill="#323231"></path>
                    <path d="M97.5867,15.795 C97.5867,13.853 97.5477,12.26 97.4317,10.706 L100.4607,10.706 L100.6547,13.814 L100.7327,13.814 C101.6647,12.027 103.8397,10.279 106.9467,10.279 C109.5477,10.279 113.5877,11.832 113.5877,18.282 L113.5877,29.509 L110.1697,29.509 L110.1697,18.67 C110.1697,15.64 109.0437,13.115 105.8197,13.115 C103.5677,13.115 101.8207,14.707 101.2377,16.611 C101.0827,17.038 101.0057,17.621 101.0057,18.203 L101.0057,29.508 L97.5867,29.508 L97.5867,15.795 L97.5867,15.795 Z" id="Fill-8" fill="#323231"></path>
                    <path d="M122.3623,5.3062 L122.3623,10.7062 L127.2553,10.7062 L127.2553,13.3092 L122.3623,13.3092 L122.3623,23.4482 C122.3623,25.7792 123.0223,27.0992 124.9253,27.0992 C125.8193,27.0992 126.4793,26.9832 126.9063,26.8672 L127.0613,29.4312 C126.4013,29.7022 125.3523,29.8972 124.0323,29.8972 C122.4403,29.8972 121.1583,29.3912 120.3433,28.4592 C119.3723,27.4502 119.0223,25.7782 119.0223,23.5652 L119.0223,13.3092 L116.1103,13.3092 L116.1103,10.7062 L119.0223,10.7062 L119.0223,6.1992 L122.3623,5.3062 Z" id="Fill-9" fill="#323231"></path>
                    <path d="M129.8963,26.0127 C130.9053,26.6727 132.6923,27.3717 134.4013,27.3717 C136.8863,27.3717 138.0513,26.1287 138.0513,24.5747 C138.0513,22.9437 137.0803,22.0497 134.5563,21.1177 C131.1773,19.9127 129.5853,18.0487 129.5853,15.7947 C129.5853,12.7647 132.0313,10.2787 136.0703,10.2787 C137.9733,10.2787 139.6433,10.8227 140.6913,11.4437 L139.8373,13.9307 C139.0993,13.4647 137.7393,12.8427 135.9923,12.8427 C133.9733,12.8427 132.8463,14.0087 132.8463,15.4067 C132.8463,16.9607 133.9733,17.6597 136.4203,18.5927 C139.6823,19.8357 141.3513,21.4677 141.3513,24.2647 C141.3513,27.5657 138.7883,29.8977 134.3223,29.8977 C132.2643,29.8977 130.3613,29.3917 129.0413,28.6147 L129.8963,26.0127 Z" id="Fill-10" fill="#323231"></path>
                    <path d="M146.802,0 L150.462,0 L150.462,29.542 L146.802,29.542 L146.802,0 Z" id="Fill-11" fill="#969595"></path>
                    <path d="M164.6026,19.2646 C160.6096,19.1816 156.0766,19.8886 156.0766,23.7996 C156.0766,26.1706 157.6566,27.2946 159.5276,27.2946 C162.1486,27.2946 163.8116,25.6306 164.3946,23.9236 C164.5196,23.5496 164.6026,23.1336 164.6026,22.7596 L164.6026,19.2646 Z M165.1436,29.5416 L164.8516,27.0036 L164.7266,27.0036 C163.6036,28.5846 161.4416,29.9996 158.5706,29.9996 C154.4956,29.9996 152.4156,27.1286 152.4156,24.2166 C152.4156,19.3476 156.7416,16.6846 164.5196,16.7266 L164.5196,16.3106 C164.5196,14.6456 164.0616,11.6496 159.9446,11.6496 C158.0726,11.6496 156.1176,12.2326 154.7036,13.1476 L153.8706,10.7346 C155.5356,9.6536 157.9476,8.9456 160.4846,8.9456 C166.6396,8.9456 168.1376,13.1476 168.1376,17.1836 L168.1376,24.7146 C168.1376,26.4626 168.2206,28.1676 168.4706,29.5416 L165.1436,29.5416 L165.1436,29.5416 Z" id="Fill-12" fill="#969595"></path>
                    <path d="M175.0417,22.4699 C175.0417,22.9269 175.1247,23.3849 175.2077,23.8009 C175.9157,26.3399 178.0367,28.0869 180.6987,28.0869 C184.5247,28.0869 186.8127,24.9669 186.8127,20.3479 C186.8127,16.3119 184.7327,12.8589 180.8227,12.8589 C178.3277,12.8589 175.9977,14.5649 175.2497,17.3519 C175.1667,17.7679 175.0417,18.2679 175.0417,18.8509 L175.0417,22.4699 L175.0417,22.4699 Z M171.2567,30.5419 C171.3397,29.1679 171.4237,27.1299 171.4237,25.3409 L171.4237,0.9999 L175.0417,0.9999 L175.0417,13.6489 L175.1247,13.6489 C176.4147,11.4019 178.7437,9.9449 181.9877,9.9449 C186.9797,9.9449 190.5147,14.1059 190.4727,20.2229 C190.4727,27.4199 185.9397,30.9999 181.4467,30.9999 C178.5357,30.9999 176.2057,29.8749 174.7097,27.2129 L174.5847,27.2129 L174.4177,30.5409 L171.2567,30.5409 L171.2567,30.5419 Z" id="Fill-13" fill="#969595"></path>
                </g>
                <text id="a-project-by" sketch:type="MSTextLayer" font-family="Open Sans" font-size="13" font-weight="260" fill="#434343">
                    <tspan x="0" y="14">a project by</tspan>
                </text>
            </g>
        </g>
    </g>
</svg>