<?xml version="1.0" encoding="UTF-8" standalone="no"?>
<svg width="150px" height="33px" viewBox="0 0 150 33" version="1.1" xmlns="http://www.w3.org/2000/svg" xmlns:xlink="http://www.w3.org/1999/xlink">
    <!-- Generator: Sketch 3.6.1 (26313) - http://www.bohemiancoding.com/sketch -->
    <title>logo2</title>
    <desc>Created with Sketch.</desc>
    <defs>
        <path d="M5.98540146,0.353649635 C5.9379562,0.364233577 5.89124088,0.374452555 5.84416058,0.385766423 L5.84416058,0.398540146 C4.00839416,0.811678832 2.04452555,1.4080292 0.199635036,2.26642336 L0.199635036,8.55510949 L0.199635036,8.55510949 L0.199635036,21.019708 C0.199635036,26.5186131 2.70218978,30.2620438 7.06240876,31.5879562 C8.1540146,31.9193431 9.36350365,32.0963504 10.6759124,32.1142336 L10.6759124,26.5569343 C7.30875912,26.4937956 5.98430657,24.9759124 5.98430657,21.2 L5.98430657,20.6970803 L5.98540146,20.6970803 L5.98540146,12.2277372 L11.8051095,12.2277372 L11.8051095,6.71240876 L5.98540146,6.71240876 L5.98540146,0.353649635 L5.98540146,0.353649635 Z M14.7113139,11.1642336 L14.7113139,18.9437956 L14.7189781,31.7627737 L20.4967153,31.7627737 L20.4967153,12.8930657 C20.5040146,12.8912409 20.5080292,12.890146 20.5131387,12.8894161 C22.7208029,12.3587591 25.4485401,12.1127737 28.1675182,12.1127737 L28.1675182,6.47153285 C22.9572993,6.47153285 18.0605839,7.57992701 16.6211679,8.17591241 C15.179927,8.77408759 14.7113139,9.84051095 14.7113139,11.1642336 L14.7113139,11.1642336 Z M68.3576642,18.310219 C66.7087591,17.1105839 64.6729927,16.5291971 62.8773723,16.0171533 C60.6481752,15.379927 59.2927007,14.9328467 59.2927007,14.1167883 C59.2927007,13.5821168 59.2927007,11.9576642 63.1222628,11.9576642 C64.7660584,11.9576642 66.3693431,12.4135036 67.8890511,13.3142336 L69.8054745,14.4492701 L69.8054745,8.17919708 L69.0886861,7.83284672 C66.9718978,6.80656934 64.9021898,6.30766423 62.7605839,6.30766423 C55.9310219,6.30766423 53.5076642,10.5145985 53.5076642,14.1167883 C53.5076642,19.2850365 57.8832117,20.529562 61.0766423,21.4364964 C63.0518248,21.9992701 64.3288321,22.4313869 65.0058394,23.0937956 C65.4058394,23.4854015 65.5978102,23.9565693 65.5978102,24.5846715 C65.5978102,25.8076642 64.2937956,26.4284672 61.7233577,26.4284672 C59.7354015,26.4284672 57.6,25.7890511 55.7105839,24.6310219 L53.7773723,23.4437956 L53.7773723,29.8872263 L54.4310219,30.2485401 C56.2605839,31.2649635 58.1945255,31.860219 60.3058394,32.0529197 C60.8127737,32.0992701 61.330292,32.1215328 61.8587591,32.1215328 C67.7339416,32.1215328 71.3832117,29.2346715 71.3832117,24.5846715 C71.3832117,21.8806569 70.3645985,19.770073 68.3576642,18.310219 L68.3576642,18.310219 Z M79.449635,20.6970803 L79.449635,12.2277372 L85.2686131,12.2277372 L85.2686131,6.71240876 L79.449635,6.71240876 L79.449635,0.353649635 C79.4029197,0.364233577 79.3551095,0.374452555 79.3080292,0.385766423 L79.3080292,0.398540146 C77.4715328,0.811678832 75.5087591,1.4080292 73.6638686,2.26642336 L73.6638686,8.55510949 L73.6635036,8.55510949 L73.6635036,21.019708 C73.6635036,26.5186131 76.1667883,30.2620438 80.5270073,31.5879562 C81.6186131,31.9193431 82.8266423,32.0963504 84.1405109,32.1142336 L84.1405109,26.5569343 C80.7726277,26.4937956 79.4489051,24.9759124 79.4489051,21.2 L79.4489051,20.6970803 L79.449635,20.6970803 L79.449635,20.6970803 Z M50.8354015,6.90656934 C49.1412409,7.28905109 47.3379562,7.82773723 45.6193431,8.58175182 L45.6193431,20.6127737 C45.6193431,20.7208029 45.6153285,20.8244526 45.6135036,20.9332117 L45.6135036,21.200365 C45.6135036,22.160219 45.5226277,22.9791971 45.3306569,23.6627737 C44.7627737,25.6941606 43.310219,26.5635036 40.7025547,26.5635036 C37.1667883,26.5635036 35.7908759,25.0587591 35.7908759,21.200365 L35.7908759,6.75109489 C35.580292,6.79781022 35.370073,6.84489051 35.1587591,6.89379562 L35.1587591,6.90656934 C33.4850365,7.28357664 31.7040146,7.81459854 30.0047445,8.55547445 L30.0047445,21.020073 C30.0047445,26.5189781 32.5083942,30.2624088 36.8686131,31.5883212 C38.0218978,31.9383212 39.3021898,32.1215328 40.7029197,32.1215328 C47.4007299,32.1215328 51.4,27.9729927 51.4,21.020073 L51.4,6.76532847 C51.2109489,6.80729927 51.0233577,6.84817518 50.8357664,6.89379562 L50.8357664,6.90656934 L50.8354015,6.90656934 Z" id="path-1"></path>
    </defs>
    <g id="Page-1" stroke="none" stroke-width="1" fill="none" fill-rule="evenodd">
        <g id="iPhone-6" transform="translate(-50.000000, -689.000000)">
            <g id="logo2" transform="translate(50.000000, 689.000000)">
                <g id="Layer_1">
                    <g id="Group">
                        <g id="Clipped" transform="translate(64.233577, 0.000000)">
                            <mask id="mask-2" fill="white">
                                <use xlink:href="#path-1"></use>
                            </mask>
                            <g id="SVGID_1_"></g>
                            <g id="Group" mask="url(#mask-2)">
                                <g transform="translate(-28.832117, -34.306569)" id="Shape">
                                    <path d="M34.7423358,48.3226277 C35.7930657,50.0733577 37.0850365,51.7175182 38.6281022,53.1978102 C41.3083942,52.0631387 43.8386861,50.4824818 46.1142336,48.4675182 C42.4193431,47.6167883 38.5416058,47.5459854 34.7423358,48.3226277 L34.7423358,48.3226277 Z M50.7791971,50.0043796 C50.5908759,50.1058394 50.4014599,50.2040146 50.2153285,50.3120438 C47.380292,51.9536496 45.1043796,54.1883212 43.4427007,56.7656934 C49.0722628,59.9124088 55.6967153,60.5562044 61.7233577,58.740146 C58.8427007,54.7978102 55.0328467,51.8463504 50.7791971,50.0043796 L50.7791971,50.0043796 Z" fill="#00A651"></path>
                                    <path d="M63.2985401,61.150365 C62.8116788,60.3087591 62.2824818,59.5080292 61.7211679,58.740146 C55.6945255,60.5558394 49.0708029,59.9153285 43.4416058,56.7671533 C39.5087591,62.870073 39.0456204,70.9054745 42.9346715,77.6211679 C47.2551095,85.0857664 55.6645985,88.7087591 63.6927007,87.3 C64.1828467,86.389781 64.6156934,85.4525547 64.9967153,84.4956204 C64.949635,84.4175182 64.9,84.3423358 64.8536496,84.2631387 C61.5291971,78.5175182 62.069708,71.600365 65.6653285,66.5127737 C65.0857664,64.6810219 64.3018248,62.8832117 63.2985401,61.150365 L63.2985401,61.150365 Z M119.842336,54.6040146 C118.826642,55.479562 118.007664,56.4981752 117.382117,57.6014599 C117.380292,57.6029197 117.378832,57.6040146 117.376642,57.6051095 C117.378102,57.6032847 117.378832,57.6014599 117.379927,57.599635 C111.968978,52.8470803 104.636496,51.2390511 97.9193431,52.959854 C97.35,56.2124088 95.7507299,59.3032847 93.1642336,61.7065693 C99.5875912,67.9664234 108.676277,70.1529197 116.961679,68.0083942 L116.963139,68.0094891 C116.964964,68.0087591 116.966058,68.0083942 116.968248,68.0080292 C117.400365,68.9350365 117.957299,69.8218978 118.657664,70.6346715 C120.292336,72.530292 122.417518,73.7521898 124.683212,74.2784672 C124.761679,71.3156934 124.225547,68.3324818 123.067153,65.5310219 C124.456934,64.739781 125.790511,63.8062044 127.047445,62.7233577 C129.981387,60.1930657 132.185766,57.1310219 133.641971,53.8036496 C129.493066,50.9879562 123.821168,51.1737226 119.842336,54.6040146 L119.842336,54.6040146 Z" fill="#00B2B6"></path>
                                    <path d="M85.9521898,61.0653285 C83.6368613,60.0058394 81.0934307,59.4956204 78.5335766,59.580292 C76.1627737,59.6583942 73.7784672,60.2456204 71.5474453,61.3992701 C73.9551095,63.7737226 76.9748175,65.220438 80.1281022,65.7058394 C81.1791971,65.8675182 82.2445255,65.9222628 83.3069343,65.8693431 C85.6857664,65.7514599 88.050365,65.0937956 90.2029197,63.8773723 C88.9277372,62.7109489 87.489781,61.7693431 85.9521898,61.0653285 L85.9521898,61.0653285 Z" fill="#006838"></path>
                                    <path d="M42.9350365,77.6211679 C39.0456204,70.9058394 39.5087591,62.870073 43.4419708,56.7671533 C41.7645985,55.829562 40.1755474,54.670438 38.7175182,53.2868613 C38.6861314,53.2576642 38.6576642,53.2262774 38.6270073,53.1963504 C33.3839416,55.4189781 27.5821168,55.9510949 22.0627737,54.7642336 C12.9317518,63.0667883 10.4824818,76.8813869 16.9167883,87.9989051 C24.3281022,100.806204 40.7233577,105.181387 53.5332117,97.7693431 C57.9883212,95.189781 61.420073,91.5226277 63.6930657,87.2992701 C55.6645985,88.7087591 47.2551095,85.0857664 42.9350365,77.6211679 L42.9350365,77.6211679 Z M135.870803,55.7868613 C135.201825,55.0120438 134.450365,54.3514599 133.641971,53.8032847 C132.185766,57.1306569 129.981387,60.1930657 127.047445,62.7229927 C125.791241,63.8062044 124.455839,64.7383212 123.067153,65.5306569 C124.225547,68.3321168 124.761679,71.3153285 124.683212,74.2781022 C128.097445,75.0715328 131.831387,74.2821168 134.689781,71.8164234 C139.437956,67.7182482 139.968248,60.5423358 135.870803,55.7868613 L135.870803,55.7868613 Z M118.657299,70.6346715 C117.956934,69.8215328 117.4,68.9350365 116.967883,68.0080292 L116.962774,68.0094891 C116.962774,68.0087591 116.962044,68.0083942 116.962044,68.0083942 C108.677737,70.1529197 99.5883212,67.9671533 93.1653285,61.7076642 C93.0226277,61.839781 92.879562,61.9718978 92.7310219,62.099635 C91.9324818,62.7875912 91.0839416,63.3791971 90.2,63.8788321 C91.4083942,64.9828467 92.4726277,66.2861314 93.3361314,67.7781022 C97.6211679,75.1846715 95.4872263,84.5430657 88.6518248,89.4105839 C96.5467153,96.7737226 108.888686,97.1649635 117.251825,89.9478102 C122.013869,85.8437956 124.523723,80.1018248 124.676277,74.2770073 C122.413139,73.7492701 120.290511,72.5284672 118.657299,70.6346715 L118.657299,70.6346715 Z M129.662044,27.3346715 C120.610949,16.8368613 104.760949,15.6667883 94.2715328,24.719708 C90.8591241,27.6605839 88.4390511,31.320438 87.0277372,35.279927 C89.7824818,36.1072993 92.3423358,37.6989051 94.3605839,40.0383212 C97.5474453,43.7346715 98.699635,48.4952555 97.920073,52.9562044 C104.638321,51.2364964 111.972263,52.8456204 117.383577,57.5989051 C118.008759,56.4967153 118.827372,55.4791971 119.841971,54.6043796 C123.820438,51.1740876 129.492336,50.9883212 133.641606,53.8040146 C137.394891,45.229562 136.180292,34.8916058 129.662044,27.3346715 L129.662044,27.3346715 Z M67.9014599,55.8379562 C65.9671533,57.1211679 63.8813869,58.0835766 61.720073,58.7350365 C61.7208029,58.7364964 61.7222628,58.7386861 61.7233577,58.740146 C61.7222628,58.7405109 61.7222628,58.7405109 61.7211679,58.7405109 C62.2824818,59.5083942 62.8116788,60.3091241 63.2985401,61.1507299 C64.3014599,62.8832117 65.0854015,64.6813869 65.6653285,66.5131387 C66.9919708,64.6368613 68.730292,63.0076642 70.8485401,61.7806569 C71.079927,61.6470803 71.3124088,61.5208029 71.5470803,61.3992701 C71.2456204,61.1018248 70.9507299,60.7937956 70.6693431,60.4671533 C69.4514599,59.0540146 68.5313869,57.4854015 67.9014599,55.8379562 L67.9014599,55.8379562 Z" fill="#9DDAE7"></path>
                                    <path d="M38.6281022,53.1978102 C37.0850365,51.7171533 35.7930657,50.0729927 34.7423358,48.3226277 C31.9788321,48.8872263 29.2569343,49.8934307 26.680292,51.3839416 C24.9912409,52.3620438 23.4529197,53.5 22.0649635,54.7616788 C27.5828467,55.9459854 33.3839416,55.4186131 38.6270073,53.1985401 C38.6572993,53.2277372 38.6864964,53.2580292 38.7171533,53.2872263 C40.1755474,54.6708029 41.7649635,55.8281022 43.4427007,56.7656934 C45.1043796,54.1883212 47.380292,51.9536496 50.2153285,50.3120438 C50.4014599,50.2043796 50.5908759,50.1058394 50.7791971,50.0043796 C49.2729927,49.3521898 47.7124088,48.8361314 46.1156934,48.4686131 C43.8405109,50.4850365 41.3087591,52.0635036 38.6281022,53.1978102 L38.6281022,53.1978102 Z M46.1145985,48.4678832 C46.7091241,47.9412409 47.2905109,47.3923358 47.8470803,46.8054745 C56.7405109,37.4324818 57.7467153,23.4448905 51.0835766,13.0255474 C46.1985401,13.8277372 41.5262774,16.1693431 37.8580292,20.0354015 C30.4164234,27.8729927 29.4427007,39.490146 34.7427007,48.3229927 C38.5416058,47.5459854 42.4193431,47.6167883 46.1145985,48.4678832 L46.1145985,48.4678832 Z M93.3361314,67.7781022 C92.4726277,66.2861314 91.4083942,64.9832117 90.2,63.8788321 C88.0492701,65.0937956 85.6868613,65.7514599 83.3094891,65.870438 C80.4945255,73.0372263 81.6430657,81.4817518 87.0211679,87.7186131 C87.5390511,88.3193431 88.0850365,88.8817518 88.6518248,89.4105839 C95.4872263,84.5427007 97.6211679,75.1846715 93.3361314,67.7781022 L93.3361314,67.7781022 Z M64.8540146,84.2635036 C64.900365,84.3427007 64.95,84.4178832 64.9970803,84.4959854 C67.2412409,78.8562044 67.5609489,72.5014599 65.6656934,66.5135036 C62.070073,71.600365 61.529562,78.5175182 64.8540146,84.2635036 L64.8540146,84.2635036 Z M66.9448905,48.790146 C61.7974453,46.9554745 55.9357664,47.2354015 50.7810219,50.0051095 C55.0339416,51.8470803 58.8427007,54.7981752 61.7229927,58.739781 C63.8843066,58.0879562 65.9693431,57.1229927 67.9029197,55.8412409 C67.0354015,53.5740876 66.7226277,51.1583942 66.9448905,48.790146 L66.9448905,48.790146 Z" fill="#2CB34A"></path>
                                    <path d="M94.3609489,40.0383212 C92.3430657,37.6989051 89.7828467,36.1072993 87.0281022,35.279927 C87.0284672,35.2791971 87.0288321,35.2781022 87.0291971,35.2773723 C84.2350365,34.4383212 81.239781,34.389781 78.4040146,35.1591241 C76.2186131,35.7521898 74.1281022,36.8306569 72.2985401,38.4076642 C69.1124088,41.1558394 67.3069343,44.9065693 66.9427007,48.7872263 C66.7208029,51.1551095 67.0350365,53.5715328 67.9014599,55.8379562 C67.9029197,55.8372263 67.9040146,55.8368613 67.9051095,55.8361314 C68.5343066,57.4843066 69.4510949,59.0536496 70.669708,60.4671533 C70.9510949,60.7937956 71.2441606,61.1029197 71.5456204,61.4 C73.7766423,60.2459854 76.1616788,59.6532847 78.5332117,59.5744526 L78.5332117,59.580292 C81.0930657,59.4959854 83.6364964,60.0058394 85.9518248,61.0653285 C85.9536496,61.0664234 85.9547445,61.0671533 85.9554745,61.0671533 C85.9554745,61.0678832 85.9551095,61.0678832 85.9547445,61.0686131 C87.4905109,61.7718978 88.9273723,62.7105839 90.2007299,63.8759124 C91.0846715,63.3770073 91.9332117,62.7872263 92.7310219,62.099635 C92.880292,61.970438 93.0240876,61.8390511 93.1671533,61.7058394 C93.1667883,61.7054745 93.1664234,61.7051095 93.1656934,61.7047445 C95.7510949,59.3018248 97.35,56.2113139 97.9189781,52.959854 L97.9142336,52.9572993 C98.6967153,48.4970803 97.5485401,43.7357664 94.3609489,40.0383212 L94.3609489,40.0383212 Z" fill="#006C96"></path>
                                    <path d="M66.9427007,48.7872263 C66.9434307,48.7875912 66.9445255,48.7875912 66.9448905,48.7875912 C67.3091241,44.9065693 69.1120438,41.1558394 72.2985401,38.4076642 C74.1288321,36.830292 76.220073,35.7518248 78.4058394,35.1587591 C78.140146,29.2985401 75.6967153,23.529562 71.1051095,19.1718978 C65.5525547,13.9 58.0981752,11.8733577 51.0835766,13.0251825 C57.7467153,23.4445255 56.7405109,37.4321168 47.8470803,46.8051095 C47.2905109,47.3919708 46.7091241,47.9408759 46.1145985,48.4675182 L46.1156934,48.4686131 C47.7124088,48.8357664 49.2729927,49.3518248 50.7791971,50.0043796 L50.7810219,50.0051095 C55.9354015,47.2357664 61.7959854,46.9554745 66.9423358,48.7894161 C66.9427007,48.7886861 66.9427007,48.7879562 66.9427007,48.7872263 L66.9427007,48.7872263 Z M46.8306569,7.87262774 C35.8021898,-2.59306569 18.3759124,-2.13759124 7.9040146,8.89087591 C-2.56386861,19.919708 -2.10985401,37.3474453 8.91970803,47.8175182 C12.7229927,51.4281022 17.2875912,53.7364964 22.0649635,54.7616788 C23.4529197,53.5 24.9912409,52.3620438 26.680292,51.3839416 C29.2569343,49.8934307 31.9788321,48.8872263 34.7423358,48.3226277 C29.4427007,39.490146 30.4160584,27.8726277 37.8576642,20.0350365 C41.5262774,16.1689781 46.1985401,13.8273723 51.0832117,13.0251825 C49.9043796,11.1813869 48.4894161,9.44708029 46.8306569,7.87262774 L46.8306569,7.87262774 Z M87.0211679,87.7186131 C81.6430657,81.4817518 80.4945255,73.0368613 83.3094891,65.870438 C82.2452555,65.9237226 81.1788321,65.8689781 80.1262774,65.7069343 C76.9733577,65.2215328 73.9576642,63.7751825 71.5507299,61.4029197 C71.3153285,61.5248175 71.0835766,61.6525547 70.8485401,61.7806569 C67.4510949,63.6408759 65.6653285,66.5131387 65.6653285,66.5131387 C67.5605839,72.5010949 67.2408759,78.8558394 64.9967153,84.4956204 C64.9967153,84.4956204 65.889781,85.8762774 66.4908759,86.5941606 C71.5288321,92.6124088 80.3091241,94.3266423 87.3361314,90.259854 C87.7930657,89.9956204 88.230292,89.7109489 88.6514599,89.4105839 C88.0854015,88.8817518 87.5390511,88.319708 87.0211679,87.7186131 L87.0211679,87.7186131 Z" fill="#A1CC3E"></path>
                                </g>
                            </g>
                        </g>
                        <path d="M31.0737226,11.0992701 L31.1394161,11.0835766 C31.4609489,11.0014599 31.9686131,10.9036496 32.5645985,10.9036496 C33.979562,10.9036496 34.1744526,11.5631387 34.1744526,12.2737226 L34.1744526,17.4160584 L35.8237226,17.4160584 L35.8237226,12.2737226 C35.8237226,11.8941606 35.7824818,11.5605839 35.6952555,11.2547445 L35.6729927,11.1718978 L35.7543796,11.1489051 C36.3244526,10.9850365 36.85,10.9036496 37.3583942,10.9036496 C38.7372263,10.9036496 38.9237226,11.5967153 38.9237226,12.2737226 L38.9237226,17.4160584 L40.5729927,17.4160584 L40.5729927,12.2737226 C40.5729927,10.3828467 39.399635,9.2540146 37.4328467,9.2540146 C36.5565693,9.2540146 35.6806569,9.43576642 34.7543796,9.80729927 L34.7120438,9.82481752 L34.6740876,9.79890511 C34.1485401,9.44306569 33.4653285,9.2540146 32.6981752,9.2540146 C31.2321168,9.2540146 30.0321168,9.77664234 29.5835766,10.0010949 L29.4237226,10.0806569 L29.4237226,17.4164234 L31.0733577,17.4164234 L31.0733577,11.0992701 L31.0737226,11.0992701 Z M18.1645985,17.4160584 L19.8142336,17.4160584 L19.8142336,6.55109489 L18.1645985,6.55109489 L18.1645985,17.4160584 L18.1645985,17.4160584 Z M13.000365,9.2540146 C11.5875912,9.2540146 9.21861314,9.79233577 9.21861314,13.3937956 C9.21861314,16.9967153 11.5875912,17.5343066 13.000365,17.5343066 C14.4186131,17.5343066 16.7985401,16.9963504 16.7985401,13.3937956 C16.7981752,9.79233577 14.4186131,9.2540146 13.000365,9.2540146 L13.000365,9.2540146 Z M13.000365,15.9759124 C11.9682482,15.9759124 10.8678832,15.7766423 10.8678832,13.3937956 C10.8678832,11.0138686 11.9686131,10.8142336 13.000365,10.8142336 C14.0394161,10.8142336 15.1474453,11.0138686 15.1474453,13.3937956 C15.1474453,15.7766423 14.0390511,15.9759124 13.000365,15.9759124 L13.000365,15.9759124 Z M28.0569343,13.9916058 L28.0569343,9.38832117 L26.4080292,9.38832117 L26.4080292,14.0521898 C26.4080292,15.390146 25.8817518,15.9609489 24.649635,15.9609489 C23.4,15.9609489 22.889781,15.4083942 22.889781,14.0521898 L22.889781,9.38832117 L21.240146,9.38832117 L21.240146,13.9916058 C21.240146,16.210219 22.5153285,17.5346715 24.649635,17.5346715 C26.7839416,17.5346715 28.0569343,16.210219 28.0569343,13.9916058 L28.0569343,13.9916058 Z M5.08467153,6.74416058 C1.87773723,6.74416058 0.182116788,8.60948905 0.182116788,12.1405109 C0.182116788,15.6689781 1.87773723,17.5343066 5.08467153,17.5343066 C6.17043796,17.5343066 7.22554745,17.3375912 8.22116788,16.9474453 L8.4040146,16.8748175 L8.4040146,15.2178832 L8.00620438,15.3850365 C7.11678832,15.7569343 6.17408759,15.9448905 5.20328467,15.9448905 C2.84014599,15.9448905 1.83138686,14.8069343 1.83138686,12.1405109 C1.83138686,9.5080292 2.87116788,8.33467153 5.20328467,8.33467153 C6.15656934,8.33467153 7.09854015,8.52773723 8.00620438,8.90875912 L8.4040146,9.0770073 L8.4040146,7.42043796 L8.22591241,7.34817518 C7.23759124,6.94744526 6.18175182,6.74416058 5.08467153,6.74416058 L5.08467153,6.74416058 Z M38.6317518,23.5916058 C37.8459854,23.5916058 37.060219,23.7273723 36.2974453,23.9963504 L36.1047445,24.0631387 L36.1047445,25.7237226 L36.4908759,25.5806569 C36.7072993,25.500365 37.4963504,25.2412409 38.5726277,25.2412409 C39.7558394,25.2412409 40.2959854,25.5686131 40.4339416,26.3733577 L40.4525547,26.4813869 L40.3419708,26.4733577 C40.0806569,26.4543796 39.809854,26.4445255 39.5580292,26.4445255 C35.9175182,26.4445255 35.3740876,28.1587591 35.3740876,29.1806569 C35.3740876,31.1649635 37.1346715,31.8715328 38.7810219,31.8715328 C40.400365,31.8715328 42.129562,31.1770073 42.129562,29.2266423 L42.129562,26.9857664 C42.1291971,24.7653285 40.920438,23.5916058 38.6317518,23.5916058 L38.6317518,23.5916058 Z M40.4817518,29.2266423 C40.4817518,29.4916058 40.4817518,30.2989051 38.7806569,30.2989051 C37.0226277,30.2989051 37.0226277,29.4587591 37.0226277,29.1810219 C37.0226277,28.3905109 37.8350365,27.9905109 39.4390511,27.9905109 C39.7638686,27.9905109 40.0784672,28.0043796 40.4029197,28.0328467 L40.4817518,28.0408759 L40.4817518,29.2266423 L40.4817518,29.2266423 Z M51.0744526,6.15729927 C50.4729927,6.15729927 49.9835766,6.64817518 49.9835766,7.25072993 C49.9835766,7.85145985 50.4729927,8.34160584 51.0744526,8.34160584 C51.6759124,8.34160584 52.1660584,7.85145985 52.1660584,7.25072993 C52.1660584,6.64854015 51.6759124,6.15729927 51.0744526,6.15729927 L51.0744526,6.15729927 Z M56.4357664,9.2540146 C55.6492701,9.2540146 54.8645985,9.39051095 54.1010949,9.65912409 L53.9087591,9.72591241 L53.9087591,11.3854015 L54.2952555,11.2430657 C54.5138686,11.1642336 55.3116788,10.9036496 56.3762774,10.9036496 C57.1529197,10.9036496 58.0656934,11.0328467 58.2368613,12.0357664 L58.2562044,12.1452555 L58.1445255,12.1372263 C57.9678832,12.1233577 57.6875912,12.1083942 57.3616788,12.1083942 C53.720438,12.1083942 53.1770073,13.8222628 53.1770073,14.8437956 C53.1770073,16.8273723 54.9379562,17.5346715 56.5850365,17.5346715 C58.2040146,17.5346715 59.9343066,16.8386861 59.9343066,14.8879562 L59.9343066,12.6489051 C59.9339416,10.4284672 58.7244526,9.2540146 56.4357664,9.2540146 L56.4357664,9.2540146 Z M58.2854015,14.8875912 C58.2854015,15.1532847 58.2854015,15.9605839 56.5846715,15.9605839 C54.8255474,15.9605839 54.8255474,15.119708 54.8255474,14.8434307 C54.8255474,14.0518248 55.6386861,13.6507299 57.2423358,13.6507299 C57.579562,13.6507299 57.9043796,13.6664234 58.2065693,13.6959854 L58.2854015,13.7036496 L58.2854015,14.8875912 L58.2854015,14.8875912 Z M51.0744526,20.3226277 C50.4729927,20.3226277 49.9835766,20.8124088 49.9835766,21.4131387 C49.9835766,22.0149635 50.4729927,22.5047445 51.0744526,22.5047445 C51.6759124,22.5047445 52.1660584,22.0149635 52.1660584,21.4131387 C52.1660584,20.8124088 51.6759124,20.3226277 51.0744526,20.3226277 L51.0744526,20.3226277 Z M56.599635,23.5916058 C54.9740876,23.5916058 53.6777372,24.1751825 53.319708,24.3532847 L53.1616788,24.4321168 L53.1616788,31.7540146 L54.8109489,31.7540146 L54.8109489,25.469708 L54.8759124,25.4532847 C55.429927,25.3127737 55.970073,25.2416058 56.4806569,25.2416058 C57.9912409,25.2416058 58.1948905,25.9343066 58.1948905,26.6124088 L58.1948905,31.7540146 L59.8434307,31.7540146 L59.8434307,26.6124088 C59.8434307,24.720438 58.6306569,23.5916058 56.599635,23.5916058 L56.599635,23.5916058 Z M51.8985401,9.38832117 L50.2492701,9.38832117 L50.2492701,17.4160584 L51.8985401,17.4160584 L51.8985401,9.38832117 L51.8985401,9.38832117 Z M48.9029197,13.3040146 C48.9029197,9.77956204 46.5788321,9.2540146 45.1941606,9.2540146 C44.7113139,9.2540146 44.2244526,9.31350365 43.7514599,9.42992701 L43.6445255,9.45510949 L43.6445255,6.53394161 L41.9941606,6.53394161 L41.9941606,14.8872263 C41.9941606,16.1664234 42.8708029,17.5339416 45.3291971,17.5339416 C46.4043796,17.5346715 48.9029197,17.1218978 48.9029197,13.3040146 L48.9029197,13.3040146 Z M43.6445255,14.9481752 L43.6445255,11.1094891 L43.7018248,11.0886861 C44.1934307,10.9160584 44.6956204,10.829562 45.1937956,10.829562 C46.4649635,10.829562 47.2518248,11.2427007 47.2518248,13.3040146 C47.2518248,15.9759124 45.9043796,15.9759124 45.3288321,15.9759124 C43.8372263,15.9759124 43.6445255,15.4270073 43.6445255,14.9481752 L43.6445255,14.9481752 Z M46.3171533,26.8010949 C45.6,26.5959854 45.0332117,26.4346715 45.0332117,26.0445255 C45.0332117,25.4810219 45.5040146,25.1959854 46.4343066,25.1959854 C47.0029197,25.1959854 47.5576642,25.3540146 48.0806569,25.6638686 L48.5127737,25.920438 L48.5127737,24.1613139 L48.3518248,24.0832117 C47.6667883,23.7521898 47.000365,23.5916058 46.3142336,23.5916058 C44.1518248,23.5916058 43.3843066,24.9124088 43.3843066,26.0445255 C43.3843066,27.6565693 44.6631387,28.0189781 45.7945255,28.3394161 C46.8116788,28.6291971 47.3875912,28.8273723 47.3875912,29.510219 C47.3875912,30.0036496 46.9109489,30.2532847 45.9718978,30.2532847 C45.290146,30.2532847 44.5580292,30.0343066 43.9109489,29.6372263 L43.4740876,29.3689781 L43.4740876,31.1868613 L43.6222628,31.2689781 C44.3507299,31.6740876 45.1339416,31.8711679 46.0156934,31.8711679 C47.8784672,31.8711679 49.0346715,30.9660584 49.0346715,29.509854 C49.0346715,27.5766423 47.5288321,27.1467153 46.3171533,26.8010949 L46.3171533,26.8010949 Z M50.1989051,31.7540146 L51.8481752,31.7540146 L51.8481752,23.7259124 L50.1989051,23.7259124 L50.1989051,31.7540146 L50.1989051,31.7540146 Z M32.6218978,25.8627737 C33.7080292,25.5941606 34.1156934,24.6189781 34.1156934,23.6748175 C34.1156934,22.7014599 33.5806569,21.8357664 32.7321168,21.2850365 C31.819708,20.6872263 30.6872263,20.7492701 29.6481752,20.7492701 L28.4843066,20.7492701 C27.2890511,20.7492701 26.3456204,21.7091241 26.3456204,22.8886861 L26.3456204,31.7609489 L30.3405109,31.7609489 C31.5989051,31.7609489 32.8883212,31.6032847 33.7854015,30.6127737 C34.3518248,29.9832117 34.6189781,29.2594891 34.6189781,28.4266423 C34.6193431,27.0109489 33.879927,26.1919708 32.6218978,25.8627737 L32.6218978,25.8627737 Z M28.0569343,23.0591241 C28.0569343,22.6850365 28.3014599,22.4047445 28.6375912,22.4047445 L29.9105839,22.4047445 C31.389781,22.4047445 32.2321168,22.6470803 32.2321168,23.8649635 C32.2321168,25.3248175 30.8828467,25.2390511 29.8543796,25.2390511 L28.0569343,25.2390511 L28.0569343,23.0591241 L28.0569343,23.0591241 Z M30.2967153,30.3240876 L28.0164234,30.3240876 L28.0164234,26.8021898 L30.0529197,26.8021898 C31.4182482,26.8021898 32.7262774,26.9043796 32.7452555,28.4554745 C32.7259124,30.1379562 31.6594891,30.3240876 30.2967153,30.3240876 L30.2967153,30.3240876 Z" id="Shape" fill="#808285"></path>
                    </g>
                </g>
            </g>
        </g>
    </g>
</svg>