<?xml version="1.0" encoding="UTF-8" standalone="no"?>
<svg width="37px" height="50px" viewBox="0 0 37 50" version="1.1" xmlns="http://www.w3.org/2000/svg" xmlns:xlink="http://www.w3.org/1999/xlink">
    <!-- Generator: Sketch 3.6.1 (26313) - http://www.bohemiancoding.com/sketch -->
    <title>logo4</title>
    <desc>Created with Sketch.</desc>
    <defs></defs>
    <g id="Page-1" stroke="none" stroke-width="1" fill="none" fill-rule="evenodd">
        <g id="iPhone-6" transform="translate(-258.000000, -682.000000)" fill="#5D7E95">
            <g id="logo4" transform="translate(258.000000, 682.000000)">
                <g id="Layer_1">
                    <g id="Clipped">
                        <g id="Group">
                            <path d="M18.1985294,48.5669118 C6.81286765,45.3415441 1.37867647,37.8246324 1.37867647,27.1088235 L1.37867647,1.74338235 L35.0183824,1.74338235 L35.0183824,27.1088235 C35.0183824,37.825 29.5841912,45.3415441 18.1985294,48.5669118 L18.1985294,48.5669118 L18.1985294,48.5669118 Z M0,0.364705882 L0,27.28125 C0,38.5933824 6.15514706,46.7834559 18.1985294,49.9963235 C30.2419118,46.7834559 36.3970588,38.5930147 36.3970588,27.28125 L36.3970588,0.364705882 L0,0.364705882 L0,0.364705882 L0,0.364705882 Z" id="Shape"></path>
                            <path d="M18.1985294,17.7242647 C20.7360294,17.7242647 21.0794118,18.7540441 23.1231618,18.7411765 C25.1595588,18.7540441 25.5084559,17.7242647 28.0463235,17.7242647 C30.5841912,17.7242647 30.9330882,18.7540441 32.9709559,18.7411765 L32.9709559,16.3779412 C30.9330882,16.3915441 30.5841912,15.3746324 28.0463235,15.3746324 C25.5084559,15.3746324 25.1595588,16.3915441 23.1231618,16.3779412 C21.0794118,16.3915441 20.7363971,15.3746324 18.1985294,15.3746324 C15.6606618,15.3746324 15.3176471,16.3915441 13.2738971,16.3779412 C11.2375,16.3915441 10.8886029,15.3746324 8.35073529,15.3746324 C5.81286765,15.3746324 5.46286765,16.3915441 3.42610294,16.3779412 L3.42610294,18.7411765 C5.4625,18.7540441 5.81286765,17.7242647 8.35073529,17.7242647 C10.8886029,17.7242647 11.2375,18.7540441 13.2738971,18.7411765 C15.3176471,18.7536765 15.6610294,17.7242647 18.1985294,17.7242647 L18.1985294,17.7242647 L18.1985294,17.7242647 Z" id="Shape"></path>
                            <path d="M18.1985294,19.2224265 L19.3389706,31.5639706 L23.0441176,21.6845588 L21.6525735,32.7716912 L26.6889706,24.0139706 L23.6761029,34.6790441 L30.0036765,27.8025735 L26.1477941,36.3816176 L32.8316176,31.4852941 C29.7926471,37.9992647 27.6055147,43.2191176 18.1988971,46.1227941 C8.79227941,43.2191176 6.60367647,37.9988971 3.56617647,31.4852941 L10.2485294,36.3816176 L6.39411765,27.8025735 L12.7216912,34.6790441 L9.70882353,24.0139706 L14.7452206,32.7716912 L13.3536765,21.6845588 L17.0588235,31.5639706 L18.1985294,19.2224265 L18.1985294,19.2224265 L18.1985294,19.2224265 Z" id="Shape"></path>
                            <path d="M15.6279412,26.1661765 C16.0099265,26.0209559 16.4121324,25.8753676 16.9319853,25.7827206 L17.1503676,23.4003676 C16.1422794,23.5397059 15.5547794,23.8691176 14.8569853,24.0941176 L15.6279412,26.1661765 L15.6279412,26.1661765 L15.6279412,26.1661765 L15.6279412,26.1661765 Z M11.7647059,26.4691176 C12.1867647,26.6011029 12.6477941,26.69375 13.2738971,26.6875 L13.3198529,26.6875 L13.0238971,24.3308824 C11.7444853,24.2849265 11.1584559,23.8095588 10.0768382,23.5323529 L11.7647059,26.4691176 L11.7647059,26.4691176 L11.7647059,26.4691176 L11.7647059,26.4691176 Z M3.42647059,26.6875 C5.46286765,26.7003676 5.81323529,25.6841912 8.35110294,25.6841912 C8.80477941,25.6841912 9.18823529,25.7165441 9.52426471,25.7694853 L8.83786765,23.3474265 C8.68713235,23.3408088 8.52205882,23.3338235 8.35110294,23.3338235 C5.81360294,23.3338235 5.46323529,24.3507353 3.42647059,24.3375 L3.42647059,26.6875 L3.42647059,26.6875 L3.42647059,26.6875 L3.42647059,26.6875 Z" id="Shape"></path>
                            <path d="M20.7691176,26.1661765 L21.5404412,24.09375 C20.8426471,23.8691176 20.2551471,23.5393382 19.2470588,23.4 L19.4639706,25.7823529 C19.9849265,25.8753676 20.3871324,26.0209559 20.7691176,26.1661765 L20.7691176,26.1661765 L20.7691176,26.1661765 L20.7691176,26.1661765 Z M24.6323529,26.4691176 L26.3198529,23.5323529 C25.2386029,23.8095588 24.6511029,24.2849265 23.3727941,24.3308824 L23.0753676,26.6875 L23.1227941,26.6875 C23.7492647,26.69375 24.2102941,26.6011029 24.6323529,26.4691176 L24.6323529,26.4691176 L24.6323529,26.4691176 L24.6323529,26.4691176 Z M32.9705882,26.6875 L32.9705882,24.3378676 C30.9327206,24.3507353 30.5838235,23.3341912 28.0459559,23.3341912 C27.875,23.3341912 27.7099265,23.3415441 27.5577206,23.3477941 L26.8727941,25.7698529 C27.2088235,25.7165441 27.5908088,25.6845588 28.0459559,25.6845588 C30.5838235,25.6841912 30.9327206,26.7003676 32.9705882,26.6875 L32.9705882,26.6875 L32.9705882,26.6875 L32.9705882,26.6875 Z" id="Shape"></path>
                            <path d="M14.3022059,22.6216912 C15.3305147,22.4106618 15.9363971,21.9088235 17.3007353,21.7507353 L17.5261029,19.38125 C15.6404412,19.5400735 15.1522059,20.3183824 13.4518382,20.3584559 L14.3022059,22.6216912 L14.3022059,22.6216912 L14.3022059,22.6216912 L14.3022059,22.6216912 Z M3.42647059,22.7143382 C5.46286765,22.7338235 5.81323529,21.7040441 8.35110294,21.7040441 C10.6904412,21.7040441 11.1658088,22.5757353 12.8202206,22.7007353 L12.5227941,20.3117647 C11.0996324,20.1136029 10.5393382,19.3544118 8.35073529,19.3544118 C5.81323529,19.3544118 5.46286765,20.3713235 3.42610294,20.3580882 L3.42610294,22.7143382 L3.42647059,22.7143382 L3.42647059,22.7143382 L3.42647059,22.7143382 Z" id="Shape"></path>
                            <path d="M22.0948529,22.6216912 L22.9448529,20.3584559 C21.2430147,20.3183824 20.75625,19.5397059 18.8705882,19.38125 L19.0944853,21.7507353 C20.4588235,21.9088235 21.0665441,22.4106618 22.0948529,22.6216912 L22.0948529,22.6216912 L22.0948529,22.6216912 L22.0948529,22.6216912 Z M32.9705882,22.7143382 L32.9705882,20.3584559 C30.9327206,20.3713235 30.5838235,19.3547794 28.0459559,19.3547794 C25.8573529,19.3547794 25.2970588,20.1136029 23.8738971,20.3121324 L23.5764706,22.7011029 C25.2308824,22.5761029 25.70625,21.7044118 28.0455882,21.7044118 C30.5838235,21.7040441 30.9327206,22.7338235 32.9705882,22.7143382 L32.9705882,22.7143382 L32.9705882,22.7143382 L32.9705882,22.7143382 Z" id="Shape"></path>
                            <path d="M32.9705882,4.04338235 L32.5944853,5.61360294 L32.3963235,5.61360294 C32.0805147,5.17169118 31.6783088,4.82279412 31.2375,4.59779412 C30.775,4.36654412 30.3069853,4.25441176 29.7926471,4.25441176 C28.7514706,4.25441176 27.8625,4.69595588 27.0970588,5.61323529 C26.3533088,6.51801471 25.9639706,7.57352941 25.9639706,8.78125 C25.9639706,9.92941176 26.3257353,10.9727941 27.0441176,11.8632353 C27.8095588,12.8205882 28.7386029,13.2952206 29.8202206,13.2952206 C30.2738971,13.2952206 30.7621324,13.1966912 31.2764706,12.9720588 C31.6198529,12.8205882 32.0808824,12.5698529 32.6349265,12.2139706 C32.69375,12.19375 32.7856618,12.2139706 32.9106618,12.2525735 L32.5356618,13.5731618 C32.0400735,13.7908088 31.5261029,13.9625 30.9988971,14.0419118 C30.4588235,14.1404412 29.8716912,14.1797794 29.2397059,14.1797794 C27.8352941,14.1797794 26.6158088,13.8363971 25.5488971,13.1444853 C24.0911765,12.19375 23.3529412,10.7547794 23.3529412,8.83455882 C23.3529412,7.15772059 23.9919118,5.79154412 25.2716912,4.74926471 C26.4507353,3.77904412 27.9011029,3.31029412 29.6216912,3.31029412 C30.16875,3.31029412 30.7088235,3.36360294 31.2632353,3.48897059 C31.8029412,3.61470588 32.3702206,3.80551471 32.9705882,4.04338235 L32.9705882,4.04338235 L32.9705882,4.04338235 Z" id="Shape"></path>
                            <path d="M12.8849265,10.2268382 C12.8849265,11.2959559 12.4569853,12.2264706 11.5808824,13.0180147 C10.7106618,13.8106618 9.64227941,14.2128676 8.35110294,14.2128676 C7.11764706,14.2128676 6.00441176,13.9621324 5.02205882,13.4474265 C3.95367647,12.8930147 3.42647059,12.19375 3.42647059,11.375 L3.42647059,3.48897059 L5.81323529,3.48897059 L5.81323529,10.5305147 C5.81323529,11.2628676 6.05036765,11.8897059 6.50551471,12.4047794 C6.97941176,12.9194853 7.55955882,13.1702206 8.27205882,13.1702206 L8.575,13.1702206 C9.28014706,13.1702206 9.93198529,12.9463235 10.5125,12.5040441 C11.1386029,12.0022059 11.4617647,11.4213235 11.4617647,10.7419118 L11.4617647,3.48897059 L12.8849265,3.48897059 L12.8849265,10.2268382 L12.8849265,10.2268382 L12.8849265,10.2268382 Z" id="Shape"></path>
                            <path d="M19.2338235,12.5569853 C18.9496324,12.8930147 18.6132353,13.0977941 18.2113971,13.1966912 C18.0591912,13.2360294 17.8941176,13.2492647 17.7301471,13.2492647 L16.6488971,13.2492647 L16.6488971,8.95955882 L17.9084559,8.95955882 C18.0205882,8.95955882 18.1194853,8.97242647 18.2113971,8.98602941 C18.6595588,9.05845588 19.0158088,9.29632353 19.3058824,9.68529412 C19.6088235,10.1011029 19.7610294,10.5698529 19.7610294,11.0977941 C19.7610294,11.6522059 19.5830882,12.1404412 19.2338235,12.5569853 L19.2338235,12.5569853 L19.2338235,12.5569853 Z M16.6488971,4.39301471 L17.5452206,4.39301471 C17.7823529,4.39301471 18.0077206,4.41875 18.2113971,4.47205882 C18.5073529,4.55808824 18.7713235,4.69595588 19.0025735,4.89411765 C19.3845588,5.22426471 19.5827206,5.62610294 19.5827206,6.10147059 C19.5827206,6.59705882 19.4176471,7.04485294 19.1088235,7.43492647 C18.8632353,7.75147059 18.5602941,7.96286765 18.2113971,8.04154412 C18.0720588,8.08823529 17.9213235,8.10110294 17.7691176,8.10110294 L16.6488971,8.10110294 L16.6488971,4.39301471 L16.6488971,4.39301471 L16.6488971,4.39301471 Z M21.7183824,9.1375 C21.0533088,8.68235294 20.275,8.44448529 19.3588235,8.44448529 L19.3330882,8.31875 C20.1360294,8.22683824 20.8422794,7.94963235 21.46875,7.48713235 C22.0948529,7.04485294 22.4106618,6.51764706 22.4106618,5.94338235 C22.4106618,5.27720588 22.1077206,4.72316176 21.5073529,4.25404412 C20.9143382,3.77867647 20.1889706,3.50147059 19.3588235,3.50147059 L14.3422794,3.50147059 L14.3422794,13.9889706 L19.0025735,13.9889706 C20.0378676,13.9889706 20.9139706,13.6988971 21.6191176,13.0977941 C22.3444853,12.5040441 22.7003676,11.7643382 22.7003676,10.8933824 C22.7007353,10.1672794 22.3705882,9.58639706 21.7183824,9.1375 L21.7183824,9.1375 L21.7183824,9.1375 Z" id="Shape"></path>
                        </g>
                    </g>
                </g>
            </g>
        </g>
    </g>
</svg>