<?xml version="1.0" encoding="UTF-8" standalone="no"?>
<svg width="765px" height="95px" viewBox="0 0 765 95" version="1.1" xmlns="http://www.w3.org/2000/svg" xmlns:xlink="http://www.w3.org/1999/xlink" xmlns:sketch="http://www.bohemiancoding.com/sketch/ns">
    <!-- Generator: Sketch 3.5.2 (25235) - http://www.bohemiancoding.com/sketch -->
    <title>Group 3</title>
    <desc>Created with Sketch.</desc>
    <defs>
        <linearGradient x1="-9.15014842e-14%" y1="50%" x2="99.9998306%" y2="50.001%" id="linearGradient-1">
            <stop stop-color="#26B99A" stop-opacity="0.2" offset="0%"></stop>
            <stop stop-color="#1FB092" stop-opacity="0.5852" offset="48.15%"></stop>
            <stop stop-color="#14A085" offset="100%"></stop>
        </linearGradient>
        <linearGradient x1="100%" y1="49.9954545%" x2="-1.44231637e-14%" y2="49.9954545%" id="linearGradient-2">
            <stop stop-color="#14A085" offset="0%"></stop>
            <stop stop-color="#26B99A" stop-opacity="0.3" offset="100%"></stop>
        </linearGradient>
    </defs>
    <g id="Set-Priorities" stroke="none" stroke-width="1" fill="none" fill-rule="evenodd" sketch:type="MSPage">
        <g id="Priority-1" sketch:type="MSArtboardGroup" transform="translate(-345.000000, -442.000000)">
            <g id="Group-3" sketch:type="MSLayerGroup" transform="translate(345.000000, 442.000000)">
                <g id="Group" transform="translate(81.000000, 83.000000)" sketch:type="MSShapeGroup">
                    <rect id="Rectangle-path" fill="url(#linearGradient-1)" x="0.917" y="0.79" width="590.168" height="10"></rect>
                    <path d="M591.585,11.29 L0.417,11.29 L0.417,0.29 L591.585,0.29 L591.585,11.29 L591.585,11.29 Z M1.417,10.29 L590.585,10.29 L590.585,1.29 L1.417,1.29 L1.417,10.29 L1.417,10.29 Z" id="Shape" fill="url(#linearGradient-2)"></path>
                </g>
                <g id="Group" transform="translate(0.000000, 82.000000)" fill="#14A085" sketch:type="MSShapeGroup">
                    <path d="M5.76,10.904 L5.76,6.429 C5.76,5.736 5.614,5.23 5.322,4.915 C5.03,4.599 4.577,4.442 3.964,4.442 C3.139,4.442 2.534,4.649 2.152,5.067 C1.769,5.483 1.578,6.159 1.578,7.094 L1.578,10.903 L0.95,10.903 L0.95,4.003 L1.483,4.003 L1.604,4.95 L1.642,4.95 C2.09,4.229 2.888,3.87 4.035,3.87 C5.6,3.87 6.384,4.71 6.384,6.39 L6.384,10.904 L5.76,10.904 L5.76,10.904 Z" id="Shape"></path>
                    <path d="M14.843,7.445 C14.843,8.57 14.57,9.449 14.024,10.082 C13.478,10.715 12.725,11.031 11.764,11.031 C11.159,11.031 10.625,10.885 10.164,10.593 C9.703,10.3 9.349,9.882 9.104,9.335 C8.858,8.79 8.736,8.159 8.736,7.444 C8.736,6.319 9.009,5.442 9.555,4.813 C10.101,4.184 10.85,3.87 11.802,3.87 C12.75,3.87 13.493,4.188 14.033,4.825 C14.573,5.462 14.843,6.335 14.843,7.445 L14.843,7.445 Z M9.397,7.445 C9.397,8.392 9.605,9.133 10.022,9.664 C10.439,10.195 11.028,10.461 11.79,10.461 C12.552,10.461 13.141,10.195 13.558,9.664 C13.975,9.133 14.183,8.393 14.183,7.445 C14.183,6.492 13.973,5.754 13.551,5.23 C13.13,4.705 12.539,4.443 11.777,4.443 C11.015,4.443 10.428,4.705 10.015,5.226 C9.603,5.75 9.397,6.488 9.397,7.445 L9.397,7.445 Z" id="Shape"></path>
                    <path d="M21.082,2.087 C21.082,1.681 21.215,1.478 21.482,1.478 C21.613,1.478 21.716,1.531 21.79,1.636 C21.864,1.741 21.901,1.892 21.901,2.087 C21.901,2.276 21.864,2.427 21.79,2.538 C21.716,2.647 21.613,2.702 21.482,2.702 C21.215,2.703 21.082,2.498 21.082,2.087 L21.082,2.087 Z M21.799,10.904 L21.171,10.904 L21.171,4.004 L21.799,4.004 L21.799,10.904 L21.799,10.904 Z" id="Shape"></path>
                    <path d="M29.441,10.904 L29.441,6.429 C29.441,5.736 29.295,5.23 29.003,4.915 C28.711,4.599 28.258,4.442 27.645,4.442 C26.82,4.442 26.216,4.649 25.833,5.067 C25.45,5.483 25.258,6.159 25.258,7.094 L25.258,10.903 L24.63,10.903 L24.63,4.003 L25.163,4.003 L25.283,4.95 L25.321,4.95 C25.77,4.229 26.568,3.87 27.715,3.87 C29.28,3.87 30.064,4.71 30.064,6.39 L30.064,10.904 L29.441,10.904 L29.441,10.904 Z" id="Shape"></path>
                    <path d="M35.382,4.55 L33.757,4.55 L33.757,10.904 L33.129,10.904 L33.129,4.55 L31.847,4.55 L31.847,4.181 L33.129,3.947 L33.129,3.414 C33.129,2.568 33.284,1.947 33.595,1.551 C33.906,1.156 34.415,0.957 35.122,0.957 C35.503,0.957 35.884,1.016 36.265,1.129 L36.119,1.676 C35.781,1.571 35.444,1.516 35.11,1.516 C34.619,1.516 34.271,1.662 34.066,1.952 C33.86,2.243 33.758,2.714 33.758,3.364 L33.758,4.005 L35.383,4.005 L35.383,4.55 L35.382,4.55 Z M36.626,2.087 C36.626,1.681 36.76,1.478 37.026,1.478 C37.157,1.478 37.259,1.531 37.334,1.636 C37.409,1.741 37.445,1.892 37.445,2.087 C37.445,2.276 37.408,2.427 37.334,2.538 C37.26,2.647 37.157,2.702 37.026,2.702 C36.76,2.703 36.626,2.498 36.626,2.087 L36.626,2.087 Z M37.344,10.904 L36.715,10.904 L36.715,4.004 L37.344,4.004 L37.344,10.904 L37.344,10.904 Z" id="Shape"></path>
                    <path d="M40.803,10.904 L40.174,10.904 L40.174,1.027 L40.803,1.027 L40.803,10.904 L40.803,10.904 Z" id="Shape"></path>
                    <path d="M44.262,10.904 L43.633,10.904 L43.633,1.027 L44.262,1.027 L44.262,10.904 L44.262,10.904 Z" id="Shape"></path>
                </g>
                <g id="Group" transform="translate(708.000000, 82.000000)" fill="#14A085" sketch:type="MSShapeGroup">
                    <path d="M5.601,10.904 L5.443,9.812 L5.392,9.812 C5.045,10.257 4.688,10.572 4.323,10.755 C3.957,10.939 3.524,11.03 3.024,11.03 C2.347,11.03 1.821,10.856 1.444,10.51 C1.067,10.162 0.879,9.682 0.879,9.069 C0.879,8.395 1.159,7.874 1.721,7.501 C2.282,7.13 3.093,6.933 4.155,6.911 L5.469,6.872 L5.469,6.415 C5.469,5.761 5.335,5.265 5.069,4.931 C4.803,4.597 4.373,4.429 3.781,4.429 C3.142,4.429 2.479,4.607 1.794,4.962 L1.56,4.417 C2.317,4.062 3.067,3.884 3.807,3.884 C4.565,3.884 5.13,4.079 5.505,4.474 C5.879,4.867 6.067,5.482 6.067,6.314 L6.067,10.904 L5.601,10.904 L5.601,10.904 Z M3.062,10.46 C3.798,10.46 4.379,10.249 4.805,9.827 C5.23,9.407 5.443,8.821 5.443,8.073 L5.443,7.393 L4.237,7.444 C3.268,7.491 2.577,7.641 2.165,7.897 C1.752,8.153 1.546,8.553 1.546,9.094 C1.546,9.526 1.678,9.862 1.942,10.1 C2.206,10.341 2.579,10.46 3.062,10.46 L3.062,10.46 Z" id="Shape"></path>
                    <path d="M9.447,10.904 L8.818,10.904 L8.818,1.027 L9.447,1.027 L9.447,10.904 L9.447,10.904 Z" id="Shape"></path>
                    <path d="M12.906,10.904 L12.277,10.904 L12.277,1.027 L12.906,1.027 L12.906,10.904 L12.906,10.904 Z" id="Shape"></path>
                    <path d="M19.545,2.087 C19.545,1.681 19.678,1.478 19.944,1.478 C20.076,1.478 20.178,1.531 20.252,1.636 C20.326,1.741 20.363,1.892 20.363,2.087 C20.363,2.276 20.326,2.427 20.252,2.538 C20.179,2.647 20.076,2.702 19.944,2.702 C19.678,2.703 19.545,2.498 19.545,2.087 L19.545,2.087 Z M20.262,10.904 L19.634,10.904 L19.634,4.004 L20.262,4.004 L20.262,10.904 L20.262,10.904 Z" id="Shape"></path>
                    <path d="M27.904,10.904 L27.904,6.429 C27.904,5.736 27.758,5.23 27.466,4.915 C27.174,4.599 26.721,4.442 26.108,4.442 C25.283,4.442 24.679,4.649 24.296,5.067 C23.913,5.483 23.722,6.159 23.722,7.094 L23.722,10.903 L23.094,10.903 L23.094,4.003 L23.627,4.003 L23.747,4.95 L23.785,4.95 C24.233,4.229 25.031,3.87 26.179,3.87 C27.744,3.87 28.528,4.71 28.528,6.39 L28.528,10.904 L27.904,10.904 L27.904,10.904 Z" id="Shape"></path>
                    <path d="M33.845,4.55 L32.22,4.55 L32.22,10.904 L31.592,10.904 L31.592,4.55 L30.31,4.55 L30.31,4.181 L31.592,3.947 L31.592,3.414 C31.592,2.568 31.747,1.947 32.059,1.551 C32.37,1.156 32.878,0.957 33.585,0.957 C33.966,0.957 34.347,1.016 34.728,1.129 L34.582,1.676 C34.243,1.571 33.907,1.516 33.573,1.516 C33.082,1.516 32.734,1.662 32.528,1.952 C32.323,2.243 32.22,2.714 32.22,3.364 L32.22,4.005 L33.845,4.005 L33.845,4.55 L33.845,4.55 Z M35.089,2.087 C35.089,1.681 35.223,1.478 35.489,1.478 C35.62,1.478 35.722,1.531 35.797,1.636 C35.872,1.741 35.908,1.892 35.908,2.087 C35.908,2.276 35.871,2.427 35.797,2.538 C35.723,2.647 35.62,2.702 35.489,2.702 C35.223,2.703 35.089,2.498 35.089,2.087 L35.089,2.087 Z M35.807,10.904 L35.178,10.904 L35.178,4.004 L35.807,4.004 L35.807,10.904 L35.807,10.904 Z" id="Shape"></path>
                    <path d="M39.266,10.904 L38.637,10.904 L38.637,1.027 L39.266,1.027 L39.266,10.904 L39.266,10.904 Z" id="Shape"></path>
                    <path d="M42.725,10.904 L42.096,10.904 L42.096,1.027 L42.725,1.027 L42.725,10.904 L42.725,10.904 Z" id="Shape"></path>
                </g>
                <g id="Group" transform="translate(473.000000, 21.000000)" sketch:type="MSShapeGroup">
                    <g transform="translate(106.000000, 12.000000)" id="Shape">
                        <path d="M3.119,45.503 L3.119,0.291" stroke="#97998D"></path>
                        <path d="M5.762,44.73 L3.119,49.307 L0.477,44.73 L5.762,44.73 Z" fill="#97998D"></path>
                    </g>
                    <g id="Shape" fill="#797A72">
                        <path d="M5.899,10.791 L5.899,5.972 C5.899,5.225 5.742,4.681 5.427,4.342 C5.113,4.002 4.625,3.832 3.964,3.832 C3.075,3.832 2.425,4.057 2.013,4.506 C1.6,4.954 1.394,5.683 1.394,6.69 L1.394,10.792 L0.717,10.792 L0.717,3.361 L1.291,3.361 L1.421,4.38 L1.462,4.38 C1.945,3.606 2.804,3.218 4.039,3.218 C5.726,3.218 6.568,4.122 6.568,5.932 L6.568,10.792 L5.899,10.792 L5.899,10.791 Z"></path>
                        <path d="M12.537,10.928 C11.457,10.928 10.615,10.595 10.011,9.93 C9.407,9.265 9.106,8.332 9.106,7.134 C9.106,5.949 9.397,5 9.981,4.287 C10.564,3.573 11.35,3.217 12.339,3.217 C13.214,3.217 13.904,3.523 14.41,4.133 C14.916,4.743 15.169,5.573 15.169,6.621 L15.169,7.168 L9.816,7.168 C9.825,8.189 10.063,8.968 10.53,9.506 C10.998,10.044 11.666,10.313 12.537,10.313 C12.961,10.313 13.333,10.284 13.654,10.224 C13.975,10.164 14.383,10.037 14.875,9.841 L14.875,10.456 C14.455,10.639 14.068,10.763 13.713,10.828 C13.357,10.895 12.965,10.928 12.537,10.928 L12.537,10.928 Z M12.339,3.818 C11.623,3.818 11.049,4.054 10.616,4.525 C10.182,4.998 9.929,5.677 9.857,6.566 L14.451,6.566 C14.451,5.705 14.263,5.031 13.89,4.546 C13.517,4.061 12.999,3.818 12.339,3.818 L12.339,3.818 Z"></path>
                        <path d="M17.684,1.296 C17.684,0.858 17.828,0.64 18.115,0.64 C18.257,0.64 18.367,0.697 18.447,0.811 C18.526,0.925 18.566,1.086 18.566,1.296 C18.566,1.501 18.526,1.663 18.447,1.781 C18.367,1.899 18.257,1.959 18.115,1.959 C17.827,1.959 17.684,1.738 17.684,1.296 L17.684,1.296 Z M18.456,10.791 L17.779,10.791 L17.779,3.36 L18.456,3.36 L18.456,10.791 L18.456,10.791 Z"></path>
                        <path d="M27.302,3.36 L27.302,3.832 L25.764,3.928 C26.174,4.439 26.379,4.999 26.379,5.61 C26.379,6.326 26.141,6.905 25.664,7.35 C25.187,7.793 24.549,8.016 23.747,8.016 C23.409,8.016 23.173,8.002 23.036,7.975 C22.766,8.117 22.561,8.283 22.421,8.474 C22.279,8.665 22.209,8.869 22.209,9.082 C22.209,9.319 22.299,9.492 22.479,9.602 C22.659,9.712 22.961,9.766 23.385,9.766 L24.684,9.766 C25.491,9.766 26.108,9.929 26.537,10.254 C26.965,10.58 27.18,11.063 27.18,11.7 C27.18,12.484 26.862,13.089 26.226,13.515 C25.59,13.941 24.685,14.154 23.509,14.154 C22.574,14.154 21.851,13.974 21.338,13.614 C20.825,13.254 20.569,12.753 20.569,12.11 C20.569,11.599 20.727,11.175 21.044,10.839 C21.361,10.503 21.79,10.272 22.333,10.149 C22.109,10.053 21.931,9.918 21.796,9.743 C21.661,9.567 21.595,9.365 21.595,9.138 C21.595,8.641 21.911,8.203 22.545,7.826 C22.111,7.648 21.774,7.369 21.533,6.988 C21.291,6.608 21.171,6.172 21.171,5.679 C21.171,4.936 21.406,4.34 21.878,3.892 C22.35,3.443 22.986,3.218 23.789,3.218 C24.276,3.218 24.654,3.266 24.924,3.362 L27.302,3.362 L27.302,3.36 Z M21.286,12.049 C21.286,13.07 22.045,13.58 23.562,13.58 C25.512,13.58 26.488,12.958 26.488,11.714 C26.488,11.268 26.335,10.943 26.03,10.743 C25.724,10.543 25.23,10.442 24.547,10.442 L23.33,10.442 C21.967,10.442 21.286,10.978 21.286,12.049 L21.286,12.049 Z M21.854,5.678 C21.854,6.252 22.028,6.698 22.376,7.014 C22.725,7.331 23.19,7.49 23.774,7.49 C24.393,7.49 24.869,7.333 25.199,7.018 C25.529,6.703 25.695,6.247 25.695,5.651 C25.695,5.017 25.525,4.543 25.185,4.225 C24.845,3.909 24.371,3.75 23.76,3.75 C23.167,3.75 22.701,3.92 22.362,4.26 C22.022,4.599 21.854,5.071 21.854,5.678 L21.854,5.678 Z"></path>
                        <path d="M34.567,10.791 L34.567,5.972 C34.567,5.225 34.41,4.681 34.095,4.342 C33.781,4.002 33.293,3.832 32.632,3.832 C31.743,3.832 31.093,4.057 30.681,4.506 C30.268,4.954 30.062,5.683 30.062,6.69 L30.062,10.792 L29.385,10.792 L29.385,0.155 L30.062,0.155 L30.062,3.539 L30.028,4.489 L30.076,4.489 C30.354,4.043 30.705,3.718 31.129,3.518 C31.553,3.318 32.079,3.217 32.708,3.217 C34.395,3.217 35.237,4.121 35.237,5.931 L35.237,10.791 L34.567,10.791 L34.567,10.791 Z"></path>
                        <path d="M41.342,3.217 C42.381,3.217 43.163,3.544 43.69,4.197 C44.216,4.851 44.479,5.807 44.479,7.065 C44.479,8.3 44.203,9.253 43.649,9.922 C43.095,10.591 42.317,10.927 41.315,10.927 C40.786,10.927 40.309,10.818 39.885,10.599 C39.461,10.38 39.127,10.071 38.881,9.669 L38.819,9.669 L38.628,10.79 L38.204,10.79 L38.204,0.153 L38.882,0.153 L38.882,2.826 C38.882,3.227 38.872,3.597 38.855,3.933 L38.834,4.514 L38.883,4.514 C39.165,4.068 39.506,3.74 39.904,3.53 C40.302,3.32 40.781,3.217 41.342,3.217 L41.342,3.217 Z M41.328,3.832 C40.453,3.832 39.826,4.083 39.447,4.584 C39.069,5.085 38.881,5.912 38.881,7.065 L38.881,7.181 C38.881,8.302 39.077,9.107 39.472,9.594 C39.867,10.081 40.481,10.325 41.315,10.325 C42.126,10.325 42.737,10.042 43.147,9.473 C43.557,8.907 43.762,8.098 43.762,7.05 C43.762,4.905 42.95,3.832 41.328,3.832 L41.328,3.832 Z"></path>
                        <path d="M53.242,7.065 C53.242,8.277 52.948,9.224 52.36,9.906 C51.772,10.587 50.961,10.927 49.926,10.927 C49.275,10.927 48.7,10.77 48.203,10.455 C47.706,10.14 47.325,9.689 47.061,9.101 C46.796,8.513 46.665,7.834 46.665,7.064 C46.665,5.852 46.959,4.907 47.547,4.231 C48.135,3.553 48.942,3.215 49.967,3.215 C50.988,3.215 51.788,3.558 52.369,4.244 C52.951,4.932 53.242,5.871 53.242,7.065 L53.242,7.065 Z M47.377,7.065 C47.377,8.086 47.602,8.882 48.05,9.455 C48.499,10.026 49.134,10.312 49.954,10.312 C50.774,10.312 51.409,10.026 51.857,9.455 C52.306,8.883 52.531,8.086 52.531,7.065 C52.531,6.04 52.304,5.245 51.85,4.679 C51.397,4.114 50.76,3.831 49.94,3.831 C49.12,3.831 48.487,4.112 48.043,4.675 C47.599,5.239 47.377,6.035 47.377,7.065 L47.377,7.065 Z"></path>
                        <path d="M56.447,3.36 L56.447,8.172 C56.447,8.919 56.604,9.463 56.919,9.802 C57.233,10.142 57.722,10.312 58.382,10.312 C59.267,10.312 59.917,10.088 60.334,9.642 C60.751,9.196 60.959,8.468 60.959,7.461 L60.959,3.359 L61.629,3.359 L61.629,10.79 L61.055,10.79 L60.932,9.765 L60.891,9.765 C60.409,10.539 59.549,10.927 58.314,10.927 C56.624,10.927 55.778,10.023 55.778,8.213 L55.778,3.359 L56.447,3.359 L56.447,3.36 Z"></path>
                        <path d="M67.604,3.217 C67.918,3.217 68.255,3.249 68.616,3.313 L68.486,3.962 C68.175,3.885 67.854,3.846 67.522,3.846 C66.888,3.846 66.369,4.115 65.963,4.653 C65.557,5.191 65.355,5.87 65.355,6.69 L65.355,10.792 L64.678,10.792 L64.678,3.361 L65.252,3.361 L65.32,4.701 L65.368,4.701 C65.673,4.154 65.999,3.77 66.346,3.55 C66.691,3.327 67.111,3.217 67.604,3.217 L67.604,3.217 Z"></path>
                        <path d="M75.867,10.791 L75.867,5.972 C75.867,5.225 75.71,4.681 75.395,4.342 C75.081,4.002 74.593,3.832 73.932,3.832 C73.043,3.832 72.393,4.057 71.981,4.506 C71.568,4.954 71.362,5.683 71.362,6.69 L71.362,10.792 L70.685,10.792 L70.685,0.155 L71.362,0.155 L71.362,3.539 L71.328,4.489 L71.376,4.489 C71.654,4.043 72.005,3.718 72.429,3.518 C72.853,3.318 73.379,3.217 74.008,3.217 C75.695,3.217 76.537,4.121 76.537,5.931 L76.537,10.791 L75.867,10.791 L75.867,10.791 Z"></path>
                        <path d="M85.649,7.065 C85.649,8.277 85.355,9.224 84.767,9.906 C84.179,10.587 83.368,10.927 82.333,10.927 C81.681,10.927 81.106,10.77 80.61,10.455 C80.113,10.141 79.732,9.689 79.468,9.101 C79.203,8.513 79.072,7.834 79.072,7.064 C79.072,5.852 79.366,4.907 79.954,4.231 C80.542,3.553 81.349,3.215 82.374,3.215 C83.395,3.215 84.195,3.558 84.776,4.244 C85.358,4.932 85.649,5.871 85.649,7.065 L85.649,7.065 Z M79.784,7.065 C79.784,8.086 80.008,8.882 80.457,9.455 C80.906,10.026 81.541,10.312 82.361,10.312 C83.181,10.312 83.815,10.026 84.264,9.455 C84.713,8.883 84.938,8.086 84.938,7.065 C84.938,6.04 84.71,5.245 84.257,4.679 C83.804,4.113 83.167,3.831 82.347,3.831 C81.527,3.831 80.894,4.112 80.45,4.675 C80.006,5.239 79.784,6.035 79.784,7.065 L79.784,7.065 Z"></path>
                        <path d="M94.412,7.065 C94.412,8.277 94.118,9.224 93.53,9.906 C92.942,10.587 92.131,10.927 91.096,10.927 C90.445,10.927 89.87,10.77 89.373,10.455 C88.876,10.14 88.496,9.689 88.231,9.101 C87.966,8.513 87.835,7.834 87.835,7.064 C87.835,5.852 88.129,4.907 88.717,4.231 C89.305,3.553 90.112,3.215 91.137,3.215 C92.158,3.215 92.959,3.558 93.54,4.244 C94.122,4.932 94.412,5.871 94.412,7.065 L94.412,7.065 Z M88.547,7.065 C88.547,8.086 88.772,8.882 89.221,9.455 C89.669,10.026 90.304,10.312 91.124,10.312 C91.944,10.312 92.579,10.026 93.028,9.455 C93.476,8.883 93.701,8.086 93.701,7.065 C93.701,6.04 93.474,5.245 93.021,4.679 C92.567,4.114 91.93,3.831 91.11,3.831 C90.29,3.831 89.658,4.112 89.214,4.675 C88.77,5.239 88.547,6.035 88.547,7.065 L88.547,7.065 Z"></path>
                        <path d="M99.75,3.217 C100.288,3.217 100.753,3.315 101.145,3.511 C101.538,3.707 101.888,4.042 102.198,4.516 L102.239,4.516 C102.212,3.942 102.198,3.379 102.198,2.828 L102.198,0.155 L102.868,0.155 L102.868,10.792 L102.425,10.792 L102.253,9.657 L102.198,9.657 C101.634,10.505 100.822,10.928 99.764,10.928 C98.739,10.928 97.955,10.609 97.412,9.971 C96.87,9.333 96.6,8.404 96.6,7.182 C96.6,5.897 96.869,4.914 97.407,4.236 C97.943,3.557 98.725,3.217 99.75,3.217 L99.75,3.217 Z M99.75,3.832 C98.939,3.832 98.33,4.117 97.922,4.686 C97.514,5.255 97.311,6.082 97.311,7.167 C97.311,9.272 98.128,10.325 99.764,10.325 C100.603,10.325 101.218,10.081 101.61,9.594 C102.003,9.107 102.198,8.302 102.198,7.181 L102.198,7.065 C102.198,5.917 102.006,5.09 101.621,4.587 C101.235,4.084 100.611,3.832 99.75,3.832 L99.75,3.832 Z"></path>
                        <path d="M69.306,24.791 L69.306,19.972 C69.306,19.225 69.149,18.681 68.834,18.342 C68.52,18.002 68.031,17.832 67.371,17.832 C66.482,17.832 65.832,18.057 65.419,18.506 C65.007,18.954 64.801,19.683 64.801,20.69 L64.801,24.792 L64.124,24.792 L64.124,17.361 L64.698,17.361 L64.828,18.38 L64.869,18.38 C65.351,17.606 66.211,17.218 67.446,17.218 C69.132,17.218 69.975,18.122 69.975,19.932 L69.975,24.792 L69.306,24.792 L69.306,24.791 Z"></path>
                        <path d="M79.087,21.065 C79.087,22.277 78.793,23.224 78.205,23.906 C77.617,24.587 76.807,24.927 75.771,24.927 C75.12,24.927 74.545,24.77 74.048,24.455 C73.552,24.141 73.171,23.689 72.906,23.101 C72.641,22.513 72.51,21.834 72.51,21.064 C72.51,19.852 72.804,18.907 73.392,18.231 C73.98,17.553 74.787,17.215 75.812,17.215 C76.833,17.215 77.634,17.558 78.215,18.244 C78.797,18.932 79.087,19.871 79.087,21.065 L79.087,21.065 Z M73.222,21.065 C73.222,22.086 73.447,22.882 73.896,23.455 C74.344,24.026 74.979,24.312 75.799,24.312 C76.619,24.312 77.254,24.026 77.703,23.455 C78.151,22.883 78.376,22.086 78.376,21.065 C78.376,20.04 78.149,19.245 77.696,18.679 C77.242,18.114 76.605,17.831 75.785,17.831 C74.965,17.831 74.333,18.112 73.889,18.675 C73.444,19.239 73.222,20.035 73.222,21.065 L73.222,21.065 Z"></path>
                        <path d="M84.426,17.217 C84.963,17.217 85.428,17.315 85.821,17.511 C86.213,17.707 86.563,18.042 86.874,18.516 L86.915,18.516 C86.888,17.942 86.874,17.379 86.874,16.828 L86.874,14.155 L87.544,14.155 L87.544,24.792 L87.1,24.792 L86.929,23.657 L86.874,23.657 C86.309,24.505 85.497,24.928 84.44,24.928 C83.415,24.928 82.63,24.609 82.088,23.971 C81.545,23.333 81.275,22.404 81.275,21.182 C81.275,19.897 81.544,18.914 82.082,18.236 C82.618,17.557 83.4,17.217 84.426,17.217 L84.426,17.217 Z M84.426,17.832 C83.614,17.832 83.005,18.117 82.597,18.686 C82.189,19.255 81.986,20.082 81.986,21.167 C81.986,23.272 82.803,24.325 84.44,24.325 C85.278,24.325 85.893,24.081 86.286,23.594 C86.678,23.107 86.874,22.302 86.874,21.181 L86.874,21.065 C86.874,19.917 86.681,19.09 86.296,18.587 C85.91,18.084 85.287,17.832 84.426,17.832 L84.426,17.832 Z"></path>
                        <path d="M93.599,24.928 C92.519,24.928 91.677,24.595 91.074,23.93 C90.47,23.265 90.168,22.332 90.168,21.134 C90.168,19.949 90.46,19 91.043,18.287 C91.626,17.573 92.412,17.217 93.401,17.217 C94.276,17.217 94.966,17.523 95.472,18.133 C95.978,18.743 96.231,19.573 96.231,20.621 L96.231,21.168 L90.878,21.168 C90.887,22.189 91.125,22.968 91.593,23.506 C92.06,24.044 92.729,24.313 93.599,24.313 C94.023,24.313 94.396,24.284 94.717,24.224 C95.038,24.164 95.445,24.037 95.937,23.841 L95.937,24.456 C95.518,24.639 95.13,24.763 94.775,24.828 C94.419,24.895 94.027,24.928 93.599,24.928 L93.599,24.928 Z M93.4,17.818 C92.684,17.818 92.11,18.054 91.677,18.525 C91.244,18.998 90.991,19.677 90.918,20.566 L95.512,20.566 C95.512,19.705 95.325,19.031 94.951,18.546 C94.578,18.061 94.062,17.818 93.4,17.818 L93.4,17.818 Z"></path>
                        <path d="M103.449,22.856 C103.449,23.521 103.195,24.033 102.689,24.39 C102.183,24.748 101.466,24.927 100.537,24.927 C99.543,24.927 98.755,24.775 98.172,24.469 L98.172,23.738 C98.919,24.112 99.707,24.299 100.537,24.299 C101.27,24.299 101.827,24.177 102.208,23.934 C102.589,23.69 102.779,23.365 102.779,22.959 C102.779,22.585 102.627,22.271 102.324,22.016 C102.021,21.761 101.523,21.51 100.83,21.264 C100.088,20.995 99.566,20.764 99.266,20.571 C98.965,20.377 98.738,20.158 98.585,19.915 C98.433,19.671 98.356,19.373 98.356,19.022 C98.356,18.466 98.59,18.026 99.057,17.703 C99.524,17.38 100.177,17.218 101.016,17.218 C101.818,17.218 102.578,17.368 103.299,17.669 L103.045,18.284 C102.316,17.983 101.64,17.833 101.016,17.833 C100.41,17.833 99.928,17.934 99.573,18.134 C99.218,18.334 99.04,18.613 99.04,18.968 C99.04,19.356 99.179,19.665 99.454,19.898 C99.729,20.131 100.268,20.39 101.071,20.677 C101.741,20.918 102.228,21.136 102.534,21.329 C102.839,21.523 103.068,21.743 103.221,21.989 C103.374,22.235 103.449,22.523 103.449,22.856 L103.449,22.856 Z"></path>
                    </g>
                </g>
                <g id="Group" transform="translate(141.000000, 42.000000)" sketch:type="MSShapeGroup">
                    <g transform="translate(0.000000, 11.000000)" id="Shape">
                        <path d="M3.525,25.503 L3.525,0.306" stroke="#97998D"></path>
                        <path d="M6.168,24.73 L3.525,29.307 L0.883,24.73 L6.168,24.73 Z" fill="#97998D"></path>
                    </g>
                    <g transform="translate(9.000000, 0.000000)" id="Shape" fill="#797A72">
                        <path d="M5.376,9.373 C5.376,10.037 5.123,10.549 4.617,10.906 C4.111,11.265 3.393,11.443 2.464,11.443 C1.47,11.443 0.682,11.291 0.099,10.986 L0.099,10.254 C0.847,10.629 1.635,10.815 2.464,10.815 C3.198,10.815 3.755,10.694 4.135,10.45 C4.515,10.206 4.706,9.882 4.706,9.475 C4.706,9.102 4.554,8.787 4.251,8.532 C3.948,8.277 3.45,8.026 2.757,7.78 C2.014,7.511 1.492,7.28 1.192,7.087 C0.891,6.893 0.664,6.674 0.512,6.431 C0.359,6.187 0.283,5.889 0.283,5.538 C0.283,4.982 0.516,4.542 0.984,4.219 C1.451,3.896 2.104,3.734 2.942,3.734 C3.744,3.734 4.505,3.884 5.225,4.185 L4.972,4.8 C4.243,4.499 3.566,4.349 2.942,4.349 C2.336,4.349 1.855,4.45 1.5,4.65 C1.145,4.85 0.967,5.129 0.967,5.484 C0.967,5.872 1.105,6.181 1.381,6.414 C1.656,6.646 2.195,6.906 2.998,7.193 C3.668,7.434 4.156,7.652 4.461,7.845 C4.766,8.039 4.995,8.259 5.148,8.505 C5.3,8.75 5.376,9.039 5.376,9.373 L5.376,9.373 Z"></path>
                        <path d="M8.438,3.876 L8.438,8.688 C8.438,9.435 8.595,9.98 8.91,10.317 C9.224,10.657 9.712,10.827 10.373,10.827 C11.257,10.827 11.908,10.604 12.325,10.157 C12.742,9.712 12.95,8.983 12.95,7.977 L12.95,3.875 L13.62,3.875 L13.62,11.305 L13.046,11.305 L12.923,10.28 L12.882,10.28 C12.399,11.055 11.54,11.442 10.305,11.442 C8.614,11.442 7.769,10.538 7.769,8.729 L7.769,3.875 L8.438,3.875 L8.438,3.876 Z"></path>
                        <path d="M19.806,3.732 C20.845,3.732 21.628,4.059 22.154,4.712 C22.68,5.366 22.944,6.322 22.944,7.58 C22.944,8.815 22.667,9.768 22.113,10.438 C21.559,11.108 20.781,11.442 19.779,11.442 C19.25,11.442 18.774,11.333 18.35,11.114 C17.926,10.895 17.591,10.587 17.345,10.184 L17.283,10.184 L17.092,11.305 L16.668,11.305 L16.668,0.67 L17.345,0.67 L17.345,3.343 C17.345,3.744 17.336,4.114 17.318,4.45 L17.297,5.031 L17.345,5.031 C17.627,4.585 17.968,4.257 18.367,4.047 C18.766,3.837 19.246,3.732 19.806,3.732 L19.806,3.732 Z M19.792,4.348 C18.917,4.348 18.29,4.599 17.912,5.1 C17.534,5.601 17.345,6.428 17.345,7.581 L17.345,7.697 C17.345,8.818 17.542,9.622 17.936,10.111 C18.33,10.597 18.944,10.841 19.778,10.841 C20.589,10.841 21.2,10.558 21.61,9.989 C22.02,9.423 22.225,8.614 22.225,7.567 C22.226,5.421 21.415,4.348 19.792,4.348 L19.792,4.348 Z"></path>
                        <path d="M26.149,3.876 L26.149,8.688 C26.149,9.435 26.306,9.98 26.621,10.317 C26.935,10.657 27.423,10.827 28.084,10.827 C28.968,10.827 29.619,10.604 30.036,10.157 C30.453,9.712 30.661,8.983 30.661,7.977 L30.661,3.875 L31.331,3.875 L31.331,11.305 L30.757,11.305 L30.634,10.28 L30.593,10.28 C30.11,11.055 29.251,11.442 28.016,11.442 C26.325,11.442 25.48,10.538 25.48,8.729 L25.48,3.875 L26.149,3.875 L26.149,3.876 Z"></path>
                        <path d="M37.305,3.732 C37.619,3.732 37.957,3.764 38.317,3.828 L38.187,4.477 C37.877,4.4 37.556,4.361 37.223,4.361 C36.59,4.361 36.07,4.63 35.664,5.168 C35.259,5.706 35.056,6.385 35.056,7.205 L35.056,11.306 L34.379,11.306 L34.379,3.876 L34.953,3.876 L35.021,5.216 L35.069,5.216 C35.375,4.669 35.7,4.285 36.047,4.065 C36.394,3.843 36.812,3.732 37.305,3.732 L37.305,3.732 Z"></path>
                        <path d="M43.525,3.732 C44.564,3.732 45.346,4.059 45.873,4.712 C46.399,5.366 46.663,6.322 46.663,7.58 C46.663,8.815 46.386,9.768 45.832,10.438 C45.278,11.108 44.5,11.442 43.498,11.442 C42.969,11.442 42.493,11.333 42.069,11.114 C41.645,10.895 41.31,10.587 41.064,10.184 L41.002,10.184 L40.811,11.305 L40.387,11.305 L40.387,0.67 L41.064,0.67 L41.064,3.343 C41.064,3.744 41.055,4.114 41.037,4.45 L41.016,5.031 L41.064,5.031 C41.346,4.585 41.687,4.257 42.085,4.047 C42.485,3.837 42.965,3.732 43.525,3.732 L43.525,3.732 Z M43.512,4.348 C42.637,4.348 42.01,4.599 41.632,5.1 C41.254,5.601 41.065,6.428 41.065,7.581 L41.065,7.697 C41.065,8.818 41.262,9.622 41.656,10.111 C42.051,10.597 42.665,10.841 43.499,10.841 C44.31,10.841 44.921,10.558 45.331,9.989 C45.741,9.423 45.946,8.614 45.946,7.567 C45.945,5.421 45.134,4.348 43.512,4.348 L43.512,4.348 Z"></path>
                        <path d="M53.888,9.373 C53.888,10.037 53.635,10.549 53.129,10.906 C52.623,11.265 51.905,11.443 50.976,11.443 C49.983,11.443 49.194,11.291 48.611,10.986 L48.611,10.254 C49.359,10.629 50.147,10.815 50.976,10.815 C51.71,10.815 52.267,10.694 52.647,10.45 C53.027,10.206 53.218,9.882 53.218,9.475 C53.218,9.102 53.067,8.787 52.763,8.532 C52.46,8.277 51.962,8.026 51.269,7.78 C50.526,7.511 50.004,7.28 49.704,7.087 C49.403,6.893 49.177,6.674 49.024,6.431 C48.871,6.187 48.795,5.889 48.795,5.538 C48.795,4.982 49.028,4.542 49.496,4.219 C49.964,3.896 50.616,3.734 51.454,3.734 C52.256,3.734 53.017,3.884 53.737,4.185 L53.484,4.8 C52.755,4.499 52.078,4.349 51.454,4.349 C50.848,4.349 50.367,4.45 50.012,4.65 C49.657,4.85 49.479,5.129 49.479,5.484 C49.479,5.872 49.617,6.181 49.893,6.414 C50.169,6.647 50.708,6.906 51.51,7.193 C52.18,7.434 52.668,7.652 52.973,7.845 C53.279,8.039 53.507,8.259 53.66,8.505 C53.812,8.75 53.888,9.039 53.888,9.373 L53.888,9.373 Z"></path>
                    </g>
                </g>
                <g id="Group" transform="translate(446.000000, 44.000000)" sketch:type="MSShapeGroup">
                    <g transform="translate(46.000000, 9.000000)" id="Shape">
                        <path d="M2.754,25.503 L2.754,0.306" stroke="#97998D"></path>
                        <path d="M5.396,24.73 L2.754,29.307 L0.111,24.73 L5.396,24.73 Z" fill="#97998D"></path>
                    </g>
                    <g id="Shape" fill="#797A72">
                        <path d="M3.472,7.943 C2.41,7.943 1.578,7.609 0.977,6.939 C0.375,6.269 0.075,5.334 0.075,4.136 C0.075,2.906 0.387,1.948 1.012,1.262 C1.636,0.575 2.491,0.233 3.575,0.233 C4.218,0.233 4.833,0.344 5.421,0.568 L5.236,1.17 C4.593,0.956 4.036,0.849 3.561,0.849 C2.65,0.849 1.959,1.13 1.49,1.693 C1.02,2.256 0.786,3.066 0.786,4.124 C0.786,5.127 1.02,5.912 1.49,6.478 C1.96,7.046 2.616,7.329 3.459,7.329 C4.134,7.329 4.761,7.208 5.339,6.968 L5.339,7.597 C4.864,7.828 4.242,7.943 3.472,7.943 L3.472,7.943 Z"></path>
                        <path d="M13.862,4.081 C13.862,5.293 13.568,6.24 12.98,6.921 C12.392,7.603 11.581,7.942 10.546,7.942 C9.894,7.942 9.319,7.786 8.823,7.471 C8.326,7.157 7.945,6.705 7.681,6.117 C7.416,5.529 7.285,4.85 7.285,4.08 C7.285,2.868 7.579,1.923 8.167,1.247 C8.755,0.569 9.562,0.231 10.587,0.231 C11.608,0.231 12.408,0.574 12.989,1.26 C13.571,1.947 13.862,2.887 13.862,4.081 L13.862,4.081 Z M7.997,4.081 C7.997,5.102 8.221,5.898 8.67,6.471 C9.119,7.043 9.754,7.328 10.574,7.328 C11.394,7.328 12.029,7.043 12.477,6.471 C12.926,5.899 13.151,5.102 13.151,4.081 C13.151,3.056 12.923,2.261 12.47,1.695 C12.017,1.129 11.38,0.847 10.56,0.847 C9.74,0.847 9.107,1.128 8.663,1.691 C8.219,2.255 7.997,3.051 7.997,4.081 L7.997,4.081 Z"></path>
                        <path d="M19.405,0.232 C19.719,0.232 20.056,0.264 20.417,0.328 L20.287,0.977 C19.977,0.9 19.656,0.861 19.323,0.861 C18.689,0.861 18.17,1.13 17.764,1.668 C17.358,2.206 17.156,2.885 17.156,3.705 L17.156,7.806 L16.479,7.806 L16.479,0.376 L17.053,0.376 L17.121,1.716 L17.169,1.716 C17.475,1.169 17.8,0.785 18.147,0.565 C18.494,0.343 18.913,0.232 19.405,0.232 L19.405,0.232 Z"></path>
                        <path d="M27.67,7.806 L27.67,2.987 C27.67,2.24 27.513,1.696 27.198,1.357 C26.884,1.017 26.395,0.847 25.735,0.847 C24.846,0.847 24.195,1.072 23.783,1.521 C23.371,1.969 23.165,2.698 23.165,3.705 L23.165,7.806 L22.488,7.806 L22.488,0.376 L23.062,0.376 L23.192,1.395 L23.233,1.395 C23.715,0.621 24.575,0.233 25.81,0.233 C27.496,0.233 28.339,1.137 28.339,2.947 L28.339,7.807 L27.67,7.807 L27.67,7.806 Z"></path>
                        <path d="M34.307,7.943 C33.227,7.943 32.385,7.611 31.782,6.945 C31.178,6.28 30.876,5.348 30.876,4.15 C30.876,2.965 31.168,2.016 31.751,1.303 C32.334,0.589 33.12,0.233 34.109,0.233 C34.984,0.233 35.674,0.539 36.18,1.149 C36.686,1.759 36.939,2.589 36.939,3.637 L36.939,4.184 L31.586,4.184 C31.595,5.205 31.833,5.984 32.301,6.522 C32.768,7.061 33.437,7.328 34.307,7.328 C34.731,7.328 35.104,7.299 35.424,7.24 C35.746,7.179 36.153,7.052 36.645,6.857 L36.645,7.472 C36.226,7.654 35.838,7.779 35.483,7.843 C35.127,7.91 34.735,7.943 34.307,7.943 L34.307,7.943 Z M34.108,0.834 C33.392,0.834 32.818,1.07 32.385,1.541 C31.952,2.014 31.699,2.693 31.626,3.582 L36.22,3.582 C36.22,2.721 36.033,2.047 35.659,1.562 C35.286,1.076 34.77,0.834 34.108,0.834 L34.108,0.834 Z"></path>
                        <path d="M42.475,0.232 C42.789,0.232 43.127,0.264 43.487,0.328 L43.358,0.977 C43.047,0.9 42.726,0.861 42.393,0.861 C41.76,0.861 41.241,1.13 40.834,1.668 C40.429,2.206 40.227,2.885 40.227,3.705 L40.227,7.806 L39.549,7.806 L39.549,0.376 L40.123,0.376 L40.191,1.716 L40.24,1.716 C40.545,1.169 40.871,0.785 41.217,0.565 C41.563,0.343 41.982,0.232 42.475,0.232 L42.475,0.232 Z"></path>
                        <path d="M13.555,14.232 C13.869,14.232 14.207,14.265 14.567,14.328 L14.437,14.978 C14.127,14.9 13.806,14.861 13.473,14.861 C12.84,14.861 12.321,15.131 11.914,15.668 C11.509,16.207 11.306,16.885 11.306,17.705 L11.306,21.807 L10.629,21.807 L10.629,14.377 L11.203,14.377 L11.271,15.717 L11.319,15.717 C11.625,15.17 11.951,14.785 12.297,14.565 C12.644,14.343 13.062,14.232 13.555,14.232 L13.555,14.232 Z"></path>
                        <path d="M19.639,21.943 C18.559,21.943 17.717,21.611 17.113,20.945 C16.509,20.281 16.208,19.347 16.208,18.15 C16.208,16.964 16.499,16.015 17.083,15.302 C17.666,14.589 18.452,14.232 19.441,14.232 C20.316,14.232 21.006,14.539 21.512,15.148 C22.018,15.759 22.271,16.589 22.271,17.636 L22.271,18.183 L16.918,18.183 C16.927,19.204 17.165,19.984 17.632,20.521 C18.1,21.06 18.768,21.328 19.639,21.328 C20.063,21.328 20.435,21.299 20.756,21.24 C21.077,21.179 21.485,21.052 21.977,20.857 L21.977,21.472 C21.557,21.654 21.17,21.779 20.815,21.843 C20.459,21.91 20.066,21.943 19.639,21.943 L19.639,21.943 Z M19.44,14.833 C18.724,14.833 18.15,15.069 17.717,15.54 C17.283,16.013 17.03,16.692 16.958,17.581 L21.552,17.581 C21.552,16.72 21.364,16.046 20.991,15.561 C20.618,15.076 20.101,14.833 19.44,14.833 L19.44,14.833 Z"></path>
                        <path d="M26.843,21.341 C27.272,21.341 27.645,21.306 27.964,21.232 L27.964,21.779 C27.636,21.888 27.258,21.943 26.829,21.943 C26.173,21.943 25.688,21.767 25.377,21.418 C25.065,21.066 24.908,20.516 24.908,19.764 L24.908,14.965 L23.807,14.965 L23.807,14.569 L24.908,14.26 L25.25,12.578 L25.599,12.578 L25.599,14.377 L27.78,14.377 L27.78,14.965 L25.599,14.965 L25.599,19.668 C25.599,20.236 25.7,20.658 25.9,20.932 C26.1,21.206 26.414,21.341 26.843,21.341 L26.843,21.341 Z"></path>
                        <path d="M34.643,21.806 L34.472,20.63 L34.417,20.63 C34.043,21.109 33.659,21.446 33.265,21.646 C32.87,21.843 32.405,21.943 31.868,21.943 C31.139,21.943 30.571,21.757 30.166,21.382 C29.76,21.009 29.558,20.491 29.558,19.831 C29.558,19.106 29.86,18.544 30.463,18.142 C31.067,17.742 31.941,17.529 33.085,17.507 L34.5,17.466 L34.5,16.974 C34.5,16.267 34.356,15.734 34.069,15.374 C33.782,15.013 33.319,14.833 32.681,14.833 C31.993,14.833 31.28,15.024 30.541,15.407 L30.288,14.819 C31.103,14.436 31.91,14.245 32.708,14.245 C33.523,14.245 34.133,14.458 34.536,14.882 C34.939,15.306 35.141,15.966 35.141,16.864 L35.141,21.805 L34.643,21.805 L34.643,21.806 Z M31.908,21.328 C32.701,21.328 33.326,21.101 33.784,20.648 C34.242,20.195 34.472,19.564 34.472,18.757 L34.472,18.027 L33.173,18.082 C32.129,18.131 31.385,18.295 30.941,18.57 C30.497,18.845 30.275,19.275 30.275,19.859 C30.275,20.324 30.417,20.685 30.702,20.941 C30.986,21.199 31.389,21.328 31.908,21.328 L31.908,21.328 Z"></path>
                        <path d="M38.012,12.312 C38.012,11.874 38.156,11.656 38.443,11.656 C38.585,11.656 38.695,11.713 38.774,11.826 C38.854,11.941 38.894,12.101 38.894,12.312 C38.894,12.517 38.854,12.679 38.774,12.796 C38.695,12.915 38.585,12.974 38.443,12.974 C38.155,12.974 38.012,12.753 38.012,12.312 L38.012,12.312 Z M38.784,21.806 L38.107,21.806 L38.107,14.376 L38.784,14.376 L38.784,21.806 L38.784,21.806 Z"></path>
                        <path d="M42.51,21.806 L41.832,21.806 L41.832,11.169 L42.51,11.169 L42.51,21.806 L42.51,21.806 Z"></path>
                    </g>
                </g>
                <g id="Group" transform="translate(626.000000, 0.000000)" sketch:type="MSShapeGroup">
                    <path d="M138.498,0.801 L7.498,0.801 L7.498,30.801 L138.498,30.801" id="Shape" fill="#000000"></path>
                    <rect id="Rectangle-path" fill="#000000" x="3.832" y="0.669" width="4" height="75.515"></rect>
                    <g transform="translate(24.000000, 10.000000)" id="Shape" fill="#FFFFFF">
                        <path d="M9.473,5.859 C9.473,7.745 8.95,9.186 7.903,10.183 C6.856,11.18 5.348,11.679 3.38,11.679 L0.185,11.679 L0.185,0.257 L3.716,0.257 C5.533,0.257 6.947,0.746 7.958,1.726 C8.969,2.706 9.473,4.083 9.473,5.859 L9.473,5.859 Z M7.504,5.922 C7.504,3.188 6.226,1.82 3.668,1.82 L2.051,1.82 L2.051,10.109 L3.379,10.109 C6.129,10.109 7.504,8.714 7.504,5.922 L7.504,5.922 Z"></path>
                        <path d="M22.066,5.953 C22.066,7.812 21.601,9.258 20.671,10.289 C19.741,11.32 18.425,11.836 16.722,11.836 C14.998,11.836 13.674,11.324 12.749,10.301 C11.824,9.278 11.362,7.823 11.362,5.938 C11.362,4.053 11.827,2.605 12.757,1.594 C13.687,0.583 15.014,0.078 16.737,0.078 C18.435,0.078 19.748,0.591 20.675,1.617 C21.602,2.643 22.066,4.089 22.066,5.953 L22.066,5.953 Z M13.348,5.953 C13.348,7.359 13.632,8.426 14.2,9.152 C14.768,9.878 15.609,10.242 16.723,10.242 C17.832,10.242 18.669,9.883 19.235,9.164 C19.801,8.445 20.083,7.375 20.083,5.953 C20.083,4.552 19.803,3.489 19.243,2.765 C18.683,2.041 17.848,1.679 16.739,1.679 C15.619,1.679 14.774,2.041 14.204,2.765 C13.634,3.489 13.348,4.552 13.348,5.953 L13.348,5.953 Z"></path>
                        <path d="M35.059,11.68 L33.028,11.68 L31.09,4.868 C31.007,4.571 30.902,4.142 30.778,3.583 C30.654,3.024 30.578,2.634 30.551,2.415 C30.499,2.748 30.414,3.181 30.297,3.712 C30.18,4.243 30.082,4.639 30.004,4.9 L28.113,11.681 L26.082,11.681 L24.605,5.962 L23.105,0.259 L25.011,0.259 L26.644,6.915 C26.899,7.982 27.082,8.926 27.191,9.743 C27.249,9.301 27.335,8.805 27.449,8.259 C27.563,7.713 27.668,7.27 27.761,6.931 L29.62,0.259 L31.472,0.259 L33.378,6.962 C33.561,7.582 33.753,8.509 33.956,9.743 C34.034,8.998 34.222,8.051 34.518,6.899 L36.143,0.258 L38.034,0.258 L35.059,11.68 L35.059,11.68 Z"></path>
                        <path d="M49.168,11.68 L46.879,11.68 L41.262,2.578 L41.2,2.578 L41.239,3.086 C41.312,4.055 41.348,4.94 41.348,5.742 L41.348,11.68 L39.653,11.68 L39.653,0.258 L41.919,0.258 L47.521,9.313 L47.568,9.313 C47.557,9.193 47.537,8.757 47.506,8.004 C47.475,7.251 47.459,6.664 47.459,6.242 L47.459,0.258 L49.17,0.258 L49.17,11.68 L49.168,11.68 Z"></path>
                        <path d="M56.129,11.68 L54.262,11.68 L54.262,1.86 L50.903,1.86 L50.903,0.258 L59.489,0.258 L59.489,1.86 L56.13,1.86 L56.13,11.68 L56.129,11.68 Z"></path>
                        <path d="M71.379,5.953 C71.379,7.812 70.914,9.258 69.984,10.289 C69.054,11.32 67.738,11.836 66.035,11.836 C64.311,11.836 62.987,11.324 62.062,10.301 C61.137,9.278 60.675,7.823 60.675,5.938 C60.675,4.053 61.14,2.605 62.07,1.594 C63,0.583 64.327,0.078 66.05,0.078 C67.748,0.078 69.061,0.591 69.988,1.617 C70.915,2.643 71.379,4.089 71.379,5.953 L71.379,5.953 Z M62.66,5.953 C62.66,7.359 62.944,8.426 63.512,9.152 C64.08,9.878 64.921,10.242 66.035,10.242 C67.144,10.242 67.981,9.883 68.547,9.164 C69.113,8.445 69.395,7.375 69.395,5.953 C69.395,4.552 69.115,3.489 68.555,2.765 C67.995,2.041 67.16,1.679 66.051,1.679 C64.931,1.679 64.086,2.041 63.516,2.765 C62.946,3.489 62.66,4.552 62.66,5.953 L62.66,5.953 Z"></path>
                        <path d="M84.371,11.68 L82.34,11.68 L80.402,4.868 C80.319,4.571 80.214,4.142 80.09,3.583 C79.966,3.024 79.89,2.634 79.863,2.415 C79.811,2.748 79.726,3.181 79.609,3.712 C79.492,4.243 79.394,4.639 79.316,4.9 L77.425,11.681 L75.394,11.681 L73.917,5.962 L72.417,0.259 L74.323,0.259 L75.956,6.915 C76.211,7.982 76.394,8.926 76.503,9.743 C76.561,9.301 76.647,8.805 76.761,8.259 C76.875,7.713 76.98,7.27 77.073,6.931 L78.932,0.259 L80.784,0.259 L82.69,6.962 C82.873,7.582 83.065,8.509 83.268,9.743 C83.346,8.998 83.534,8.051 83.83,6.899 L85.455,0.258 L87.346,0.258 L84.371,11.68 L84.371,11.68 Z"></path>
                        <path d="M98.48,11.68 L96.191,11.68 L90.574,2.578 L90.512,2.578 L90.551,3.086 C90.624,4.055 90.66,4.94 90.66,5.742 L90.66,11.68 L88.965,11.68 L88.965,0.258 L91.231,0.258 L96.833,9.313 L96.88,9.313 C96.869,9.193 96.849,8.757 96.818,8.004 C96.787,7.251 96.771,6.664 96.771,6.242 L96.771,0.258 L98.482,0.258 L98.482,11.68 L98.48,11.68 Z"></path>
                    </g>
                    <path d="M5.832,83.079 L8.332,79.446 L10.832,75.815 L5.832,75.815 L0.832,75.815 L3.332,79.446 L5.832,83.079 Z" id="Shape" fill="#333333"></path>
                </g>
            </g>
        </g>
    </g>
</svg>