<?xml version="1.0" encoding="UTF-8" standalone="no"?>
<svg width="790px" height="94px" viewBox="0 0 790 94" version="1.1" xmlns="http://www.w3.org/2000/svg" xmlns:xlink="http://www.w3.org/1999/xlink" xmlns:sketch="http://www.bohemiancoding.com/sketch/ns">
    <!-- Generator: Sketch 3.5.2 (25235) - http://www.bohemiancoding.com/sketch -->
    <title>Group 10</title>
    <desc>Created with Sketch.</desc>
    <defs>
        <linearGradient x1="0.000169443564%" y1="50%" x2="100%" y2="50.001%" id="linearGradient-1">
            <stop stop-color="#26B99A" stop-opacity="0.2" offset="0%"></stop>
            <stop stop-color="#1FB092" stop-opacity="0.5852" offset="48.15%"></stop>
            <stop stop-color="#14A085" offset="100%"></stop>
        </linearGradient>
        <linearGradient x1="100%" y1="50%" x2="8.45784694e-05%" y2="50%" id="linearGradient-2">
            <stop stop-color="#14A085" offset="0%"></stop>
            <stop stop-color="#26B99A" stop-opacity="0.3" offset="100%"></stop>
        </linearGradient>
    </defs>
    <g id="Set-Priorities" stroke="none" stroke-width="1" fill="none" fill-rule="evenodd" sketch:type="MSPage">
        <g id="Priority-3" sketch:type="MSArtboardGroup" transform="translate(-329.000000, -442.000000)">
            <g id="Group-10" sketch:type="MSLayerGroup" transform="translate(329.000000, 442.000000)">
                <g id="Group" transform="translate(97.000000, 82.000000)" sketch:type="MSShapeGroup">
                    <rect id="Rectangle-path" fill="url(#linearGradient-1)" x="0.917" y="1.478" width="590.167" height="10"></rect>
                    <path d="M591.584,11.978 L0.417,11.978 L0.417,0.978 L591.584,0.978 L591.584,11.978 L591.584,11.978 Z M1.417,10.978 L590.584,10.978 L590.584,1.978 L1.417,1.978 L1.417,10.978 L1.417,10.978 Z" id="Shape" fill="url(#linearGradient-2)"></path>
                </g>
                <g id="Group" transform="translate(0.000000, 82.000000)" fill="#14A085" sketch:type="MSShapeGroup">
                    <path d="M1.227,10.593 L0.599,10.593 L0.599,0.716 L1.227,0.716 L1.227,10.593 L1.227,10.593 Z" id="Shape"></path>
                    <path d="M6.844,10.72 C5.841,10.72 5.059,10.411 4.499,9.794 C3.938,9.175 3.658,8.31 3.658,7.196 C3.658,6.096 3.929,5.216 4.47,4.553 C5.011,3.89 5.742,3.559 6.66,3.559 C7.472,3.559 8.114,3.842 8.583,4.411 C9.053,4.977 9.288,5.747 9.288,6.722 L9.288,7.23 L4.318,7.23 C4.326,8.177 4.547,8.902 4.982,9.4 C5.416,9.9 6.037,10.15 6.845,10.15 C7.239,10.15 7.585,10.123 7.883,10.066 C8.181,10.011 8.559,9.894 9.016,9.711 L9.016,10.283 C8.627,10.453 8.267,10.568 7.937,10.629 C7.606,10.691 7.242,10.72 6.844,10.72 L6.844,10.72 Z M6.66,4.119 C5.996,4.119 5.463,4.338 5.06,4.777 C4.658,5.215 4.423,5.845 4.355,6.672 L8.621,6.672 C8.621,5.871 8.448,5.246 8.1,4.795 C7.754,4.345 7.274,4.119 6.66,4.119 L6.66,4.119 Z" id="Shape"></path>
                    <path d="M15.991,8.796 C15.991,9.415 15.756,9.89 15.286,10.222 C14.816,10.554 14.15,10.72 13.286,10.72 C12.364,10.72 11.631,10.579 11.09,10.294 L11.09,9.616 C11.784,9.962 12.516,10.136 13.286,10.136 C13.967,10.136 14.485,10.023 14.838,9.796 C15.191,9.569 15.368,9.269 15.368,8.892 C15.368,8.546 15.227,8.253 14.946,8.017 C14.664,7.779 14.202,7.546 13.559,7.318 C12.87,7.068 12.385,6.853 12.105,6.673 C11.825,6.493 11.615,6.29 11.474,6.064 C11.332,5.837 11.261,5.562 11.261,5.236 C11.261,4.72 11.478,4.312 11.912,4.011 C12.346,3.71 12.952,3.56 13.73,3.56 C14.475,3.56 15.182,3.701 15.85,3.98 L15.615,4.55 C14.938,4.271 14.309,4.132 13.73,4.132 C13.167,4.132 12.721,4.224 12.391,4.411 C12.061,4.597 11.896,4.854 11.896,5.184 C11.896,5.543 12.024,5.832 12.28,6.047 C12.536,6.264 13.036,6.504 13.781,6.772 C14.403,6.997 14.856,7.198 15.139,7.377 C15.422,7.556 15.635,7.762 15.777,7.99 C15.92,8.22 15.991,8.488 15.991,8.796 L15.991,8.796 Z" id="Shape"></path>
                    <path d="M22.566,8.796 C22.566,9.415 22.331,9.89 21.861,10.222 C21.391,10.554 20.725,10.72 19.861,10.72 C18.939,10.72 18.207,10.579 17.665,10.294 L17.665,9.616 C18.359,9.962 19.091,10.136 19.861,10.136 C20.543,10.136 21.06,10.023 21.413,9.796 C21.766,9.569 21.943,9.269 21.943,8.892 C21.943,8.546 21.802,8.253 21.521,8.017 C21.239,7.779 20.777,7.546 20.134,7.318 C19.444,7.068 18.96,6.853 18.68,6.673 C18.4,6.493 18.19,6.29 18.049,6.064 C17.907,5.837 17.836,5.562 17.836,5.236 C17.836,4.72 18.053,4.312 18.487,4.011 C18.921,3.71 19.527,3.56 20.305,3.56 C21.05,3.56 21.757,3.701 22.425,3.98 L22.19,4.55 C21.513,4.271 20.885,4.132 20.305,4.132 C19.743,4.132 19.296,4.224 18.966,4.411 C18.636,4.597 18.471,4.854 18.471,5.184 C18.471,5.543 18.599,5.832 18.855,6.047 C19.111,6.264 19.611,6.504 20.356,6.772 C20.978,6.997 21.431,7.198 21.714,7.377 C21.998,7.557 22.21,7.762 22.352,7.99 C22.496,8.22 22.566,8.488 22.566,8.796 L22.566,8.796 Z" id="Shape"></path>
                    <path d="M33.039,8.796 C33.039,9.415 32.804,9.89 32.334,10.222 C31.864,10.554 31.198,10.72 30.334,10.72 C29.411,10.72 28.679,10.579 28.138,10.294 L28.138,9.616 C28.832,9.962 29.564,10.136 30.334,10.136 C31.015,10.136 31.533,10.023 31.886,9.796 C32.24,9.569 32.416,9.269 32.416,8.892 C32.416,8.546 32.275,8.253 31.994,8.017 C31.712,7.779 31.25,7.546 30.607,7.318 C29.917,7.068 29.433,6.853 29.153,6.673 C28.873,6.493 28.663,6.29 28.521,6.064 C28.379,5.837 28.309,5.562 28.309,5.236 C28.309,4.72 28.526,4.312 28.96,4.011 C29.394,3.71 30,3.56 30.778,3.56 C31.523,3.56 32.229,3.701 32.898,3.98 L32.663,4.55 C31.986,4.271 31.357,4.132 30.778,4.132 C30.215,4.132 29.769,4.224 29.439,4.411 C29.109,4.597 28.944,4.854 28.944,5.184 C28.944,5.543 29.072,5.832 29.328,6.047 C29.584,6.264 30.084,6.504 30.829,6.772 C31.451,6.997 31.904,7.198 32.187,7.377 C32.47,7.557 32.683,7.762 32.825,7.99 C32.968,8.22 33.039,8.488 33.039,8.796 L33.039,8.796 Z" id="Shape"></path>
                    <path d="M38.123,10.72 C37.12,10.72 36.338,10.411 35.777,9.794 C35.216,9.175 34.936,8.31 34.936,7.196 C34.936,6.096 35.207,5.216 35.748,4.553 C36.29,3.891 37.019,3.559 37.938,3.559 C38.75,3.559 39.392,3.842 39.861,4.411 C40.331,4.977 40.566,5.747 40.566,6.722 L40.566,7.23 L35.596,7.23 C35.604,8.177 35.825,8.902 36.259,9.4 C36.693,9.9 37.314,10.15 38.122,10.15 C38.516,10.15 38.861,10.123 39.16,10.066 C39.458,10.011 39.836,9.894 40.293,9.711 L40.293,10.283 C39.903,10.453 39.544,10.568 39.214,10.629 C38.885,10.691 38.521,10.72 38.123,10.72 L38.123,10.72 Z M37.939,4.119 C37.274,4.119 36.741,4.338 36.339,4.777 C35.937,5.215 35.702,5.845 35.634,6.672 L39.9,6.672 C39.9,5.871 39.726,5.246 39.379,4.795 C39.033,4.345 38.553,4.119 37.939,4.119 L37.939,4.119 Z" id="Shape"></path>
                    <path d="M45.708,3.56 C46,3.56 46.313,3.589 46.647,3.65 L46.526,4.252 C46.238,4.182 45.94,4.145 45.631,4.145 C45.043,4.145 44.56,4.395 44.184,4.895 C43.807,5.393 43.619,6.024 43.619,6.786 L43.619,10.595 L42.991,10.595 L42.991,3.695 L43.524,3.695 L43.587,4.939 L43.631,4.939 C43.915,4.431 44.217,4.076 44.539,3.871 C44.861,3.664 45.251,3.56 45.708,3.56 L45.708,3.56 Z" id="Shape"></path>
                    <path d="M50.081,10.593 L47.415,3.693 L48.062,3.693 L49.846,8.384 C50.083,8.986 50.261,9.511 50.379,9.958 L50.417,9.958 C50.59,9.384 50.768,8.854 50.95,8.372 L52.734,3.692 L53.381,3.692 L50.715,10.592 L50.081,10.592 L50.081,10.593 Z" id="Shape"></path>
                    <path d="M54.968,1.777 C54.968,1.371 55.101,1.168 55.368,1.168 C55.499,1.168 55.602,1.221 55.676,1.326 C55.75,1.431 55.787,1.582 55.787,1.777 C55.787,1.966 55.75,2.117 55.676,2.228 C55.602,2.337 55.499,2.392 55.368,2.392 C55.102,2.392 54.968,2.187 54.968,1.777 L54.968,1.777 Z M55.686,10.593 L55.058,10.593 L55.058,3.693 L55.686,3.693 L55.686,10.593 L55.686,10.593 Z" id="Shape"></path>
                    <path d="M61.271,10.72 C60.285,10.72 59.513,10.409 58.954,9.786 C58.395,9.165 58.116,8.298 58.116,7.184 C58.116,6.041 58.406,5.151 58.986,4.514 C59.566,3.877 60.359,3.559 61.366,3.559 C61.963,3.559 62.534,3.663 63.08,3.87 L62.909,4.429 C62.312,4.232 61.794,4.132 61.354,4.132 C60.507,4.132 59.866,4.394 59.431,4.915 C58.995,5.438 58.777,6.19 58.777,7.171 C58.777,8.103 58.995,8.831 59.431,9.359 C59.867,9.886 60.476,10.15 61.259,10.15 C61.885,10.15 62.467,10.037 63.005,9.812 L63.005,10.396 C62.563,10.613 61.986,10.72 61.271,10.72 L61.271,10.72 Z" id="Shape"></path>
                    <path d="M67.999,10.72 C66.996,10.72 66.214,10.411 65.653,9.794 C65.092,9.175 64.812,8.31 64.812,7.196 C64.812,6.096 65.083,5.216 65.624,4.553 C66.166,3.891 66.895,3.559 67.814,3.559 C68.626,3.559 69.268,3.842 69.737,4.411 C70.207,4.977 70.442,5.747 70.442,6.722 L70.442,7.23 L65.472,7.23 C65.48,8.177 65.701,8.902 66.135,9.4 C66.569,9.9 67.19,10.15 67.998,10.15 C68.392,10.15 68.737,10.123 69.036,10.066 C69.334,10.011 69.712,9.894 70.169,9.711 L70.169,10.283 C69.779,10.453 69.42,10.568 69.09,10.629 C68.761,10.691 68.396,10.72 67.999,10.72 L67.999,10.72 Z M67.815,4.119 C67.15,4.119 66.617,4.338 66.215,4.777 C65.813,5.215 65.578,5.845 65.51,6.672 L69.776,6.672 C69.776,5.871 69.602,5.246 69.255,4.795 C68.909,4.345 68.428,4.119 67.815,4.119 L67.815,4.119 Z" id="Shape"></path>
                    <path d="M77.146,8.796 C77.146,9.415 76.911,9.89 76.441,10.222 C75.971,10.554 75.305,10.72 74.441,10.72 C73.518,10.72 72.786,10.579 72.245,10.294 L72.245,9.616 C72.939,9.962 73.671,10.136 74.441,10.136 C75.122,10.136 75.639,10.023 75.993,9.796 C76.347,9.569 76.523,9.269 76.523,8.892 C76.523,8.546 76.382,8.253 76.101,8.017 C75.82,7.779 75.357,7.546 74.714,7.318 C74.024,7.068 73.54,6.853 73.26,6.673 C72.98,6.493 72.77,6.29 72.628,6.064 C72.486,5.838 72.416,5.562 72.416,5.236 C72.416,4.72 72.633,4.312 73.066,4.011 C73.5,3.71 74.106,3.56 74.885,3.56 C75.63,3.56 76.336,3.701 77.005,3.98 L76.77,4.55 C76.093,4.271 75.464,4.132 74.885,4.132 C74.322,4.132 73.876,4.224 73.546,4.411 C73.216,4.597 73.051,4.854 73.051,5.184 C73.051,5.543 73.179,5.832 73.435,6.047 C73.691,6.264 74.191,6.504 74.936,6.772 C75.558,6.997 76.011,7.198 76.294,7.377 C76.577,7.557 76.79,7.762 76.932,7.99 C77.074,8.218 77.146,8.488 77.146,8.796 L77.146,8.796 Z" id="Shape"></path>
                </g>
                <g id="Group" transform="translate(703.000000, 83.000000)" fill="#14A085" sketch:type="MSShapeGroup">
                    <path d="M9.13,9.593 L9.13,5.068 C9.13,4.394 8.999,3.904 8.736,3.595 C8.473,3.286 8.072,3.132 7.53,3.132 C6.823,3.132 6.301,3.325 5.963,3.716 C5.624,4.105 5.455,4.716 5.455,5.55 L5.455,9.593 L4.813,9.593 L4.813,4.876 C4.813,3.714 4.28,3.132 3.213,3.132 C2.489,3.132 1.963,3.343 1.633,3.763 C1.303,4.185 1.138,4.859 1.138,5.784 L1.138,9.593 L0.509,9.593 L0.509,2.693 L1.03,2.693 L1.164,3.64 L1.202,3.64 C1.392,3.296 1.663,3.031 2.014,2.843 C2.365,2.654 2.752,2.56 3.175,2.56 C4.263,2.56 4.961,2.968 5.27,3.785 L5.295,3.785 C5.52,3.392 5.821,3.09 6.199,2.879 C6.578,2.666 7.009,2.561 7.491,2.561 C8.244,2.561 8.809,2.762 9.186,3.165 C9.562,3.567 9.75,4.206 9.75,5.081 L9.75,9.595 L9.13,9.595 L9.13,9.593 Z" id="Shape"></path>
                    <path d="M18.213,6.134 C18.213,7.259 17.941,8.138 17.395,8.771 C16.849,9.404 16.095,9.72 15.135,9.72 C14.53,9.72 13.996,9.574 13.535,9.282 C13.073,8.989 12.72,8.571 12.474,8.024 C12.229,7.479 12.106,6.848 12.106,6.133 C12.106,5.008 12.379,4.131 12.925,3.502 C13.471,2.873 14.22,2.559 15.172,2.559 C16.119,2.559 16.863,2.877 17.402,3.514 C17.943,4.152 18.213,5.025 18.213,6.134 L18.213,6.134 Z M12.767,6.134 C12.767,7.081 12.975,7.822 13.392,8.353 C13.809,8.884 14.399,9.15 15.161,9.15 C15.923,9.15 16.512,8.884 16.929,8.353 C17.346,7.822 17.554,7.082 17.554,6.134 C17.554,5.181 17.343,4.443 16.922,3.919 C16.501,3.394 15.91,3.132 15.149,3.132 C14.388,3.132 13.799,3.394 13.387,3.915 C12.973,4.439 12.767,5.177 12.767,6.134 L12.767,6.134 Z" id="Shape"></path>
                    <path d="M23.36,2.56 C23.652,2.56 23.965,2.589 24.299,2.65 L24.179,3.252 C23.891,3.182 23.592,3.145 23.283,3.145 C22.695,3.145 22.213,3.395 21.836,3.895 C21.459,4.393 21.272,5.024 21.272,5.786 L21.272,9.595 L20.643,9.595 L20.643,2.695 L21.176,2.695 L21.239,3.939 L21.284,3.939 C21.567,3.431 21.87,3.076 22.191,2.871 C22.512,2.666 22.903,2.56 23.36,2.56 L23.36,2.56 Z" id="Shape"></path>
                    <path d="M29.01,9.72 C28.007,9.72 27.225,9.411 26.664,8.794 C26.103,8.175 25.823,7.31 25.823,6.196 C25.823,5.096 26.094,4.216 26.635,3.553 C27.176,2.891 27.906,2.559 28.824,2.559 C29.636,2.559 30.278,2.842 30.748,3.411 C31.218,3.977 31.452,4.747 31.452,5.722 L31.452,6.23 L26.482,6.23 C26.49,7.177 26.711,7.902 27.145,8.4 C27.579,8.9 28.2,9.15 29.008,9.15 C29.402,9.15 29.747,9.123 30.045,9.066 C30.344,9.011 30.722,8.894 31.179,8.711 L31.179,9.283 C30.789,9.453 30.43,9.568 30.1,9.629 C29.771,9.691 29.407,9.72 29.01,9.72 L29.01,9.72 Z M28.825,3.119 C28.161,3.119 27.628,3.338 27.225,3.777 C26.823,4.215 26.588,4.845 26.521,5.672 L30.787,5.672 C30.787,4.871 30.613,4.246 30.266,3.795 C29.919,3.345 29.438,3.119 28.825,3.119 L28.825,3.119 Z" id="Shape"></path>
                    <path d="M42.053,7.796 C42.053,8.415 41.819,8.89 41.348,9.222 C40.879,9.554 40.212,9.72 39.349,9.72 C38.426,9.72 37.695,9.579 37.153,9.294 L37.153,8.616 C37.847,8.962 38.579,9.136 39.349,9.136 C40.031,9.136 40.547,9.023 40.901,8.796 C41.255,8.569 41.431,8.269 41.431,7.892 C41.431,7.546 41.29,7.253 41.009,7.017 C40.727,6.779 40.265,6.546 39.621,6.318 C38.932,6.068 38.447,5.853 38.168,5.673 C37.889,5.493 37.678,5.29 37.536,5.064 C37.394,4.838 37.324,4.562 37.324,4.236 C37.324,3.72 37.541,3.312 37.974,3.011 C38.407,2.71 39.014,2.56 39.792,2.56 C40.537,2.56 41.243,2.701 41.912,2.98 L41.677,3.55 C41,3.271 40.372,3.132 39.792,3.132 C39.23,3.132 38.782,3.224 38.452,3.411 C38.122,3.597 37.958,3.854 37.958,4.184 C37.958,4.543 38.085,4.832 38.342,5.047 C38.598,5.264 39.098,5.504 39.843,5.772 C40.465,5.997 40.918,6.198 41.201,6.377 C41.484,6.556 41.697,6.762 41.839,6.99 C41.981,7.218 42.053,7.488 42.053,7.796 L42.053,7.796 Z" id="Shape"></path>
                    <path d="M47.137,9.72 C46.134,9.72 45.352,9.411 44.791,8.794 C44.23,8.175 43.95,7.31 43.95,6.196 C43.95,5.096 44.221,4.216 44.762,3.553 C45.303,2.89 46.033,2.559 46.952,2.559 C47.764,2.559 48.405,2.842 48.875,3.411 C49.345,3.977 49.579,4.747 49.579,5.722 L49.579,6.23 L44.609,6.23 C44.618,7.177 44.838,7.902 45.272,8.4 C45.706,8.9 46.327,9.15 47.135,9.15 C47.529,9.15 47.874,9.123 48.173,9.066 C48.471,9.011 48.849,8.894 49.306,8.711 L49.306,9.283 C48.916,9.453 48.557,9.568 48.227,9.629 C47.898,9.691 47.534,9.72 47.137,9.72 L47.137,9.72 Z M46.953,3.119 C46.288,3.119 45.755,3.338 45.353,3.777 C44.951,4.215 44.715,4.845 44.648,5.672 L48.914,5.672 C48.914,4.871 48.74,4.246 48.393,3.795 C48.047,3.345 47.566,3.119 46.953,3.119 L46.953,3.119 Z" id="Shape"></path>
                    <path d="M54.722,2.56 C55.014,2.56 55.327,2.589 55.661,2.65 L55.541,3.252 C55.253,3.182 54.954,3.145 54.645,3.145 C54.057,3.145 53.575,3.395 53.198,3.895 C52.821,4.393 52.633,5.024 52.633,5.786 L52.633,9.595 L52.005,9.595 L52.005,2.695 L52.538,2.695 L52.601,3.939 L52.646,3.939 C52.929,3.431 53.232,3.076 53.553,2.871 C53.874,2.666 54.265,2.56 54.722,2.56 L54.722,2.56 Z" id="Shape"></path>
                    <path d="M59.095,9.593 L56.429,2.693 L57.076,2.693 L58.859,7.384 C59.096,7.986 59.274,8.511 59.392,8.958 L59.431,8.958 C59.604,8.384 59.782,7.854 59.964,7.372 L61.747,2.692 L62.394,2.692 L59.728,9.592 L59.095,9.592 L59.095,9.593 Z" id="Shape"></path>
                    <path d="M63.982,0.777 C63.982,0.371 64.115,0.168 64.381,0.168 C64.512,0.168 64.614,0.221 64.689,0.326 C64.764,0.431 64.8,0.582 64.8,0.777 C64.8,0.966 64.763,1.117 64.689,1.228 C64.615,1.337 64.512,1.392 64.381,1.392 C64.115,1.392 63.982,1.187 63.982,0.777 L63.982,0.777 Z M64.699,9.593 L64.07,9.593 L64.07,2.693 L64.699,2.693 L64.699,9.593 L64.699,9.593 Z" id="Shape"></path>
                    <path d="M70.284,9.72 C69.299,9.72 68.526,9.409 67.968,8.786 C67.409,8.165 67.13,7.298 67.13,6.184 C67.13,5.041 67.42,4.151 67.999,3.514 C68.579,2.877 69.373,2.559 70.38,2.559 C70.977,2.559 71.548,2.663 72.094,2.87 L71.922,3.429 C71.325,3.232 70.807,3.132 70.367,3.132 C69.52,3.132 68.88,3.394 68.443,3.915 C68.007,4.438 67.79,5.19 67.79,6.171 C67.79,7.103 68.008,7.831 68.443,8.359 C68.88,8.886 69.489,9.15 70.271,9.15 C70.898,9.15 71.48,9.037 72.017,8.812 L72.017,9.396 C71.577,9.613 71,9.72 70.284,9.72 L70.284,9.72 Z" id="Shape"></path>
                    <path d="M77.013,9.72 C76.01,9.72 75.228,9.411 74.667,8.794 C74.106,8.175 73.826,7.31 73.826,6.196 C73.826,5.096 74.097,4.216 74.638,3.553 C75.179,2.891 75.909,2.559 76.827,2.559 C77.639,2.559 78.281,2.842 78.751,3.411 C79.221,3.977 79.455,4.747 79.455,5.722 L79.455,6.23 L74.485,6.23 C74.493,7.177 74.714,7.902 75.148,8.4 C75.582,8.9 76.203,9.15 77.011,9.15 C77.405,9.15 77.75,9.123 78.049,9.066 C78.347,9.011 78.725,8.894 79.182,8.711 L79.182,9.283 C78.792,9.453 78.433,9.568 78.103,9.629 C77.774,9.691 77.41,9.72 77.013,9.72 L77.013,9.72 Z M76.828,3.119 C76.164,3.119 75.631,3.338 75.228,3.777 C74.827,4.215 74.591,4.845 74.524,5.672 L78.79,5.672 C78.79,4.871 78.616,4.246 78.269,3.795 C77.922,3.345 77.442,3.119 76.828,3.119 L76.828,3.119 Z" id="Shape"></path>
                    <path d="M86.159,7.796 C86.159,8.415 85.924,8.89 85.454,9.222 C84.984,9.554 84.318,9.72 83.455,9.72 C82.532,9.72 81.801,9.579 81.259,9.294 L81.259,8.616 C81.953,8.962 82.685,9.136 83.455,9.136 C84.137,9.136 84.653,9.023 85.007,8.796 C85.361,8.569 85.537,8.269 85.537,7.892 C85.537,7.546 85.396,7.253 85.115,7.017 C84.833,6.779 84.371,6.546 83.727,6.318 C83.038,6.068 82.553,5.853 82.274,5.673 C81.995,5.493 81.784,5.29 81.642,5.064 C81.5,4.838 81.429,4.562 81.429,4.236 C81.429,3.72 81.646,3.312 82.08,3.011 C82.514,2.71 83.12,2.56 83.898,2.56 C84.643,2.56 85.349,2.701 86.018,2.98 L85.783,3.55 C85.106,3.271 84.477,3.132 83.898,3.132 C83.335,3.132 82.888,3.224 82.558,3.411 C82.228,3.597 82.063,3.854 82.063,4.184 C82.063,4.543 82.191,4.832 82.448,5.047 C82.704,5.264 83.204,5.504 83.949,5.772 C84.571,5.997 85.024,6.198 85.307,6.377 C85.59,6.556 85.803,6.762 85.945,6.99 C86.087,7.218 86.159,7.488 86.159,7.796 L86.159,7.796 Z" id="Shape"></path>
                </g>
                <g id="Group" transform="translate(489.000000, 40.000000)" sketch:type="MSShapeGroup">
                    <g transform="translate(106.000000, 12.000000)" id="Shape">
                        <path d="M3.146,26.192 L3.146,0.996" stroke="#97998D"></path>
                        <path d="M5.789,25.418 L3.146,29.996 L0.504,25.418 L5.789,25.418 Z" fill="#97998D"></path>
                    </g>
                    <g id="Shape" fill="#797A72">
                        <path d="M5.928,11.496 L5.928,6.677 C5.928,5.93 5.771,5.386 5.456,5.047 C5.142,4.707 4.654,4.537 3.993,4.537 C3.104,4.537 2.454,4.762 2.042,5.211 C1.629,5.659 1.423,6.388 1.423,7.395 L1.423,11.496 L0.746,11.496 L0.746,4.066 L1.32,4.066 L1.45,5.085 L1.491,5.085 C1.974,4.311 2.834,3.923 4.068,3.923 C5.755,3.923 6.597,4.827 6.597,6.637 L6.597,11.497 L5.928,11.497 L5.928,11.496 Z"></path>
                        <path d="M12.565,11.632 C11.485,11.632 10.642,11.3 10.039,10.634 C9.435,9.969 9.134,9.036 9.134,7.838 C9.134,6.653 9.425,5.704 10.009,4.991 C10.592,4.277 11.378,3.921 12.367,3.921 C13.242,3.921 13.932,4.227 14.438,4.837 C14.944,5.447 15.197,6.277 15.197,7.325 L15.197,7.872 L9.844,7.872 C9.853,8.893 10.091,9.672 10.558,10.21 C11.025,10.749 11.694,11.016 12.565,11.016 C12.989,11.016 13.361,10.987 13.682,10.928 C14.003,10.867 14.411,10.74 14.903,10.545 L14.903,11.161 C14.483,11.343 14.096,11.468 13.741,11.532 C13.386,11.599 12.993,11.632 12.565,11.632 L12.565,11.632 Z M12.367,4.523 C11.651,4.523 11.077,4.759 10.644,5.23 C10.21,5.703 9.957,6.382 9.885,7.271 L14.479,7.271 C14.479,6.41 14.291,5.736 13.918,5.251 C13.545,4.766 13.027,4.523 12.367,4.523 L12.367,4.523 Z"></path>
                        <path d="M17.712,2.001 C17.712,1.563 17.856,1.345 18.143,1.345 C18.285,1.345 18.395,1.402 18.475,1.516 C18.554,1.63 18.594,1.791 18.594,2.001 C18.594,2.206 18.554,2.368 18.475,2.486 C18.395,2.604 18.285,2.664 18.143,2.664 C17.855,2.664 17.712,2.443 17.712,2.001 L17.712,2.001 Z M18.484,11.496 L17.807,11.496 L17.807,4.066 L18.484,4.066 L18.484,11.496 L18.484,11.496 Z"></path>
                        <path d="M27.33,4.065 L27.33,4.537 L25.792,4.633 C26.202,5.144 26.407,5.704 26.407,6.315 C26.407,7.031 26.169,7.61 25.692,8.055 C25.215,8.498 24.577,8.721 23.775,8.721 C23.437,8.721 23.201,8.707 23.064,8.68 C22.794,8.822 22.589,8.988 22.449,9.179 C22.307,9.37 22.237,9.574 22.237,9.787 C22.237,10.024 22.327,10.197 22.507,10.307 C22.687,10.417 22.989,10.471 23.413,10.471 L24.712,10.471 C25.519,10.471 26.136,10.634 26.565,10.959 C26.993,11.285 27.208,11.768 27.208,12.406 C27.208,13.189 26.89,13.795 26.254,14.22 C25.618,14.645 24.713,14.859 23.537,14.859 C22.602,14.859 21.879,14.679 21.366,14.32 C20.853,13.959 20.597,13.459 20.597,12.816 C20.597,12.304 20.755,11.88 21.072,11.545 C21.388,11.207 21.818,10.977 22.361,10.854 C22.137,10.758 21.959,10.623 21.824,10.448 C21.689,10.272 21.623,10.07 21.623,9.843 C21.623,9.346 21.939,8.908 22.573,8.531 C22.139,8.353 21.802,8.074 21.561,7.693 C21.319,7.313 21.199,6.877 21.199,6.384 C21.199,5.641 21.434,5.045 21.906,4.597 C22.378,4.148 23.014,3.923 23.817,3.923 C24.304,3.923 24.682,3.971 24.952,4.067 L27.33,4.067 L27.33,4.065 Z M21.314,12.753 C21.314,13.774 22.073,14.284 23.59,14.284 C25.54,14.284 26.516,13.663 26.516,12.419 C26.516,11.972 26.363,11.648 26.058,11.448 C25.752,11.247 25.258,11.147 24.575,11.147 L23.358,11.147 C21.995,11.148 21.314,11.683 21.314,12.753 L21.314,12.753 Z M21.882,6.383 C21.882,6.957 22.056,7.403 22.404,7.719 C22.753,8.036 23.218,8.195 23.802,8.195 C24.421,8.195 24.897,8.038 25.227,7.723 C25.557,7.408 25.723,6.952 25.723,6.356 C25.723,5.722 25.553,5.248 25.213,4.93 C24.873,4.614 24.399,4.455 23.788,4.455 C23.195,4.455 22.729,4.625 22.39,4.965 C22.051,5.304 21.882,5.776 21.882,6.383 L21.882,6.383 Z"></path>
                        <path d="M34.596,11.496 L34.596,6.677 C34.596,5.93 34.439,5.386 34.124,5.047 C33.81,4.707 33.322,4.537 32.661,4.537 C31.772,4.537 31.122,4.762 30.709,5.211 C30.297,5.659 30.091,6.388 30.091,7.395 L30.091,11.496 L29.414,11.496 L29.414,0.86 L30.091,0.86 L30.091,4.244 L30.057,5.194 L30.105,5.194 C30.383,4.748 30.734,4.423 31.158,4.223 C31.582,4.023 32.108,3.922 32.737,3.922 C34.424,3.922 35.266,4.826 35.266,6.636 L35.266,11.496 L34.596,11.496 L34.596,11.496 Z"></path>
                        <path d="M41.369,3.922 C42.408,3.922 43.191,4.249 43.718,4.902 C44.244,5.556 44.508,6.512 44.508,7.77 C44.508,9.005 44.231,9.958 43.677,10.627 C43.123,11.297 42.345,11.631 41.342,11.631 C40.814,11.631 40.338,11.522 39.914,11.303 C39.49,11.084 39.154,10.776 38.908,10.374 L38.847,10.374 L38.656,11.495 L38.232,11.495 L38.232,0.859 L38.908,0.859 L38.908,3.532 C38.908,3.933 38.899,4.303 38.881,4.639 L38.861,5.22 L38.908,5.22 C39.191,4.774 39.532,4.446 39.93,4.236 C40.328,4.026 40.809,3.922 41.369,3.922 L41.369,3.922 Z M41.355,4.537 C40.48,4.537 39.854,4.788 39.476,5.289 C39.097,5.79 38.908,6.617 38.908,7.77 L38.908,7.886 C38.908,9.007 39.105,9.812 39.5,10.299 C39.895,10.786 40.508,11.03 41.342,11.03 C42.154,11.03 42.764,10.747 43.174,10.179 C43.584,9.613 43.789,8.804 43.789,7.756 C43.789,5.61 42.979,4.537 41.355,4.537 L41.355,4.537 Z"></path>
                        <path d="M53.271,7.771 C53.271,8.983 52.977,9.93 52.389,10.612 C51.801,11.293 50.99,11.633 49.955,11.633 C49.303,11.633 48.728,11.477 48.232,11.162 C47.735,10.848 47.355,10.396 47.09,9.808 C46.825,9.22 46.694,8.541 46.694,7.771 C46.694,6.559 46.988,5.614 47.576,4.938 C48.164,4.26 48.971,3.922 49.996,3.922 C51.017,3.922 51.817,4.265 52.398,4.951 C52.979,5.637 53.271,6.576 53.271,7.771 L53.271,7.771 Z M47.405,7.771 C47.405,8.792 47.63,9.588 48.078,10.161 C48.527,10.733 49.162,11.018 49.982,11.018 C50.802,11.018 51.437,10.733 51.885,10.161 C52.334,9.589 52.559,8.792 52.559,7.771 C52.559,6.746 52.332,5.951 51.878,5.385 C51.425,4.82 50.788,4.537 49.968,4.537 C49.148,4.537 48.515,4.818 48.071,5.381 C47.627,5.944 47.405,6.74 47.405,7.771 L47.405,7.771 Z"></path>
                        <path d="M56.476,4.065 L56.476,8.877 C56.476,9.624 56.633,10.168 56.948,10.507 C57.262,10.846 57.751,11.016 58.411,11.016 C59.296,11.016 59.946,10.793 60.363,10.347 C60.78,9.901 60.988,9.173 60.988,8.166 L60.988,4.064 L61.658,4.064 L61.658,11.494 L61.084,11.494 L60.961,10.469 L60.92,10.469 C60.438,11.244 59.578,11.631 58.343,11.631 C56.653,11.631 55.807,10.727 55.807,8.918 L55.807,4.064 L56.476,4.064 L56.476,4.065 Z"></path>
                        <path d="M67.632,3.922 C67.946,3.922 68.283,3.954 68.644,4.018 L68.514,4.667 C68.203,4.59 67.882,4.551 67.55,4.551 C66.916,4.551 66.397,4.82 65.991,5.358 C65.585,5.896 65.383,6.575 65.383,7.395 L65.383,11.496 L64.706,11.496 L64.706,4.066 L65.28,4.066 L65.348,5.406 L65.396,5.406 C65.701,4.859 66.027,4.475 66.374,4.255 C66.72,4.032 67.14,3.922 67.632,3.922 L67.632,3.922 Z"></path>
                        <path d="M75.896,11.496 L75.896,6.677 C75.896,5.93 75.739,5.386 75.424,5.047 C75.11,4.707 74.622,4.537 73.961,4.537 C73.072,4.537 72.422,4.762 72.01,5.211 C71.597,5.659 71.391,6.388 71.391,7.395 L71.391,11.496 L70.714,11.496 L70.714,0.86 L71.391,0.86 L71.391,4.244 L71.357,5.194 L71.405,5.194 C71.683,4.748 72.034,4.423 72.458,4.223 C72.882,4.023 73.408,3.922 74.037,3.922 C75.724,3.922 76.566,4.826 76.566,6.636 L76.566,11.496 L75.896,11.496 L75.896,11.496 Z"></path>
                        <path d="M85.678,7.771 C85.678,8.983 85.384,9.93 84.796,10.612 C84.208,11.293 83.397,11.633 82.362,11.633 C81.71,11.633 81.135,11.477 80.639,11.162 C80.142,10.848 79.761,10.396 79.497,9.808 C79.232,9.22 79.101,8.541 79.101,7.771 C79.101,6.559 79.395,5.614 79.983,4.938 C80.571,4.26 81.378,3.922 82.403,3.922 C83.424,3.922 84.224,4.265 84.805,4.951 C85.387,5.637 85.678,6.576 85.678,7.771 L85.678,7.771 Z M79.812,7.771 C79.812,8.792 80.036,9.588 80.485,10.161 C80.934,10.733 81.569,11.018 82.389,11.018 C83.209,11.018 83.843,10.733 84.292,10.161 C84.741,9.589 84.966,8.792 84.966,7.771 C84.966,6.746 84.738,5.951 84.285,5.385 C83.832,4.819 83.195,4.537 82.375,4.537 C81.555,4.537 80.922,4.818 80.478,5.381 C80.034,5.944 79.812,6.74 79.812,7.771 L79.812,7.771 Z"></path>
                        <path d="M94.44,7.771 C94.44,8.983 94.146,9.93 93.558,10.612 C92.97,11.293 92.159,11.633 91.124,11.633 C90.473,11.633 89.898,11.477 89.401,11.162 C88.904,10.847 88.524,10.396 88.259,9.808 C87.994,9.22 87.863,8.541 87.863,7.771 C87.863,6.559 88.157,5.614 88.745,4.938 C89.333,4.26 90.14,3.922 91.165,3.922 C92.186,3.922 92.987,4.265 93.568,4.951 C94.15,5.637 94.44,6.576 94.44,7.771 L94.44,7.771 Z M88.575,7.771 C88.575,8.792 88.8,9.588 89.249,10.161 C89.697,10.733 90.332,11.018 91.152,11.018 C91.972,11.018 92.607,10.733 93.056,10.161 C93.504,9.589 93.729,8.792 93.729,7.771 C93.729,6.746 93.502,5.951 93.049,5.385 C92.595,4.82 91.958,4.537 91.138,4.537 C90.318,4.537 89.686,4.818 89.242,5.381 C88.798,5.944 88.575,6.74 88.575,7.771 L88.575,7.771 Z"></path>
                        <path d="M99.779,3.922 C100.316,3.922 100.781,4.02 101.174,4.216 C101.566,4.412 101.916,4.747 102.227,5.221 L102.268,5.221 C102.241,4.647 102.227,4.084 102.227,3.533 L102.227,0.86 L102.897,0.86 L102.897,11.496 L102.452,11.496 L102.282,10.362 L102.227,10.362 C101.662,11.209 100.85,11.633 99.793,11.633 C98.768,11.633 97.983,11.315 97.441,10.676 C96.898,10.038 96.627,9.109 96.627,7.887 C96.627,6.602 96.897,5.619 97.434,4.941 C97.972,4.262 98.754,3.922 99.779,3.922 L99.779,3.922 Z M99.779,4.537 C98.967,4.537 98.358,4.822 97.95,5.391 C97.542,5.96 97.338,6.787 97.338,7.872 C97.338,9.977 98.156,11.03 99.793,11.03 C100.631,11.03 101.246,10.786 101.639,10.299 C102.031,9.812 102.227,9.007 102.227,7.886 L102.227,7.77 C102.227,6.622 102.034,5.795 101.649,5.292 C101.264,4.789 100.641,4.537 99.779,4.537 L99.779,4.537 Z"></path>
                        <path d="M69.334,25.496 L69.334,20.678 C69.334,19.93 69.177,19.387 68.862,19.047 C68.547,18.707 68.059,18.537 67.399,18.537 C66.51,18.537 65.859,18.762 65.447,19.211 C65.035,19.66 64.829,20.389 64.829,21.395 L64.829,25.497 L64.152,25.497 L64.152,18.067 L64.726,18.067 L64.856,19.085 L64.897,19.085 C65.379,18.312 66.239,17.923 67.474,17.923 C69.16,17.923 70.003,18.827 70.003,20.638 L70.003,25.497 L69.334,25.497 L69.334,25.496 Z"></path>
                        <path d="M79.115,21.771 C79.115,22.982 78.821,23.929 78.233,24.611 C77.645,25.293 76.834,25.632 75.799,25.632 C75.148,25.632 74.573,25.476 74.076,25.161 C73.579,24.846 73.199,24.395 72.934,23.807 C72.67,23.219 72.538,22.539 72.538,21.77 C72.538,20.557 72.832,19.612 73.42,18.936 C74.008,18.258 74.815,17.92 75.84,17.92 C76.861,17.92 77.662,18.264 78.243,18.949 C78.824,19.634 79.115,20.576 79.115,21.771 L79.115,21.771 Z M73.25,21.771 C73.25,22.791 73.475,23.587 73.924,24.16 C74.372,24.732 75.007,25.017 75.827,25.017 C76.647,25.017 77.282,24.732 77.731,24.16 C78.179,23.588 78.404,22.791 78.404,21.771 C78.404,20.746 78.177,19.951 77.724,19.384 C77.27,18.82 76.633,18.536 75.813,18.536 C74.993,18.536 74.361,18.817 73.917,19.38 C73.473,19.945 73.25,20.74 73.25,21.771 L73.25,21.771 Z"></path>
                        <path d="M84.454,17.921 C84.991,17.921 85.456,18.019 85.849,18.216 C86.241,18.411 86.591,18.747 86.902,19.22 L86.943,19.22 C86.916,18.646 86.902,18.083 86.902,17.532 L86.902,14.858 L87.572,14.858 L87.572,25.495 L87.128,25.495 L86.957,24.36 L86.902,24.36 C86.337,25.208 85.525,25.631 84.468,25.631 C83.443,25.631 82.658,25.313 82.116,24.674 C81.573,24.037 81.303,23.108 81.303,21.885 C81.303,20.6 81.572,19.617 82.11,18.94 C82.646,18.261 83.429,17.921 84.454,17.921 L84.454,17.921 Z M84.454,18.537 C83.642,18.537 83.033,18.822 82.625,19.392 C82.217,19.96 82.014,20.788 82.014,21.872 C82.014,23.977 82.831,25.03 84.468,25.03 C85.306,25.03 85.921,24.786 86.314,24.3 C86.706,23.812 86.902,23.007 86.902,21.886 L86.902,21.771 C86.902,20.623 86.709,19.796 86.324,19.292 C85.939,18.788 85.315,18.537 84.454,18.537 L84.454,18.537 Z"></path>
                        <path d="M93.627,25.632 C92.547,25.632 91.705,25.3 91.102,24.634 C90.498,23.97 90.196,23.036 90.196,21.839 C90.196,20.653 90.488,19.704 91.071,18.991 C91.654,18.278 92.44,17.921 93.429,17.921 C94.304,17.921 94.994,18.228 95.5,18.837 C96.006,19.448 96.259,20.278 96.259,21.325 L96.259,21.872 L90.906,21.872 C90.915,22.893 91.153,23.673 91.621,24.21 C92.088,24.749 92.757,25.017 93.627,25.017 C94.051,25.017 94.424,24.988 94.745,24.929 C95.066,24.868 95.473,24.741 95.965,24.546 L95.965,25.161 C95.546,25.343 95.158,25.468 94.803,25.532 C94.447,25.599 94.056,25.632 93.627,25.632 L93.627,25.632 Z M93.429,18.523 C92.713,18.523 92.139,18.759 91.706,19.23 C91.273,19.703 91.02,20.382 90.947,21.271 L95.541,21.271 C95.541,20.41 95.354,19.736 94.98,19.251 C94.606,18.765 94.09,18.523 93.429,18.523 L93.429,18.523 Z"></path>
                        <path d="M103.477,23.562 C103.477,24.226 103.225,24.738 102.719,25.095 C102.213,25.454 101.494,25.632 100.565,25.632 C99.572,25.632 98.784,25.48 98.2,25.175 L98.2,24.443 C98.948,24.818 99.736,25.004 100.565,25.004 C101.299,25.004 101.856,24.883 102.237,24.639 C102.618,24.395 102.807,24.071 102.807,23.664 C102.807,23.291 102.656,22.976 102.353,22.721 C102.05,22.467 101.552,22.215 100.86,21.969 C100.117,21.701 99.594,21.469 99.294,21.276 C98.994,21.083 98.767,20.864 98.614,20.62 C98.461,20.376 98.385,20.079 98.385,19.727 C98.385,19.172 98.618,18.731 99.085,18.409 C99.552,18.085 100.205,17.923 101.043,17.923 C101.846,17.923 102.606,18.073 103.326,18.374 L103.074,18.989 C102.345,18.688 101.668,18.538 101.043,18.538 C100.438,18.538 99.957,18.64 99.602,18.839 C99.247,19.04 99.069,19.318 99.069,19.673 C99.069,20.062 99.207,20.37 99.482,20.603 C99.757,20.836 100.296,21.095 101.098,21.382 C101.768,21.624 102.256,21.841 102.561,22.034 C102.867,22.229 103.096,22.448 103.249,22.694 C103.402,22.94 103.477,23.228 103.477,23.562 L103.477,23.562 Z"></path>
                    </g>
                </g>
                <g id="Group" transform="translate(157.000000, 42.000000)" sketch:type="MSShapeGroup">
                    <g transform="translate(0.000000, 10.000000)" id="Shape">
                        <path d="M3.091,26.192 L3.091,0.996" stroke="#97998D"></path>
                        <path d="M5.734,25.418 L3.091,29.996 L0.449,25.418 L5.734,25.418 Z" fill="#97998D"></path>
                    </g>
                    <g transform="translate(8.000000, 0.000000)" id="Shape" fill="#797A72">
                        <path d="M5.943,9.062 C5.943,9.726 5.69,10.238 5.184,10.595 C4.678,10.954 3.96,11.132 3.031,11.132 C2.037,11.132 1.249,10.98 0.666,10.675 L0.666,9.943 C1.414,10.318 2.202,10.504 3.031,10.504 C3.765,10.504 4.322,10.383 4.702,10.139 C5.082,9.895 5.273,9.571 5.273,9.164 C5.273,8.791 5.121,8.476 4.818,8.221 C4.515,7.966 4.017,7.715 3.324,7.469 C2.581,7.2 2.059,6.969 1.759,6.776 C1.458,6.582 1.231,6.363 1.079,6.12 C0.926,5.876 0.85,5.578 0.85,5.227 C0.85,4.671 1.083,4.231 1.551,3.908 C2.018,3.585 2.671,3.423 3.509,3.423 C4.311,3.423 5.072,3.573 5.792,3.874 L5.539,4.489 C4.81,4.188 4.133,4.038 3.509,4.038 C2.903,4.038 2.422,4.139 2.067,4.339 C1.712,4.539 1.534,4.818 1.534,5.173 C1.534,5.561 1.672,5.87 1.948,6.103 C2.223,6.335 2.762,6.595 3.565,6.882 C4.235,7.123 4.723,7.341 5.028,7.534 C5.333,7.728 5.562,7.948 5.715,8.194 C5.866,8.439 5.943,8.729 5.943,9.062 L5.943,9.062 Z"></path>
                        <path d="M9.005,3.565 L9.005,8.377 C9.005,9.124 9.162,9.669 9.477,10.006 C9.791,10.346 10.279,10.516 10.94,10.516 C11.824,10.516 12.475,10.293 12.892,9.846 C13.309,9.401 13.517,8.673 13.517,7.666 L13.517,3.564 L14.187,3.564 L14.187,10.994 L13.613,10.994 L13.49,9.969 L13.449,9.969 C12.966,10.744 12.107,11.131 10.872,11.131 C9.181,11.131 8.336,10.227 8.336,8.418 L8.336,3.564 L9.005,3.564 L9.005,3.565 Z"></path>
                        <path d="M20.373,3.422 C21.412,3.422 22.195,3.749 22.721,4.402 C23.247,5.056 23.511,6.012 23.511,7.27 C23.511,8.505 23.234,9.458 22.68,10.128 C22.126,10.798 21.348,11.132 20.346,11.132 C19.817,11.132 19.341,11.023 18.917,10.804 C18.493,10.585 18.158,10.277 17.912,9.874 L17.85,9.874 L17.659,10.995 L17.235,10.995 L17.235,0.359 L17.912,0.359 L17.912,3.032 C17.912,3.433 17.903,3.803 17.885,4.139 L17.864,4.72 L17.912,4.72 C18.194,4.274 18.535,3.946 18.934,3.736 C19.332,3.526 19.812,3.422 20.373,3.422 L20.373,3.422 Z M20.359,4.037 C19.484,4.037 18.857,4.288 18.479,4.789 C18.101,5.29 17.912,6.117 17.912,7.27 L17.912,7.386 C17.912,8.507 18.109,9.311 18.503,9.8 C18.897,10.286 19.511,10.53 20.345,10.53 C21.156,10.53 21.767,10.247 22.177,9.678 C22.587,9.112 22.792,8.303 22.792,7.256 C22.792,5.11 21.981,4.037 20.359,4.037 L20.359,4.037 Z"></path>
                        <path d="M26.716,3.565 L26.716,8.377 C26.716,9.124 26.873,9.669 27.188,10.006 C27.502,10.346 27.99,10.516 28.651,10.516 C29.535,10.516 30.186,10.293 30.603,9.846 C31.02,9.401 31.228,8.673 31.228,7.666 L31.228,3.564 L31.898,3.564 L31.898,10.994 L31.324,10.994 L31.201,9.969 L31.16,9.969 C30.677,10.744 29.818,11.131 28.583,11.131 C26.892,11.131 26.047,10.227 26.047,8.418 L26.047,3.564 L26.716,3.564 L26.716,3.565 Z"></path>
                        <path d="M37.871,3.422 C38.185,3.422 38.523,3.454 38.883,3.518 L38.753,4.167 C38.443,4.09 38.122,4.051 37.789,4.051 C37.156,4.051 36.636,4.32 36.23,4.858 C35.825,5.396 35.622,6.075 35.622,6.895 L35.622,10.996 L34.945,10.996 L34.945,3.566 L35.519,3.566 L35.587,4.906 L35.635,4.906 C35.941,4.359 36.266,3.975 36.613,3.755 C36.96,3.532 37.379,3.422 37.871,3.422 L37.871,3.422 Z"></path>
                        <path d="M44.092,3.422 C45.131,3.422 45.913,3.749 46.44,4.402 C46.966,5.056 47.23,6.012 47.23,7.27 C47.23,8.505 46.953,9.458 46.399,10.128 C45.845,10.798 45.067,11.132 44.065,11.132 C43.536,11.132 43.06,11.023 42.636,10.804 C42.212,10.585 41.877,10.277 41.631,9.874 L41.569,9.874 L41.378,10.995 L40.954,10.995 L40.954,0.359 L41.631,0.359 L41.631,3.032 C41.631,3.433 41.622,3.803 41.604,4.139 L41.583,4.72 L41.631,4.72 C41.913,4.274 42.254,3.946 42.652,3.736 C43.051,3.526 43.531,3.422 44.092,3.422 L44.092,3.422 Z M44.078,4.037 C43.203,4.037 42.576,4.288 42.198,4.789 C41.82,5.29 41.631,6.117 41.631,7.27 L41.631,7.386 C41.631,8.507 41.828,9.311 42.222,9.8 C42.617,10.286 43.231,10.53 44.065,10.53 C44.876,10.53 45.487,10.247 45.897,9.678 C46.307,9.112 46.512,8.303 46.512,7.256 C46.512,5.11 45.7,4.037 44.078,4.037 L44.078,4.037 Z"></path>
                        <path d="M54.454,9.062 C54.454,9.726 54.201,10.238 53.695,10.595 C53.189,10.954 52.471,11.132 51.542,11.132 C50.549,11.132 49.76,10.98 49.177,10.675 L49.177,9.943 C49.925,10.318 50.713,10.504 51.542,10.504 C52.276,10.504 52.833,10.383 53.213,10.139 C53.593,9.895 53.784,9.571 53.784,9.164 C53.784,8.791 53.633,8.476 53.329,8.221 C53.025,7.966 52.528,7.715 51.835,7.469 C51.092,7.2 50.57,6.969 50.27,6.776 C49.969,6.582 49.743,6.363 49.59,6.12 C49.437,5.876 49.361,5.578 49.361,5.227 C49.361,4.671 49.594,4.231 50.062,3.908 C50.53,3.585 51.182,3.423 52.02,3.423 C52.822,3.423 53.583,3.573 54.303,3.874 L54.05,4.489 C53.321,4.188 52.644,4.038 52.02,4.038 C51.414,4.038 50.933,4.139 50.578,4.339 C50.223,4.539 50.045,4.818 50.045,5.173 C50.045,5.561 50.183,5.87 50.459,6.103 C50.735,6.336 51.274,6.595 52.076,6.882 C52.746,7.123 53.234,7.341 53.539,7.534 C53.845,7.728 54.073,7.948 54.226,8.194 C54.379,8.44 54.454,8.729 54.454,9.062 L54.454,9.062 Z"></path>
                    </g>
                </g>
                <g id="Group" transform="translate(269.000000, 43.000000)" sketch:type="MSShapeGroup">
                    <g transform="translate(0.000000, 9.000000)" id="Shape">
                        <path d="M3.078,26.192 L3.078,0.996" stroke="#97998D"></path>
                        <path d="M5.721,25.418 L3.078,29.996 L0.436,25.418 L5.721,25.418 Z" fill="#97998D"></path>
                    </g>
                    <g transform="translate(8.000000, 0.000000)" id="Shape" fill="#797A72">
                        <path d="M4.289,8.632 C3.227,8.632 2.395,8.298 1.794,7.628 C1.192,6.958 0.892,6.024 0.892,4.825 C0.892,3.595 1.204,2.637 1.829,1.951 C2.453,1.264 3.308,0.922 4.392,0.922 C5.035,0.922 5.65,1.033 6.238,1.257 L6.053,1.859 C5.41,1.645 4.852,1.538 4.378,1.538 C3.466,1.538 2.776,1.819 2.307,2.382 C1.837,2.945 1.603,3.755 1.603,4.813 C1.603,5.816 1.837,6.601 2.307,7.167 C2.776,7.735 3.432,8.018 4.276,8.018 C4.95,8.018 5.577,7.897 6.156,7.656 L6.156,8.285 C5.681,8.517 5.059,8.632 4.289,8.632 L4.289,8.632 Z"></path>
                        <path d="M14.679,4.771 C14.679,5.983 14.385,6.93 13.797,7.612 C13.209,8.293 12.398,8.633 11.363,8.633 C10.711,8.633 10.137,8.477 9.64,8.162 C9.143,7.847 8.763,7.396 8.498,6.808 C8.233,6.22 8.102,5.541 8.102,4.771 C8.102,3.559 8.396,2.614 8.984,1.938 C9.572,1.26 10.379,0.922 11.404,0.922 C12.425,0.922 13.226,1.265 13.807,1.951 C14.389,2.637 14.679,3.576 14.679,4.771 L14.679,4.771 Z M8.814,4.771 C8.814,5.792 9.038,6.588 9.487,7.161 C9.936,7.733 10.57,8.018 11.391,8.018 C12.212,8.018 12.846,7.733 13.295,7.161 C13.744,6.589 13.968,5.792 13.968,4.771 C13.968,3.746 13.741,2.951 13.288,2.385 C12.834,1.82 12.198,1.537 11.377,1.537 C10.556,1.537 9.924,1.818 9.48,2.381 C9.036,2.944 8.814,3.74 8.814,4.771 L8.814,4.771 Z"></path>
                        <path d="M20.223,0.922 C20.537,0.922 20.874,0.954 21.235,1.018 L21.105,1.667 C20.795,1.59 20.474,1.551 20.141,1.551 C19.507,1.551 18.988,1.82 18.582,2.358 C18.176,2.896 17.974,3.575 17.974,4.395 L17.974,8.496 L17.297,8.496 L17.297,1.066 L17.871,1.066 L17.939,2.406 L17.987,2.406 C18.292,1.859 18.618,1.475 18.965,1.255 C19.311,1.032 19.73,0.922 20.223,0.922 L20.223,0.922 Z"></path>
                        <path d="M28.487,8.496 L28.487,3.677 C28.487,2.93 28.33,2.386 28.015,2.047 C27.701,1.707 27.213,1.537 26.552,1.537 C25.663,1.537 25.012,1.762 24.6,2.211 C24.187,2.659 23.981,3.388 23.981,4.395 L23.981,8.496 L23.304,8.496 L23.304,1.066 L23.878,1.066 L24.008,2.085 L24.049,2.085 C24.532,1.311 25.391,0.923 26.626,0.923 C28.312,0.923 29.155,1.827 29.155,3.637 L29.155,8.497 L28.487,8.497 L28.487,8.496 Z"></path>
                        <path d="M35.124,8.632 C34.044,8.632 33.202,8.3 32.598,7.634 C31.994,6.969 31.693,6.036 31.693,4.838 C31.693,3.653 31.985,2.704 32.568,1.991 C33.151,1.277 33.937,0.921 34.926,0.921 C35.801,0.921 36.491,1.227 36.997,1.837 C37.503,2.447 37.756,3.277 37.756,4.325 L37.756,4.872 L32.403,4.872 C32.412,5.893 32.65,6.672 33.117,7.21 C33.584,7.749 34.253,8.016 35.124,8.016 C35.548,8.016 35.92,7.987 36.241,7.928 C36.562,7.867 36.97,7.74 37.462,7.545 L37.462,8.161 C37.043,8.343 36.655,8.468 36.3,8.532 C35.944,8.599 35.552,8.632 35.124,8.632 L35.124,8.632 Z M34.926,1.523 C34.21,1.523 33.636,1.759 33.203,2.23 C32.77,2.703 32.517,3.382 32.444,4.271 L37.038,4.271 C37.038,3.41 36.851,2.736 36.477,2.251 C36.104,1.766 35.586,1.523 34.926,1.523 L34.926,1.523 Z"></path>
                        <path d="M43.292,0.922 C43.606,0.922 43.944,0.954 44.304,1.018 L44.174,1.667 C43.864,1.59 43.543,1.551 43.21,1.551 C42.577,1.551 42.057,1.82 41.651,2.358 C41.246,2.896 41.043,3.575 41.043,4.395 L41.043,8.496 L40.366,8.496 L40.366,1.066 L40.94,1.066 L41.008,2.406 L41.056,2.406 C41.362,1.859 41.687,1.475 42.034,1.255 C42.381,1.032 42.8,0.922 43.292,0.922 L43.292,0.922 Z"></path>
                        <path d="M4.248,14.921 C4.562,14.921 4.899,14.954 5.26,15.017 L5.13,15.667 C4.82,15.589 4.499,15.55 4.166,15.55 C3.532,15.55 3.013,15.82 2.607,16.357 C2.201,16.896 1.999,17.574 1.999,18.394 L1.999,22.496 L1.322,22.496 L1.322,15.066 L1.896,15.066 L1.964,16.406 L2.012,16.406 C2.317,15.859 2.643,15.474 2.99,15.254 C3.336,15.033 3.756,14.921 4.248,14.921 L4.248,14.921 Z"></path>
                        <path d="M10.332,22.632 C9.252,22.632 8.41,22.3 7.806,21.634 C7.202,20.97 6.9,20.036 6.9,18.839 C6.9,17.653 7.192,16.704 7.775,15.991 C8.358,15.278 9.145,14.921 10.133,14.921 C11.008,14.921 11.698,15.228 12.204,15.837 C12.71,16.448 12.963,17.278 12.963,18.325 L12.963,18.872 L7.61,18.872 C7.619,19.893 7.857,20.673 8.324,21.21 C8.791,21.749 9.46,22.017 10.33,22.017 C10.754,22.017 11.126,21.988 11.448,21.929 C11.769,21.868 12.176,21.741 12.668,21.546 L12.668,22.161 C12.249,22.343 11.861,22.468 11.506,22.532 C11.152,22.599 10.76,22.632 10.332,22.632 L10.332,22.632 Z M10.133,15.523 C9.418,15.523 8.843,15.759 8.41,16.23 C7.977,16.703 7.724,17.382 7.651,18.271 L12.245,18.271 C12.245,17.41 12.058,16.736 11.684,16.251 C11.312,15.765 10.794,15.523 10.133,15.523 L10.133,15.523 Z"></path>
                        <path d="M17.536,22.031 C17.964,22.031 18.338,21.996 18.657,21.922 L18.657,22.469 C18.329,22.578 17.95,22.633 17.522,22.633 C16.866,22.633 16.381,22.457 16.069,22.108 C15.757,21.756 15.601,21.206 15.601,20.454 L15.601,15.655 L14.5,15.655 L14.5,15.259 L15.601,14.95 L15.943,13.268 L16.292,13.268 L16.292,15.067 L18.473,15.067 L18.473,15.655 L16.292,15.655 L16.292,20.358 C16.292,20.926 16.392,21.348 16.593,21.622 C16.793,21.894 17.107,22.031 17.536,22.031 L17.536,22.031 Z"></path>
                        <path d="M25.335,22.496 L25.164,21.32 L25.109,21.32 C24.735,21.799 24.351,22.136 23.957,22.336 C23.562,22.533 23.097,22.633 22.559,22.633 C21.83,22.633 21.262,22.447 20.857,22.072 C20.451,21.699 20.249,21.181 20.249,20.521 C20.249,19.796 20.551,19.234 21.155,18.832 C21.759,18.432 22.633,18.219 23.777,18.197 L25.192,18.156 L25.192,17.664 C25.192,16.957 25.048,16.424 24.761,16.064 C24.474,15.703 24.011,15.523 23.373,15.523 C22.685,15.523 21.972,15.714 21.233,16.097 L20.98,15.509 C21.795,15.126 22.602,14.935 23.4,14.935 C24.215,14.935 24.825,15.148 25.229,15.572 C25.633,15.996 25.834,16.656 25.834,17.554 L25.834,22.495 L25.335,22.495 L25.335,22.496 Z M22.601,22.017 C23.394,22.017 24.019,21.79 24.477,21.337 C24.935,20.884 25.164,20.253 25.164,19.446 L25.164,18.716 L23.865,18.771 C22.821,18.82 22.077,18.984 21.633,19.259 C21.189,19.534 20.966,19.964 20.966,20.548 C20.966,21.013 21.108,21.374 21.393,21.63 C21.679,21.888 22.082,22.017 22.601,22.017 L22.601,22.017 Z"></path>
                        <path d="M28.705,13.001 C28.705,12.563 28.849,12.345 29.136,12.345 C29.277,12.345 29.387,12.402 29.467,12.515 C29.547,12.63 29.587,12.79 29.587,13.001 C29.587,13.206 29.547,13.368 29.467,13.485 C29.387,13.604 29.277,13.663 29.136,13.663 C28.849,13.664 28.705,13.443 28.705,13.001 L28.705,13.001 Z M29.478,22.496 L28.801,22.496 L28.801,15.066 L29.478,15.066 L29.478,22.496 L29.478,22.496 Z"></path>
                        <path d="M33.202,22.496 L32.525,22.496 L32.525,11.859 L33.202,11.859 L33.202,22.496 L33.202,22.496 Z"></path>
                    </g>
                </g>
                <g id="Group" transform="translate(642.000000, 0.000000)" sketch:type="MSShapeGroup">
                    <path d="M138.498,1.113 L7.498,1.113 L7.498,31.113 L138.498,31.113" id="Shape" fill="#333333"></path>
                    <rect id="Rectangle-path" fill="#000000" x="3.832" y="0.981" width="4" height="75.515"></rect>
                    <g transform="translate(24.000000, 10.000000)" id="Shape" fill="#FFFFFF">
                        <path d="M9.473,6.172 C9.473,8.058 8.95,9.499 7.903,10.496 C6.856,11.493 5.348,11.992 3.38,11.992 L0.185,11.992 L0.185,0.57 L3.716,0.57 C5.533,0.57 6.947,1.059 7.958,2.039 C8.967,3.019 9.473,4.396 9.473,6.172 L9.473,6.172 Z M7.504,6.234 C7.504,3.5 6.225,2.132 3.668,2.132 L2.051,2.132 L2.051,10.421 L3.379,10.421 C6.129,10.422 7.504,9.026 7.504,6.234 L7.504,6.234 Z"></path>
                        <path d="M22.066,6.266 C22.066,8.125 21.601,9.571 20.671,10.602 C19.741,11.633 18.425,12.149 16.722,12.149 C14.997,12.149 13.673,11.637 12.749,10.614 C11.824,9.591 11.362,8.136 11.362,6.251 C11.362,4.366 11.827,2.918 12.757,1.907 C13.687,0.896 15.013,0.391 16.737,0.391 C18.434,0.391 19.747,0.904 20.675,1.93 C21.603,2.956 22.066,4.401 22.066,6.266 L22.066,6.266 Z M13.348,6.266 C13.348,7.672 13.631,8.739 14.2,9.465 C14.767,10.192 15.608,10.555 16.723,10.555 C17.832,10.555 18.669,10.196 19.235,9.477 C19.799,8.758 20.083,7.688 20.083,6.266 C20.083,4.865 19.803,3.802 19.243,3.078 C18.682,2.354 17.848,1.992 16.739,1.992 C15.619,1.992 14.774,2.354 14.204,3.078 C13.634,3.802 13.348,4.864 13.348,6.266 L13.348,6.266 Z"></path>
                        <path d="M35.059,11.992 L33.028,11.992 L31.09,5.18 C31.006,4.883 30.902,4.454 30.778,3.895 C30.654,3.336 30.577,2.946 30.551,2.727 C30.498,3.06 30.414,3.493 30.297,4.024 C30.18,4.555 30.082,4.951 30.004,5.212 L28.113,11.993 L26.082,11.993 L24.605,6.274 L23.105,0.571 L25.011,0.571 L26.644,7.227 C26.899,8.294 27.082,9.238 27.191,10.055 C27.248,9.613 27.334,9.117 27.449,8.571 C27.563,8.024 27.668,7.582 27.761,7.243 L29.62,0.571 L31.472,0.571 L33.378,7.274 C33.56,7.894 33.753,8.821 33.956,10.055 C34.034,9.31 34.222,8.363 34.518,7.211 L36.143,0.57 L38.034,0.57 L35.059,11.992 L35.059,11.992 Z"></path>
                        <path d="M49.168,11.992 L46.879,11.992 L41.262,2.89 L41.2,2.89 L41.239,3.398 C41.311,4.367 41.348,5.252 41.348,6.054 L41.348,11.992 L39.653,11.992 L39.653,0.57 L41.919,0.57 L47.521,9.625 L47.568,9.625 C47.557,9.505 47.537,9.069 47.506,8.316 C47.475,7.563 47.459,6.976 47.459,6.554 L47.459,0.57 L49.17,0.57 L49.17,11.992 L49.168,11.992 Z"></path>
                        <path d="M56.129,11.992 L54.262,11.992 L54.262,2.172 L50.903,2.172 L50.903,0.57 L59.489,0.57 L59.489,2.172 L56.13,2.172 L56.13,11.992 L56.129,11.992 Z"></path>
                        <path d="M71.379,6.266 C71.379,8.125 70.914,9.571 69.984,10.602 C69.054,11.633 67.738,12.149 66.035,12.149 C64.31,12.149 62.986,11.637 62.062,10.614 C61.137,9.591 60.675,8.136 60.675,6.251 C60.675,4.366 61.14,2.918 62.07,1.907 C63,0.896 64.326,0.391 66.05,0.391 C67.747,0.391 69.06,0.904 69.988,1.93 C70.915,2.956 71.379,4.401 71.379,6.266 L71.379,6.266 Z M62.66,6.266 C62.66,7.672 62.943,8.739 63.512,9.465 C64.079,10.192 64.92,10.555 66.035,10.555 C67.144,10.555 67.981,10.196 68.547,9.477 C69.111,8.758 69.395,7.688 69.395,6.266 C69.395,4.865 69.115,3.802 68.555,3.078 C67.994,2.354 67.16,1.992 66.051,1.992 C64.931,1.992 64.086,2.354 63.516,3.078 C62.946,3.802 62.66,4.864 62.66,6.266 L62.66,6.266 Z"></path>
                        <path d="M84.371,11.992 L82.34,11.992 L80.402,5.18 C80.318,4.883 80.214,4.454 80.09,3.895 C79.966,3.336 79.889,2.946 79.863,2.727 C79.81,3.06 79.726,3.493 79.609,4.024 C79.492,4.555 79.394,4.951 79.316,5.212 L77.425,11.993 L75.394,11.993 L73.917,6.274 L72.417,0.571 L74.323,0.571 L75.956,7.227 C76.211,8.294 76.394,9.238 76.503,10.055 C76.56,9.613 76.646,9.117 76.761,8.571 C76.875,8.024 76.98,7.582 77.073,7.243 L78.932,0.571 L80.784,0.571 L82.69,7.274 C82.872,7.894 83.065,8.821 83.268,10.055 C83.346,9.31 83.534,8.363 83.83,7.211 L85.455,0.57 L87.346,0.57 L84.371,11.992 L84.371,11.992 Z"></path>
                        <path d="M98.48,11.992 L96.191,11.992 L90.574,2.89 L90.512,2.89 L90.551,3.398 C90.623,4.367 90.66,5.252 90.66,6.054 L90.66,11.992 L88.965,11.992 L88.965,0.57 L91.231,0.57 L96.833,9.625 L96.88,9.625 C96.869,9.505 96.849,9.069 96.818,8.316 C96.787,7.563 96.771,6.976 96.771,6.554 L96.771,0.57 L98.482,0.57 L98.482,11.992 L98.48,11.992 Z"></path>
                    </g>
                    <path d="M5.832,83.39 L8.332,79.759 L10.832,76.128 L5.832,76.128 L0.832,76.128 L3.332,79.759 L5.832,83.39 Z" id="Shape" fill="#333333"></path>
                </g>
            </g>
        </g>
    </g>
</svg>