<?xml version="1.0" encoding="UTF-8" standalone="no"?>
<svg width="800px" height="115px" viewBox="0 0 800 115" version="1.1" xmlns="http://www.w3.org/2000/svg" xmlns:xlink="http://www.w3.org/1999/xlink">
    <!-- Generator: Sketch 3.6.1 (26313) - http://www.bohemiancoding.com/sketch -->
    <title>Corner_Development</title>
    <desc>Created with Sketch.</desc>
    <defs>
        <linearGradient x1="0%" y1="50.0364065%" x2="100%" y2="50%" id="linearGradient-1">
            <stop stop-color="#26B99A" stop-opacity="0.2" offset="0%"></stop>
            <stop stop-color="#1FB092" stop-opacity="0.5852" offset="48.15%"></stop>
            <stop stop-color="#14A085" offset="100%"></stop>
        </linearGradient>
    </defs>
    <g id="Page-1" stroke="none" stroke-width="1" fill="none" fill-rule="evenodd">
        <g id="Corner_Development">
            <g id="Group" transform="translate(104.000000, 100.000000)" fill="url(#linearGradient-1)">
                <rect id="Rectangle-path" x="0.917" y="0.651818182" width="590.167" height="13.6363636"></rect>
            </g>
            <text id="most-impact" font-family="OpenSans-Semibold, Open Sans" font-size="14" font-weight="500" letter-spacing="0.5" fill="#16A085">
                <tspan x="6" y="112">most impact</tspan>
            </text>
            <text id="least-impact" font-family="OpenSans-Semibold, Open Sans" font-size="14" font-weight="500" letter-spacing="0.5" fill="#16A085">
                <tspan x="705.387695" y="112">least impact</tspan>
            </text>
            <g id="Group-7" transform="translate(659.000000, 59.000000)">
                <g id="Group-5" transform="translate(0.000000, 8.000000)">
                    <g id="Group-2" transform="translate(3.500000, 15.000000) scale(-1, 1) translate(-3.500000, -15.000000) ">
                        <path d="M4.146,26.192 L4.146,0.996 L0.163279585,0.996" id="Shape" stroke="#797A72"></path>
                        <path d="M4.146,29.996 L1.504,25.418 L6.789,25.418 L4.146,29.996 Z" id="Shape" fill="#797A72"></path>
                    </g>
                </g>
                <text id="suburb" font-family="OpenSans, Open Sans" font-size="14" font-weight="normal" line-spacing="13" letter-spacing="0.5" fill="#4A4A4A">
                    <tspan x="12" y="15">suburb</tspan>
                </text>
            </g>
            <g id="Group-7-Copy" transform="translate(533.000000, 58.000000)">
                <g id="Group-5" transform="translate(0.000000, 8.000000)">
                    <g id="Group-2" transform="translate(3.500000, 15.000000) scale(-1, 1) translate(-3.500000, -15.000000) ">
                        <path d="M4.146,26.192 L4.146,0.996 L0.163279585,0.996" id="Shape" stroke="#797A72"></path>
                        <path d="M4.146,29.996 L1.504,25.418 L6.789,25.418 L4.146,29.996 Z" id="Shape" fill="#797A72"></path>
                    </g>
                </g>
                <text id="downtown" font-family="OpenSans, Open Sans" font-size="14" font-weight="normal" line-spacing="13" letter-spacing="0.5" fill="#4A4A4A">
                    <tspan x="12" y="15">downtown</tspan>
                </text>
            </g>
            <g id="Group-3" transform="translate(50.000000, 52.000000)">
                <g id="Group-2" transform="translate(114.000000, 15.000000)">
                    <path d="M4.146,26.192 L4.146,0.996 L0.163279585,0.996" id="Shape" stroke="#797A72"></path>
                    <path d="M4.146,29.996 L1.504,25.418 L6.789,25.418 L4.146,29.996 Z" id="Shape" fill="#797A72"></path>
                </g>
                <text id="neighbourhood" font-family="OpenSans, Open Sans" font-size="14" font-weight="normal" line-spacing="13" letter-spacing="0.5" fill="#4A4A4A">
                    <tspan x="0" y="15">neighbourhood</tspan>
                    <tspan x="63.8339844" y="28">centre</tspan>
                </text>
            </g>
            <g id="Group-6" transform="translate(219.000000, 1.000000)">
                <rect id="Rectangle-3" fill="#000000" x="0" y="0" width="141" height="31" rx="3"></rect>
                <rect id="Rectangle-path" fill="#000000" x="68.832" y="13.981" width="4" height="75.515"></rect>
                <path d="M70.832,96.39 L73.332,92.759 L75.832,89.128 L70.832,89.128 L65.832,89.128 L68.332,92.759 L70.832,96.39 L70.832,96.39 Z" id="Shape" fill="#000000"></path>
                <g id="Group-7" transform="translate(10.000000, 9.000000)" fill="#FFFFFF">
                    <path d="M6.074,2.309 C5.001,2.309 4.157,2.689 3.543,3.45 C2.928,4.211 2.621,5.26 2.621,6.598 C2.621,7.999 2.916,9.059 3.508,9.778 C4.099,10.497 4.954,10.856 6.074,10.856 C6.558,10.856 7.027,10.808 7.48,10.711 C7.933,10.614 8.404,10.491 8.894,10.34 L8.894,11.942 C7.998,12.281 6.982,12.45 5.847,12.45 C4.175,12.45 2.891,11.943 1.995,10.93 C1.099,9.917 0.651,8.468 0.651,6.582 C0.651,5.394 0.868,4.355 1.303,3.465 C1.738,2.574 2.366,1.892 3.19,1.418 C4.012,0.944 4.979,0.707 6.088,0.707 C7.254,0.707 8.332,0.952 9.322,1.441 L8.65,2.996 C8.264,2.813 7.857,2.653 7.427,2.516 C6.997,2.379 6.548,2.309 6.074,2.309 L6.074,2.309 Z" id="Shape"></path>
                    <path d="M21.496,6.566 C21.496,8.425 21.031,9.871 20.101,10.902 C19.171,11.933 17.855,12.449 16.152,12.449 C14.427,12.449 13.103,11.937 12.179,10.914 C11.254,9.891 10.792,8.436 10.792,6.551 C10.792,4.666 11.257,3.218 12.187,2.207 C13.117,1.196 14.443,0.691 16.167,0.691 C17.864,0.691 19.177,1.204 20.105,2.23 C21.032,3.257 21.496,4.702 21.496,6.566 L21.496,6.566 Z M12.777,6.566 C12.777,7.972 13.06,9.039 13.629,9.765 C14.196,10.492 15.037,10.855 16.152,10.855 C17.261,10.855 18.098,10.496 18.664,9.777 C19.228,9.058 19.512,7.988 19.512,6.566 C19.512,5.165 19.232,4.102 18.672,3.378 C18.111,2.654 17.277,2.292 16.168,2.292 C15.048,2.292 14.203,2.654 13.633,3.378 C13.063,4.102 12.777,5.165 12.777,6.566 L12.777,6.566 Z" id="Shape"></path>
                    <path d="M25.816,7.73 L25.816,12.292 L23.949,12.292 L23.949,0.87 L27.176,0.87 C28.65,0.87 29.74,1.146 30.449,1.698 C31.157,2.25 31.511,3.084 31.511,4.198 C31.511,5.62 30.771,6.633 29.292,7.237 L32.519,12.292 L30.394,12.292 L27.66,7.73 L25.816,7.73 L25.816,7.73 Z M25.816,6.184 L27.113,6.184 C27.982,6.184 28.613,6.023 29.004,5.7 C29.395,5.377 29.59,4.898 29.59,4.262 C29.59,3.616 29.379,3.153 28.957,2.871 C28.535,2.589 27.899,2.449 27.051,2.449 L25.817,2.449 L25.817,6.184 L25.816,6.184 Z" id="Shape"></path>
                    <path d="M43.691,12.293 L41.402,12.293 L35.785,3.191 L35.723,3.191 L35.762,3.699 C35.834,4.668 35.871,5.553 35.871,6.355 L35.871,12.293 L34.176,12.293 L34.176,0.871 L36.442,0.871 L42.044,9.926 L42.091,9.926 C42.08,9.806 42.06,9.37 42.029,8.617 C41.998,7.864 41.982,7.277 41.982,6.855 L41.982,0.871 L43.693,0.871 L43.693,12.293 L43.691,12.293 Z" id="Shape"></path>
                    <path d="M53.168,12.293 L46.707,12.293 L46.707,0.871 L53.168,0.871 L53.168,2.449 L48.574,2.449 L48.574,5.558 L52.879,5.558 L52.879,7.12 L48.574,7.12 L48.574,10.706 L53.168,10.706 L53.168,12.293 L53.168,12.293 Z" id="Shape"></path>
                    <path d="M57.504,7.73 L57.504,12.292 L55.637,12.292 L55.637,0.87 L58.864,0.87 C60.338,0.87 61.428,1.146 62.137,1.698 C62.845,2.25 63.199,3.084 63.199,4.198 C63.199,5.62 62.459,6.633 60.98,7.237 L64.207,12.292 L62.082,12.292 L59.348,7.73 L57.504,7.73 L57.504,7.73 Z M57.504,6.184 L58.801,6.184 C59.67,6.184 60.301,6.023 60.692,5.7 C61.083,5.377 61.278,4.898 61.278,4.262 C61.278,3.616 61.067,3.153 60.645,2.871 C60.223,2.589 59.587,2.449 58.739,2.449 L57.505,2.449 L57.505,6.184 L57.504,6.184 Z" id="Shape"></path>
                    <path d="M71.887,7.73 L71.887,12.292 L70.02,12.292 L70.02,0.87 L73.247,0.87 C74.721,0.87 75.811,1.146 76.52,1.698 C77.228,2.25 77.582,3.084 77.582,4.198 C77.582,5.62 76.842,6.633 75.363,7.237 L78.59,12.292 L76.465,12.292 L73.731,7.73 L71.887,7.73 L71.887,7.73 Z M71.887,6.184 L73.184,6.184 C74.053,6.184 74.684,6.023 75.075,5.7 C75.466,5.377 75.661,4.898 75.661,4.262 C75.661,3.616 75.45,3.153 75.028,2.871 C74.606,2.589 73.97,2.449 73.122,2.449 L71.888,2.449 L71.888,6.184 L71.887,6.184 Z" id="Shape"></path>
                    <path d="M86.707,12.293 L80.246,12.293 L80.246,0.871 L86.707,0.871 L86.707,2.449 L82.113,2.449 L82.113,5.558 L86.418,5.558 L86.418,7.12 L82.113,7.12 L82.113,10.706 L86.707,10.706 L86.707,12.293 L86.707,12.293 Z" id="Shape"></path>
                    <path d="M93.121,12.293 L91.254,12.293 L91.254,2.473 L87.895,2.473 L87.895,0.871 L96.481,0.871 L96.481,2.473 L93.122,2.473 L93.122,12.293 L93.121,12.293 Z" id="Shape"></path>
                    <path d="M105.316,12.293 L104.175,9.121 L99.808,9.121 L98.691,12.293 L96.722,12.293 L100.995,0.824 L103.026,0.824 L107.299,12.293 L105.316,12.293 L105.316,12.293 Z M103.684,7.512 L102.614,4.403 C102.536,4.195 102.427,3.867 102.29,3.419 C102.151,2.971 102.057,2.643 102.005,2.435 C101.864,3.076 101.658,3.776 101.388,4.537 L100.357,7.514 L103.684,7.514 L103.684,7.512 Z" id="Shape"></path>
                    <path d="M108.809,12.293 L108.809,0.871 L110.676,0.871 L110.676,12.293 L108.809,12.293 L108.809,12.293 Z" id="Shape"></path>
                    <path d="M113.691,12.293 L113.691,0.871 L115.558,0.871 L115.558,10.691 L120.394,10.691 L120.394,12.293 L113.691,12.293 L113.691,12.293 Z" id="Shape"></path>
                </g>
            </g>
        </g>
    </g>
</svg>