<?xml version="1.0" encoding="UTF-8" standalone="no"?>
<svg width="800px" height="115px" viewBox="0 0 800 115" version="1.1" xmlns="http://www.w3.org/2000/svg" xmlns:xlink="http://www.w3.org/1999/xlink">
    <!-- Generator: Sketch 3.6.1 (26313) - http://www.bohemiancoding.com/sketch -->
    <title>Downtown_Infill</title>
    <desc>Created with Sketch.</desc>
    <defs>
        <linearGradient x1="0%" y1="50.0364065%" x2="100%" y2="50%" id="linearGradient-1">
            <stop stop-color="#26B99A" stop-opacity="0.2" offset="0%"></stop>
            <stop stop-color="#1FB092" stop-opacity="0.5852" offset="48.15%"></stop>
            <stop stop-color="#14A085" offset="100%"></stop>
        </linearGradient>
    </defs>
    <g id="Page-1" stroke="none" stroke-width="1" fill="none" fill-rule="evenodd">
        <g id="Downtown_Infill">
            <g id="Group" transform="translate(104.000000, 100.000000)" fill="url(#linearGradient-1)">
                <rect id="Rectangle-path" x="0.917" y="0.651818182" width="590.167" height="13.6363636"></rect>
            </g>
            <text id="no-infill" font-family="OpenSans-Semibold, Open Sans" font-size="14" font-weight="500" letter-spacing="0.5" fill="#16A085">
                <tspan x="32" y="112">no infill</tspan>
            </text>
            <text id="all-infill" font-family="OpenSans-Semibold, Open Sans" font-size="14" font-weight="500" letter-spacing="0.5" fill="#16A085">
                <tspan x="714.349609" y="112">all infill</tspan>
            </text>
            <rect id="Rectangle-path" fill="#000000" x="653" y="15" width="4" height="75.515"></rect>
            <rect id="Rectangle-3" fill="#000000" x="595" y="1" width="120" height="31" rx="3"></rect>
            <g id="Group-6" transform="translate(606.000000, 10.000000)" fill="#FFFFFF">
                <g id="Shape">
                    <path d="M9.473,6.172 C9.473,8.058 8.95,9.499 7.903,10.496 C6.856,11.493 5.348,11.992 3.38,11.992 L0.185,11.992 L0.185,0.57 L3.716,0.57 C5.533,0.57 6.947,1.059 7.958,2.039 C8.967,3.019 9.473,4.396 9.473,6.172 L9.473,6.172 L9.473,6.172 Z M7.504,6.234 C7.504,3.5 6.225,2.132 3.668,2.132 L2.051,2.132 L2.051,10.421 L3.379,10.421 C6.129,10.422 7.504,9.026 7.504,6.234 L7.504,6.234 L7.504,6.234 Z"></path>
                    <path d="M22.066,6.266 C22.066,8.125 21.601,9.571 20.671,10.602 C19.741,11.633 18.425,12.149 16.722,12.149 C14.997,12.149 13.673,11.637 12.749,10.614 C11.824,9.591 11.362,8.136 11.362,6.251 C11.362,4.366 11.827,2.918 12.757,1.907 C13.687,0.896 15.013,0.391 16.737,0.391 C18.434,0.391 19.747,0.904 20.675,1.93 C21.603,2.956 22.066,4.401 22.066,6.266 L22.066,6.266 L22.066,6.266 Z M13.348,6.266 C13.348,7.672 13.631,8.739 14.2,9.465 C14.767,10.192 15.608,10.555 16.723,10.555 C17.832,10.555 18.669,10.196 19.235,9.477 C19.799,8.758 20.083,7.688 20.083,6.266 C20.083,4.865 19.803,3.802 19.243,3.078 C18.682,2.354 17.848,1.992 16.739,1.992 C15.619,1.992 14.774,2.354 14.204,3.078 C13.634,3.802 13.348,4.864 13.348,6.266 L13.348,6.266 L13.348,6.266 Z"></path>
                    <path d="M35.059,11.992 L33.028,11.992 L31.09,5.18 C31.006,4.883 30.902,4.454 30.778,3.895 C30.654,3.336 30.577,2.946 30.551,2.727 C30.498,3.06 30.414,3.493 30.297,4.024 C30.18,4.555 30.082,4.951 30.004,5.212 L28.113,11.993 L26.082,11.993 L24.605,6.274 L23.105,0.571 L25.011,0.571 L26.644,7.227 C26.899,8.294 27.082,9.238 27.191,10.055 C27.248,9.613 27.334,9.117 27.449,8.571 C27.563,8.024 27.668,7.582 27.761,7.243 L29.62,0.571 L31.472,0.571 L33.378,7.274 C33.56,7.894 33.753,8.821 33.956,10.055 C34.034,9.31 34.222,8.363 34.518,7.211 L36.143,0.57 L38.034,0.57 L35.059,11.992 L35.059,11.992 L35.059,11.992 Z"></path>
                    <path d="M49.168,11.992 L46.879,11.992 L41.262,2.89 L41.2,2.89 L41.239,3.398 C41.311,4.367 41.348,5.252 41.348,6.054 L41.348,11.992 L39.653,11.992 L39.653,0.57 L41.919,0.57 L47.521,9.625 L47.568,9.625 C47.557,9.505 47.537,9.069 47.506,8.316 C47.475,7.563 47.459,6.976 47.459,6.554 L47.459,0.57 L49.17,0.57 L49.17,11.992 L49.168,11.992 L49.168,11.992 Z"></path>
                    <path d="M56.129,11.992 L54.262,11.992 L54.262,2.172 L50.903,2.172 L50.903,0.57 L59.489,0.57 L59.489,2.172 L56.13,2.172 L56.13,11.992 L56.129,11.992 L56.129,11.992 Z"></path>
                    <path d="M71.379,6.266 C71.379,8.125 70.914,9.571 69.984,10.602 C69.054,11.633 67.738,12.149 66.035,12.149 C64.31,12.149 62.986,11.637 62.062,10.614 C61.137,9.591 60.675,8.136 60.675,6.251 C60.675,4.366 61.14,2.918 62.07,1.907 C63,0.896 64.326,0.391 66.05,0.391 C67.747,0.391 69.06,0.904 69.988,1.93 C70.915,2.956 71.379,4.401 71.379,6.266 L71.379,6.266 L71.379,6.266 Z M62.66,6.266 C62.66,7.672 62.943,8.739 63.512,9.465 C64.079,10.192 64.92,10.555 66.035,10.555 C67.144,10.555 67.981,10.196 68.547,9.477 C69.111,8.758 69.395,7.688 69.395,6.266 C69.395,4.865 69.115,3.802 68.555,3.078 C67.994,2.354 67.16,1.992 66.051,1.992 C64.931,1.992 64.086,2.354 63.516,3.078 C62.946,3.802 62.66,4.864 62.66,6.266 L62.66,6.266 L62.66,6.266 Z"></path>
                    <path d="M84.371,11.992 L82.34,11.992 L80.402,5.18 C80.318,4.883 80.214,4.454 80.09,3.895 C79.966,3.336 79.889,2.946 79.863,2.727 C79.81,3.06 79.726,3.493 79.609,4.024 C79.492,4.555 79.394,4.951 79.316,5.212 L77.425,11.993 L75.394,11.993 L73.917,6.274 L72.417,0.571 L74.323,0.571 L75.956,7.227 C76.211,8.294 76.394,9.238 76.503,10.055 C76.56,9.613 76.646,9.117 76.761,8.571 C76.875,8.024 76.98,7.582 77.073,7.243 L78.932,0.571 L80.784,0.571 L82.69,7.274 C82.872,7.894 83.065,8.821 83.268,10.055 C83.346,9.31 83.534,8.363 83.83,7.211 L85.455,0.57 L87.346,0.57 L84.371,11.992 L84.371,11.992 L84.371,11.992 Z"></path>
                    <path d="M98.48,11.992 L96.191,11.992 L90.574,2.89 L90.512,2.89 L90.551,3.398 C90.623,4.367 90.66,5.252 90.66,6.054 L90.66,11.992 L88.965,11.992 L88.965,0.57 L91.231,0.57 L96.833,9.625 L96.88,9.625 C96.869,9.505 96.849,9.069 96.818,8.316 C96.787,7.563 96.771,6.976 96.771,6.554 L96.771,0.57 L98.482,0.57 L98.482,11.992 L98.48,11.992 L98.48,11.992 Z"></path>
                </g>
            </g>
            <path d="M654.832,97.39 L657.332,93.759 L659.832,90.128 L654.832,90.128 L649.832,90.128 L652.332,93.759 L654.832,97.39 L654.832,97.39 Z" id="Shape" fill="#000000"></path>
            <g id="Group-7" transform="translate(159.000000, 60.000000)">
                <g id="Group-5" transform="translate(0.000000, 8.000000)">
                    <g id="Group-2" transform="translate(3.500000, 15.000000) scale(-1, 1) translate(-3.500000, -15.000000) ">
                        <path d="M4.146,26.192 L4.146,0.996 L0.163279585,0.996" id="Shape" stroke="#797A72"></path>
                        <path d="M4.146,29.996 L1.504,25.418 L6.789,25.418 L4.146,29.996 Z" id="Shape" fill="#797A72"></path>
                    </g>
                </g>
                <text id="suburb" font-family="OpenSans, Open Sans" font-size="14" font-weight="normal" line-spacing="13" letter-spacing="0.5" fill="#4A4A4A">
                    <tspan x="12" y="15">suburb</tspan>
                </text>
            </g>
            <g id="Group-3" transform="translate(479.000000, 23.000000)">
                <path d="M118.146,71.192 L118.146,15.996 L114.16328,15.996" id="Shape" stroke="#797A72"></path>
                <path d="M118.146,74.996 L115.504,70.418 L120.789,70.418 L118.146,74.996 Z" id="Shape" fill="#797A72"></path>
                <text id="neighbourhood" font-family="OpenSans, Open Sans" font-size="14" font-weight="normal" line-spacing="13" letter-spacing="0.5" fill="#4A4A4A">
                    <tspan x="0" y="15">neighbourhood</tspan>
                    <tspan x="63.8339844" y="28">centre</tspan>
                </text>
            </g>
            <g id="Group-3" transform="translate(450.000000, 53.000000)">
                <g id="Group-2" transform="translate(51.000000, 15.000000)">
                    <path d="M4.146,26.192 L4.146,0.996 L0.163279585,0.996" id="Shape" stroke="#797A72"></path>
                    <path d="M4.146,29.996 L1.504,25.418 L6.789,25.418 L4.146,29.996 Z" id="Shape" fill="#797A72"></path>
                </g>
                <text id="corner" font-family="OpenSans, Open Sans" font-size="14" font-weight="normal" line-spacing="13" letter-spacing="0.5" fill="#4A4A4A">
                    <tspan x="0" y="15">corner</tspan>
                    <tspan x="9.8984375" y="28">retail</tspan>
                </text>
            </g>
        </g>
    </g>
</svg>