<?xml version="1.0" encoding="UTF-8" standalone="no"?>
<svg width="800px" height="115px" viewBox="0 0 800 115" version="1.1" xmlns="http://www.w3.org/2000/svg" xmlns:xlink="http://www.w3.org/1999/xlink">
    <!-- Generator: Sketch 3.6.1 (26313) - http://www.bohemiancoding.com/sketch -->
    <title>NC_Diversity</title>
    <desc>Created with Sketch.</desc>
    <defs>
        <linearGradient x1="0%" y1="50.0364065%" x2="100%" y2="50%" id="linearGradient-1">
            <stop stop-color="#26B99A" stop-opacity="0.2" offset="0%"></stop>
            <stop stop-color="#1FB092" stop-opacity="0.5852" offset="48.15%"></stop>
            <stop stop-color="#14A085" offset="100%"></stop>
        </linearGradient>
    </defs>
    <g id="Page-1" stroke="none" stroke-width="1" fill="none" fill-rule="evenodd">
        <g id="NC_Diversity">
            <g id="Group-7-Copy" transform="translate(186.000000, 59.000000)">
                <g id="Group-5" transform="translate(76.000000, 8.000000)">
                    <g id="Group-2" transform="translate(4.000000, 15.000000) scale(-1, 1) translate(-4.000000, -15.000000) ">
                        <path d="M7.146,26.192 L7.146,0.996 L3.16327959,0.996" id="Shape" stroke="#797A72" transform="translate(5.154640, 13.594000) scale(-1, 1) translate(-5.154640, -13.594000) "></path>
                        <path d="M3.146,29.996 L0.504,25.418 L5.789,25.418 L3.146,29.996 Z" id="Shape" fill="#797A72"></path>
                    </g>
                </g>
                <text id="downtown" font-family="OpenSans, Open Sans" font-size="14" font-weight="normal" line-spacing="13" letter-spacing="0.5" fill="#4A4A4A">
                    <tspan x="0" y="15">downtown</tspan>
                </text>
            </g>
            <g id="Group-3" transform="translate(336.000000, 53.000000)">
                <g id="Group-2" transform="translate(51.000000, 15.000000)">
                    <path d="M4.146,26.192 L4.146,0.996 L0.163279585,0.996" id="Shape" stroke="#797A72"></path>
                    <path d="M4.146,29.996 L1.504,25.418 L6.789,25.418 L4.146,29.996 Z" id="Shape" fill="#797A72"></path>
                </g>
                <text id="corner" font-family="OpenSans, Open Sans" font-size="14" font-weight="normal" line-spacing="13" letter-spacing="0.5" fill="#4A4A4A">
                    <tspan x="0" y="15">corner</tspan>
                    <tspan x="9.8984375" y="28">retail</tspan>
                </text>
            </g>
            <g id="Group" transform="translate(100.000000, 100.000000)" fill="url(#linearGradient-1)">
                <rect id="Rectangle-path" x="0.917" y="0.651818182" width="590.167" height="13.6363636"></rect>
            </g>
            <rect id="Rectangle-3" fill="#000000" x="553" y="1" width="231" height="31" rx="3"></rect>
            <g id="Group-7" transform="translate(661.000000, 14.000000)" fill="#000000">
                <rect id="Rectangle-path" x="3.832" y="0.981" width="4" height="75.515"></rect>
                <path d="M5.832,83.39 L8.332,79.759 L10.832,76.128 L5.832,76.128 L0.832,76.128 L3.332,79.759 L5.832,83.39 L5.832,83.39 Z" id="Shape"></path>
            </g>
            <text id="NEIGHBOURHOOD-CENTRE" font-family="OpenSans-Semibold, Open Sans" font-size="16" font-weight="500" fill="#FFFFFF">
                <tspan x="564.425781" y="23">NEIGHBOURHOOD CENTRE</tspan>
            </text>
            <text id="less-diversity" font-family="OpenSans-Semibold, Open Sans" font-size="14" font-weight="500" letter-spacing="0.5" fill="#16A085">
                <tspan x="3" y="112">less diversity</tspan>
            </text>
            <text id="more-diversity" font-family="OpenSans-Semibold, Open Sans" font-size="14" font-weight="500" letter-spacing="0.5" fill="#16A085">
                <tspan x="695.65625" y="112">more diversity</tspan>
            </text>
            <g id="Group-7" transform="translate(105.000000, 60.000000)">
                <g id="Group-5" transform="translate(52.000000, 8.000000)">
                    <g id="Group-2" transform="translate(4.000000, 15.000000) scale(-1, 1) translate(-4.000000, -15.000000) ">
                        <path d="M7.146,26.192 L7.146,0.996 L3.16327959,0.996" id="Shape" stroke="#797A72" transform="translate(5.154640, 13.594000) scale(-1, 1) translate(-5.154640, -13.594000) "></path>
                        <path d="M3.146,29.996 L0.504,25.418 L5.789,25.418 L3.146,29.996 Z" id="Shape" fill="#797A72"></path>
                    </g>
                </g>
                <text id="suburb" font-family="OpenSans, Open Sans" font-size="14" font-weight="normal" line-spacing="13" letter-spacing="0.5" fill="#4A4A4A">
                    <tspan x="0" y="15">suburb</tspan>
                </text>
            </g>
        </g>
    </g>
</svg>