<?xml version="1.0" encoding="UTF-8" standalone="no"?>
<svg width="800px" height="115px" viewBox="0 0 810 120" version="1.1" xmlns="http://www.w3.org/2000/svg" xmlns:xlink="http://www.w3.org/1999/xlink">
    <!-- Generator: Sketch 3.6.1 (26313) - http://www.bohemiancoding.com/sketch -->
    <title>Suburbs_Services</title>
    <desc>Created with Sketch.</desc>
    <defs>
        <linearGradient x1="0%" y1="50.0364065%" x2="100%" y2="50%" id="linearGradient-1">
            <stop stop-color="#26B99A" stop-opacity="0.2" offset="0%"></stop>
            <stop stop-color="#1FB092" stop-opacity="0.5852" offset="48.15%"></stop>
            <stop stop-color="#14A085" offset="100%"></stop>
        </linearGradient>
    </defs>
    <g id="Page-1" stroke="none" stroke-width="1" fill="none" fill-rule="evenodd">
        <g id="Suburbs_Services">
            <g id="Group" transform="translate(104.000000, 100.000000)" fill="url(#linearGradient-1)">
                <rect id="Rectangle-path" x="0.917" y="0.651818182" width="590.167" height="13.6363636"></rect>
            </g>
            <text id="less-services" font-family="Open Sans" font-size="14" font-weight="500" letter-spacing="0.5" fill="#16A085">
                <tspan x="12" y="112">less services</tspan>
            </text>
            <text id="more-services" font-family="Open Sans" font-size="14" font-weight="500" letter-spacing="0.5" fill="#16A085">
                <tspan x="699.977539" y="112">more services</tspan>
            </text>
            <g id="Group-6" transform="translate(117.000000, 2.000000)">
                <rect id="Rectangle-3" fill="#000000" x="0" y="0" width="84" height="31" rx="3"></rect>
                <rect id="Rectangle-path" fill="#000000" x="40" y="14" width="4" height="75.515"></rect>
                <g id="Group-7" transform="translate(10.000000, 9.000000)" fill="#FFFFFF">
                    <path d="M8.208,9.192 C8.208,10.208 7.841,11.004 7.106,11.583 C6.371,12.162 5.358,12.45 4.067,12.45 C2.776,12.45 1.718,12.25 0.895,11.848 L0.895,10.082 C1.416,10.327 1.969,10.52 2.555,10.66 C3.141,10.8 3.686,10.871 4.192,10.871 C4.932,10.871 5.477,10.73 5.829,10.449 C6.181,10.168 6.356,9.79 6.356,9.316 C6.356,8.889 6.194,8.527 5.872,8.23 C5.55,7.933 4.882,7.582 3.872,7.175 C2.83,6.753 2.096,6.272 1.669,5.73 C1.242,5.188 1.028,4.538 1.028,3.777 C1.028,2.824 1.366,2.074 2.044,1.527 C2.722,0.98 3.63,0.707 4.771,0.707 C5.865,0.707 6.953,0.946 8.037,1.426 L7.443,2.949 C6.427,2.522 5.521,2.308 4.724,2.308 C4.12,2.308 3.662,2.44 3.349,2.703 C3.036,2.966 2.88,3.313 2.88,3.746 C2.88,4.043 2.942,4.297 3.068,4.508 C3.194,4.719 3.399,4.918 3.685,5.106 C3.971,5.294 4.487,5.541 5.232,5.848 C6.07,6.197 6.685,6.523 7.076,6.825 C7.467,7.127 7.753,7.469 7.935,7.848 C8.117,8.227 8.208,8.676 8.208,9.192 L8.208,9.192 Z" id="Shape"></path>
                    <path d="M19.372,0.872 L19.372,8.263 C19.372,9.107 19.191,9.845 18.829,10.478 C18.467,11.111 17.944,11.598 17.259,11.939 C16.574,12.28 15.755,12.451 14.802,12.451 C13.385,12.451 12.284,12.076 11.497,11.326 C10.71,10.576 10.317,9.545 10.317,8.232 L10.317,0.873 L12.192,0.873 L12.192,8.1 C12.192,9.042 12.411,9.738 12.848,10.186 C13.285,10.634 13.957,10.858 14.864,10.858 C16.624,10.858 17.505,9.933 17.505,8.085 L17.505,0.874 L19.372,0.874 L19.372,0.872 Z" id="Shape"></path>
                    <path d="M22.293,0.872 L25.684,0.872 C27.257,0.872 28.393,1.101 29.094,1.56 C29.795,2.019 30.145,2.743 30.145,3.732 C30.145,4.399 29.973,4.954 29.629,5.396 C29.285,5.838 28.791,6.118 28.145,6.232 L28.145,6.31 C28.947,6.461 29.537,6.759 29.915,7.205 C30.293,7.651 30.481,8.253 30.481,9.014 C30.481,10.04 30.123,10.843 29.407,11.424 C28.691,12.005 27.695,12.295 26.419,12.295 L22.294,12.295 L22.294,0.872 L22.293,0.872 Z M24.161,5.59 L25.958,5.59 C26.739,5.59 27.31,5.466 27.669,5.219 C28.028,4.972 28.208,4.551 28.208,3.957 C28.208,3.421 28.014,3.032 27.626,2.793 C27.238,2.554 26.622,2.434 25.778,2.434 L24.161,2.434 L24.161,5.59 L24.161,5.59 Z M24.161,7.106 L24.161,10.723 L26.145,10.723 C26.926,10.723 27.516,10.574 27.915,10.274 C28.314,9.974 28.513,9.502 28.513,8.856 C28.513,8.262 28.31,7.822 27.904,7.536 C27.498,7.25 26.881,7.106 26.052,7.106 L24.161,7.106 L24.161,7.106 Z" id="Shape"></path>
                    <path d="M41.809,0.872 L41.809,8.263 C41.809,9.107 41.628,9.845 41.266,10.478 C40.904,11.111 40.381,11.598 39.696,11.939 C39.011,12.28 38.192,12.451 37.239,12.451 C35.822,12.451 34.721,12.076 33.934,11.326 C33.147,10.576 32.754,9.545 32.754,8.232 L32.754,0.873 L34.629,0.873 L34.629,8.1 C34.629,9.042 34.848,9.738 35.285,10.186 C35.722,10.634 36.394,10.858 37.301,10.858 C39.061,10.858 39.942,9.933 39.942,8.085 L39.942,0.874 L41.809,0.874 L41.809,0.872 Z" id="Shape"></path>
                    <path d="M46.598,7.731 L46.598,12.293 L44.731,12.293 L44.731,0.871 L47.958,0.871 C49.432,0.871 50.523,1.147 51.231,1.699 C51.939,2.251 52.293,3.085 52.293,4.199 C52.293,5.621 51.553,6.634 50.074,7.238 L53.301,12.293 L51.176,12.293 L48.442,7.731 L46.598,7.731 L46.598,7.731 Z M46.598,6.184 L47.895,6.184 C48.765,6.184 49.395,6.023 49.786,5.7 C50.177,5.377 50.372,4.898 50.372,4.262 C50.372,3.616 50.161,3.153 49.739,2.871 C49.317,2.589 48.682,2.449 47.833,2.449 L46.599,2.449 L46.599,6.184 L46.598,6.184 Z" id="Shape"></path>
                    <path d="M54.958,0.872 L58.349,0.872 C59.922,0.872 61.058,1.101 61.759,1.56 C62.46,2.019 62.81,2.743 62.81,3.732 C62.81,4.399 62.638,4.954 62.294,5.396 C61.95,5.838 61.456,6.118 60.81,6.232 L60.81,6.31 C61.612,6.461 62.202,6.759 62.58,7.205 C62.958,7.651 63.146,8.253 63.146,9.014 C63.146,10.04 62.788,10.843 62.072,11.424 C61.356,12.005 60.36,12.295 59.084,12.295 L54.959,12.295 L54.959,0.872 L54.958,0.872 Z M56.825,5.59 L58.622,5.59 C59.403,5.59 59.974,5.466 60.333,5.219 C60.692,4.972 60.872,4.551 60.872,3.957 C60.872,3.421 60.678,3.032 60.29,2.793 C59.902,2.554 59.286,2.434 58.442,2.434 L56.825,2.434 L56.825,5.59 L56.825,5.59 Z M56.825,7.106 L56.825,10.723 L58.809,10.723 C59.59,10.723 60.18,10.574 60.579,10.274 C60.978,9.974 61.177,9.502 61.177,8.856 C61.177,8.262 60.974,7.822 60.568,7.536 C60.162,7.25 59.545,7.106 58.716,7.106 L56.825,7.106 L56.825,7.106 Z" id="Shape"></path>
                </g>
                <path d="M42,96.262 L44.5,92.631 L47,89 L42,89 L37,89 L39.5,92.631 L42,96.262 L42,96.262 Z" id="Shape" fill="#000000"></path>
            </g>
            <g id="Group-4" transform="translate(272.000000, 52.000000)">
                <text id="corner" font-family="OpenSans, Open Sans" font-size="14" font-weight="normal" line-spacing="13" letter-spacing="0.5" fill="#4A4A4A">
                    <tspan x="12" y="15">corner</tspan>
                    <tspan x="12" y="28">retail</tspan>
                </text>
                <g id="Group-2" transform="translate(3.500000, 30.000000) scale(-1, 1) translate(-3.500000, -30.000000) translate(0.000000, 15.000000)">
                    <path d="M4.146,26.192 L4.146,0.996 L0.163279585,0.996" id="Shape" stroke="#797A72"></path>
                    <path d="M4.146,29.996 L1.504,25.418 L6.789,25.418 L4.146,29.996 Z" id="Shape" fill="#797A72"></path>
                </g>
            </g>
            <g id="Group-7-Copy" transform="translate(653.000000, 58.000000)">
                <g id="Group-5" transform="translate(0.000000, 8.000000)">
                    <g id="Group-2" transform="translate(3.500000, 15.000000) scale(-1, 1) translate(-3.500000, -15.000000) ">
                        <path d="M4.146,26.192 L4.146,0.996 L0.163279585,0.996" id="Shape" stroke="#797A72"></path>
                        <path d="M4.146,29.996 L1.504,25.418 L6.789,25.418 L4.146,29.996 Z" id="Shape" fill="#797A72"></path>
                    </g>
                </g>
                <text id="downtown" font-family="OpenSans, Open Sans" font-size="14" font-weight="normal" line-spacing="13" letter-spacing="0.5" fill="#4A4A4A">
                    <tspan x="12" y="15">downtown</tspan>
                </text>
            </g>
            <g id="Group-3" transform="translate(490.000000, 52.000000)">
                <g id="Group-2" transform="translate(114.000000, 15.000000)">
                    <path d="M4.146,26.192 L4.146,0.996 L0.163279585,0.996" id="Shape" stroke="#797A72"></path>
                    <path d="M4.146,29.996 L1.504,25.418 L6.789,25.418 L4.146,29.996 Z" id="Shape" fill="#797A72"></path>
                </g>
                <text id="neighbourhood" font-family="OpenSans, Open Sans" font-size="14" font-weight="normal" line-spacing="13" letter-spacing="0.5" fill="#4A4A4A">
                    <tspan x="0" y="15">neighbourhood</tspan>
                    <tspan x="63.8339844" y="28">centre</tspan>
                </text>
            </g>
        </g>
    </g>
</svg>