<?xml version="1.0" encoding="UTF-8" standalone="no"?>
<svg width="784px" height="95px" viewBox="0 0 784 95" version="1.1" xmlns="http://www.w3.org/2000/svg" xmlns:xlink="http://www.w3.org/1999/xlink" xmlns:sketch="http://www.bohemiancoding.com/sketch/ns">
    <!-- Generator: Sketch 3.5.2 (25235) - http://www.bohemiancoding.com/sketch -->
    <title>Group 11</title>
    <desc>Created with Sketch.</desc>
    <defs>
        <linearGradient x1="-5.77904111e-14%" y1="50.005%" x2="99.9999153%" y2="50.006%" id="linearGradient-1">
            <stop stop-color="#26B99A" stop-opacity="0.2" offset="0%"></stop>
            <stop stop-color="#1FB092" stop-opacity="0.5852" offset="48.15%"></stop>
            <stop stop-color="#14A085" offset="100%"></stop>
        </linearGradient>
        <linearGradient x1="100%" y1="50%" x2="9.61544246e-14%" y2="50%" id="linearGradient-2">
            <stop stop-color="#14A085" offset="0%"></stop>
            <stop stop-color="#26B99A" stop-opacity="0.3" offset="100%"></stop>
        </linearGradient>
    </defs>
    <g id="Set-Priorities" stroke="none" stroke-width="1" fill="none" fill-rule="evenodd" sketch:type="MSPage">
        <g id="Priority-2" sketch:type="MSArtboardGroup" transform="translate(-332.000000, -442.000000)">
            <g id="Group-11" sketch:type="MSLayerGroup" transform="translate(332.000000, 442.000000)">
                <g id="Group" sketch:type="MSShapeGroup">
                    <g transform="translate(94.000000, 83.000000)">
                        <rect id="Rectangle-path" fill="url(#linearGradient-1)" x="0.918" y="0.978" width="590.168" height="10"></rect>
                        <path d="M591.586,11.478 L0.418,11.478 L0.418,0.478 L591.586,0.478 L591.586,11.478 L591.586,11.478 Z M1.418,10.478 L590.586,10.478 L590.586,1.478 L1.418,1.478 L1.418,10.478 L1.418,10.478 Z" id="Shape" fill="url(#linearGradient-2)"></path>
                    </g>
                    <g transform="translate(0.000000, 83.000000)" id="Shape" fill="#14A085">
                        <path d="M0.735,10.094 L0.106,10.094 L0.106,0.217 L0.735,0.217 L0.735,10.094 L0.735,10.094 Z"></path>
                        <path d="M6.353,10.221 C5.35,10.221 4.568,9.912 4.007,9.294 C3.446,8.676 3.166,7.811 3.166,6.697 C3.166,5.597 3.437,4.716 3.978,4.053 C4.519,3.391 5.249,3.06 6.167,3.06 C6.979,3.06 7.621,3.343 8.091,3.911 C8.561,4.479 8.795,5.248 8.795,6.222 L8.795,6.73 L3.825,6.73 C3.833,7.678 4.054,8.402 4.488,8.901 C4.922,9.4 5.543,9.65 6.351,9.65 C6.745,9.65 7.09,9.623 7.388,9.567 C7.687,9.512 8.065,9.394 8.522,9.212 L8.522,9.784 C8.132,9.953 7.773,10.068 7.443,10.13 C7.113,10.192 6.75,10.221 6.353,10.221 L6.353,10.221 Z M6.168,3.62 C5.504,3.62 4.971,3.839 4.568,4.277 C4.166,4.715 3.931,5.346 3.864,6.172 L8.13,6.172 C8.13,5.372 7.956,4.747 7.609,4.296 C7.262,3.845 6.781,3.62 6.168,3.62 L6.168,3.62 Z"></path>
                        <path d="M15.499,8.297 C15.499,8.915 15.264,9.391 14.794,9.723 C14.324,10.055 13.658,10.221 12.795,10.221 C11.872,10.221 11.14,10.079 10.599,9.795 L10.599,9.116 C11.292,9.463 12.025,9.637 12.795,9.637 C13.476,9.637 13.993,9.524 14.347,9.297 C14.701,9.07 14.877,8.77 14.877,8.393 C14.877,8.046 14.736,7.754 14.454,7.517 C14.173,7.28 13.711,7.047 13.067,6.819 C12.378,6.569 11.893,6.354 11.614,6.174 C11.335,5.994 11.124,5.791 10.982,5.565 C10.84,5.339 10.769,5.063 10.769,4.737 C10.769,4.22 10.986,3.812 11.419,3.512 C11.854,3.211 12.459,3.061 13.238,3.061 C13.982,3.061 14.689,3.201 15.358,3.48 L15.123,4.051 C14.446,3.772 13.817,3.632 13.238,3.632 C12.675,3.632 12.228,3.725 11.898,3.911 C11.568,4.097 11.403,4.355 11.403,4.685 C11.403,5.044 11.531,5.332 11.787,5.548 C12.044,5.764 12.544,6.005 13.289,6.272 C13.911,6.497 14.363,6.699 14.647,6.878 C14.93,7.058 15.143,7.262 15.285,7.49 C15.427,7.718 15.499,7.989 15.499,8.297 L15.499,8.297 Z"></path>
                        <path d="M22.074,8.297 C22.074,8.915 21.84,9.391 21.37,9.723 C20.9,10.055 20.233,10.221 19.37,10.221 C18.447,10.221 17.716,10.079 17.174,9.795 L17.174,9.116 C17.868,9.463 18.6,9.637 19.37,9.637 C20.052,9.637 20.569,9.524 20.922,9.297 C21.276,9.07 21.452,8.77 21.452,8.393 C21.452,8.046 21.311,7.754 21.03,7.517 C20.749,7.28 20.286,7.047 19.643,6.819 C18.953,6.569 18.468,6.354 18.189,6.174 C17.91,5.994 17.7,5.791 17.557,5.565 C17.415,5.338 17.345,5.063 17.345,4.737 C17.345,4.22 17.562,3.812 17.995,3.512 C18.429,3.211 19.035,3.061 19.813,3.061 C20.558,3.061 21.264,3.201 21.933,3.48 L21.699,4.051 C21.021,3.772 20.393,3.632 19.813,3.632 C19.251,3.632 18.804,3.725 18.474,3.911 C18.144,4.097 17.979,4.355 17.979,4.685 C17.979,5.044 18.107,5.332 18.363,5.548 C18.619,5.764 19.119,6.005 19.864,6.272 C20.486,6.497 20.939,6.699 21.222,6.878 C21.505,7.057 21.718,7.262 21.86,7.49 C22.004,7.72 22.074,7.989 22.074,8.297 L22.074,8.297 Z"></path>
                        <path d="M30.795,3.061 C31.294,3.061 31.726,3.152 32.09,3.334 C32.454,3.516 32.779,3.826 33.068,4.267 L33.106,4.267 C33.081,3.734 33.068,3.211 33.068,2.7 L33.068,0.218 L33.69,0.218 L33.69,10.095 L33.278,10.095 L33.119,9.041 L33.068,9.041 C32.544,9.828 31.79,10.222 30.808,10.222 C29.856,10.222 29.128,9.926 28.624,9.333 C28.12,8.74 27.869,7.877 27.869,6.743 C27.869,5.55 28.118,4.638 28.618,4.007 C29.117,3.376 29.843,3.061 30.795,3.061 L30.795,3.061 Z M30.795,3.632 C30.042,3.632 29.476,3.897 29.097,4.426 C28.718,4.954 28.53,5.723 28.53,6.73 C28.53,8.685 29.289,9.663 30.808,9.663 C31.586,9.663 32.158,9.436 32.522,8.983 C32.886,8.531 33.068,7.784 33.068,6.743 L33.068,6.636 C33.068,5.57 32.889,4.802 32.532,4.334 C32.175,3.866 31.595,3.632 30.795,3.632 L30.795,3.632 Z"></path>
                        <path d="M36.438,1.278 C36.438,0.872 36.572,0.669 36.838,0.669 C36.969,0.669 37.071,0.722 37.146,0.827 C37.221,0.932 37.257,1.083 37.257,1.278 C37.257,1.467 37.22,1.618 37.146,1.728 C37.072,1.838 36.969,1.893 36.838,1.893 C36.571,1.893 36.438,1.688 36.438,1.278 L36.438,1.278 Z M37.155,10.094 L36.526,10.094 L36.526,3.194 L37.155,3.194 L37.155,10.094 L37.155,10.094 Z"></path>
                        <path d="M41.496,10.094 L38.83,3.194 L39.477,3.194 L41.261,7.885 C41.497,8.486 41.675,9.011 41.794,9.459 L41.832,9.459 C42.005,8.884 42.183,8.355 42.365,7.872 L44.148,3.193 L44.795,3.193 L42.129,10.093 L41.496,10.093 L41.496,10.094 Z"></path>
                        <path d="M49.259,10.221 C48.256,10.221 47.474,9.912 46.913,9.294 C46.352,8.676 46.072,7.811 46.072,6.697 C46.072,5.597 46.343,4.716 46.884,4.053 C47.425,3.39 48.155,3.06 49.074,3.06 C49.886,3.06 50.527,3.343 50.997,3.911 C51.467,4.479 51.702,5.248 51.702,6.222 L51.702,6.73 L46.731,6.73 C46.74,7.678 46.96,8.402 47.394,8.901 C47.828,9.4 48.449,9.65 49.257,9.65 C49.651,9.65 49.996,9.623 50.295,9.567 C50.593,9.512 50.971,9.394 51.428,9.212 L51.428,9.784 C51.038,9.953 50.679,10.068 50.349,10.13 C50.019,10.192 49.656,10.221 49.259,10.221 L49.259,10.221 Z M49.075,3.62 C48.41,3.62 47.877,3.839 47.475,4.277 C47.073,4.715 46.837,5.346 46.77,6.172 L51.036,6.172 C51.036,5.372 50.862,4.747 50.515,4.296 C50.169,3.845 49.688,3.62 49.075,3.62 L49.075,3.62 Z"></path>
                        <path d="M56.844,3.061 C57.136,3.061 57.449,3.09 57.783,3.15 L57.663,3.753 C57.375,3.682 57.076,3.646 56.767,3.646 C56.179,3.646 55.697,3.896 55.32,4.395 C54.943,4.894 54.756,5.525 54.756,6.287 L54.756,10.096 L54.127,10.096 L54.127,3.196 L54.66,3.196 L54.723,4.44 L54.768,4.44 C55.051,3.932 55.354,3.576 55.675,3.371 C55.996,3.166 56.387,3.061 56.844,3.061 L56.844,3.061 Z"></path>
                        <path d="M63.984,8.297 C63.984,8.915 63.749,9.391 63.279,9.723 C62.809,10.055 62.143,10.221 61.28,10.221 C60.357,10.221 59.626,10.079 59.084,9.795 L59.084,9.116 C59.778,9.463 60.51,9.637 61.28,9.637 C61.962,9.637 62.478,9.524 62.832,9.297 C63.186,9.07 63.362,8.77 63.362,8.393 C63.362,8.046 63.221,7.754 62.94,7.517 C62.658,7.28 62.196,7.047 61.552,6.819 C60.863,6.569 60.378,6.354 60.099,6.174 C59.82,5.994 59.609,5.791 59.467,5.565 C59.325,5.339 59.254,5.063 59.254,4.737 C59.254,4.22 59.471,3.812 59.905,3.512 C60.339,3.211 60.945,3.061 61.723,3.061 C62.468,3.061 63.174,3.201 63.843,3.48 L63.608,4.051 C62.931,3.772 62.303,3.632 61.723,3.632 C61.161,3.632 60.713,3.725 60.383,3.911 C60.053,4.097 59.888,4.355 59.888,4.685 C59.888,5.044 60.016,5.332 60.273,5.548 C60.529,5.764 61.029,6.005 61.774,6.272 C62.396,6.497 62.849,6.699 63.132,6.878 C63.415,7.057 63.628,7.262 63.77,7.49 C63.912,7.718 63.984,7.989 63.984,8.297 L63.984,8.297 Z"></path>
                        <path d="M69.068,10.221 C68.065,10.221 67.283,9.912 66.722,9.294 C66.161,8.676 65.881,7.811 65.881,6.697 C65.881,5.597 66.152,4.716 66.693,4.053 C67.234,3.39 67.964,3.06 68.882,3.06 C69.694,3.06 70.336,3.343 70.806,3.911 C71.276,4.479 71.51,5.248 71.51,6.222 L71.51,6.73 L66.54,6.73 C66.549,7.678 66.769,8.402 67.203,8.901 C67.637,9.4 68.258,9.65 69.066,9.65 C69.46,9.65 69.805,9.623 70.104,9.567 C70.402,9.512 70.78,9.394 71.237,9.212 L71.237,9.784 C70.847,9.953 70.488,10.068 70.158,10.13 C69.828,10.192 69.466,10.221 69.068,10.221 L69.068,10.221 Z M68.884,3.62 C68.22,3.62 67.687,3.839 67.284,4.277 C66.883,4.715 66.647,5.346 66.58,6.172 L70.846,6.172 C70.846,5.372 70.672,4.747 70.325,4.296 C69.979,3.845 69.498,3.62 68.884,3.62 L68.884,3.62 Z"></path>
                    </g>
                    <g transform="translate(703.000000, 83.000000)" id="Shape" fill="#14A085">
                        <path d="M8.639,10.094 L8.639,5.569 C8.639,4.895 8.508,4.405 8.245,4.096 C7.982,3.786 7.58,3.632 7.039,3.632 C6.332,3.632 5.81,3.826 5.471,4.216 C5.133,4.606 4.963,5.217 4.963,6.051 L4.963,10.094 L4.322,10.094 L4.322,5.377 C4.322,4.214 3.789,3.632 2.722,3.632 C1.998,3.632 1.472,3.843 1.142,4.264 C0.812,4.685 0.646,5.359 0.646,6.285 L0.646,10.094 L0.018,10.094 L0.018,3.194 L0.539,3.194 L0.672,4.14 L0.711,4.14 C0.9,3.797 1.172,3.532 1.523,3.343 C1.874,3.155 2.261,3.061 2.684,3.061 C3.771,3.061 4.47,3.469 4.779,4.286 L4.804,4.286 C5.029,3.893 5.329,3.591 5.708,3.379 C6.087,3.167 6.518,3.062 7,3.062 C7.753,3.062 8.317,3.263 8.694,3.666 C9.071,4.067 9.259,4.707 9.259,5.582 L9.259,10.096 L8.639,10.096 L8.639,10.094 Z"></path>
                        <path d="M17.722,6.635 C17.722,7.76 17.45,8.639 16.903,9.272 C16.358,9.905 15.604,10.221 14.643,10.221 C14.038,10.221 13.504,10.075 13.043,9.783 C12.582,9.49 12.229,9.072 11.983,8.525 C11.738,7.98 11.615,7.349 11.615,6.634 C11.615,5.508 11.888,4.631 12.433,4.002 C12.98,3.374 13.728,3.06 14.681,3.06 C15.628,3.06 16.372,3.378 16.911,4.015 C17.45,4.652 17.722,5.526 17.722,6.635 L17.722,6.635 Z M12.275,6.635 C12.275,7.582 12.483,8.322 12.9,8.853 C13.317,9.384 13.906,9.65 14.668,9.65 C15.43,9.65 16.02,9.384 16.436,8.853 C16.854,8.322 17.062,7.582 17.062,6.635 C17.062,5.682 16.851,4.944 16.43,4.419 C16.009,3.894 15.418,3.632 14.657,3.632 C13.896,3.632 13.307,3.894 12.895,4.416 C12.481,4.939 12.275,5.678 12.275,6.635 L12.275,6.635 Z"></path>
                        <path d="M22.869,3.061 C23.161,3.061 23.474,3.09 23.808,3.15 L23.687,3.753 C23.4,3.682 23.101,3.646 22.792,3.646 C22.204,3.646 21.722,3.896 21.345,4.395 C20.968,4.894 20.781,5.525 20.781,6.287 L20.781,10.096 L20.152,10.096 L20.152,3.196 L20.685,3.196 L20.748,4.44 L20.792,4.44 C21.075,3.932 21.378,3.576 21.7,3.371 C22.022,3.164 22.412,3.061 22.869,3.061 L22.869,3.061 Z"></path>
                        <path d="M28.518,10.221 C27.516,10.221 26.734,9.912 26.172,9.294 C25.611,8.676 25.332,7.811 25.332,6.697 C25.332,5.597 25.602,4.716 26.144,4.053 C26.685,3.391 27.415,3.06 28.333,3.06 C29.145,3.06 29.786,3.343 30.257,3.911 C30.726,4.478 30.961,5.248 30.961,6.222 L30.961,6.73 L25.991,6.73 C25.999,7.678 26.22,8.402 26.653,8.901 C27.088,9.4 27.708,9.65 28.516,9.65 C28.911,9.65 29.256,9.623 29.554,9.567 C29.852,9.512 30.231,9.394 30.688,9.212 L30.688,9.784 C30.297,9.953 29.938,10.068 29.608,10.13 C29.278,10.192 28.916,10.221 28.518,10.221 L28.518,10.221 Z M28.334,3.62 C27.67,3.62 27.137,3.839 26.734,4.277 C26.332,4.715 26.097,5.346 26.029,6.172 L30.295,6.172 C30.295,5.372 30.121,4.747 29.775,4.296 C29.428,3.845 28.947,3.62 28.334,3.62 L28.334,3.62 Z"></path>
                        <path d="M39.81,3.061 C40.309,3.061 40.741,3.152 41.105,3.334 C41.469,3.516 41.794,3.826 42.083,4.267 L42.121,4.267 C42.096,3.734 42.083,3.211 42.083,2.7 L42.083,0.218 L42.705,0.218 L42.705,10.095 L42.292,10.095 L42.134,9.041 L42.083,9.041 C41.558,9.828 40.805,10.222 39.823,10.222 C38.871,10.222 38.143,9.926 37.639,9.333 C37.135,8.74 36.883,7.877 36.883,6.743 C36.883,5.55 37.133,4.638 37.632,4.007 C38.131,3.376 38.857,3.061 39.81,3.061 L39.81,3.061 Z M39.81,3.632 C39.057,3.632 38.491,3.897 38.112,4.426 C37.733,4.954 37.544,5.723 37.544,6.73 C37.544,8.685 38.304,9.663 39.823,9.663 C40.601,9.663 41.173,9.436 41.537,8.983 C41.901,8.531 42.083,7.784 42.083,6.743 L42.083,6.636 C42.083,5.57 41.903,4.802 41.546,4.334 C41.189,3.866 40.609,3.632 39.81,3.632 L39.81,3.632 Z"></path>
                        <path d="M45.452,1.278 C45.452,0.872 45.585,0.669 45.851,0.669 C45.982,0.669 46.085,0.722 46.16,0.827 C46.233,0.932 46.27,1.083 46.27,1.278 C46.27,1.467 46.233,1.618 46.16,1.728 C46.086,1.838 45.982,1.893 45.851,1.893 C45.585,1.893 45.452,1.688 45.452,1.278 L45.452,1.278 Z M46.169,10.094 L45.541,10.094 L45.541,3.194 L46.169,3.194 L46.169,10.094 L46.169,10.094 Z"></path>
                        <path d="M50.511,10.094 L47.845,3.194 L48.492,3.194 L50.275,7.885 C50.512,8.486 50.69,9.011 50.808,9.459 L50.846,9.459 C51.02,8.884 51.198,8.355 51.379,7.872 L53.163,3.193 L53.81,3.193 L51.144,10.093 L50.511,10.093 L50.511,10.094 Z"></path>
                        <path d="M58.273,10.221 C57.27,10.221 56.488,9.912 55.927,9.294 C55.366,8.676 55.086,7.811 55.086,6.697 C55.086,5.597 55.357,4.716 55.898,4.053 C56.439,3.39 57.169,3.06 58.087,3.06 C58.899,3.06 59.541,3.343 60.011,3.911 C60.481,4.479 60.715,5.248 60.715,6.222 L60.715,6.73 L55.745,6.73 C55.754,7.678 55.974,8.402 56.408,8.901 C56.842,9.4 57.463,9.65 58.271,9.65 C58.665,9.65 59.01,9.623 59.308,9.567 C59.607,9.512 59.985,9.394 60.442,9.212 L60.442,9.784 C60.052,9.953 59.693,10.068 59.363,10.13 C59.033,10.192 58.671,10.221 58.273,10.221 L58.273,10.221 Z M58.089,3.62 C57.425,3.62 56.892,3.839 56.489,4.277 C56.088,4.715 55.852,5.346 55.785,6.172 L60.051,6.172 C60.051,5.372 59.877,4.747 59.53,4.296 C59.184,3.845 58.703,3.62 58.089,3.62 L58.089,3.62 Z"></path>
                        <path d="M65.858,3.061 C66.15,3.061 66.462,3.09 66.797,3.15 L66.676,3.753 C66.388,3.682 66.09,3.646 65.781,3.646 C65.192,3.646 64.71,3.896 64.334,4.395 C63.957,4.894 63.769,5.525 63.769,6.287 L63.769,10.096 L63.141,10.096 L63.141,3.196 L63.674,3.196 L63.737,4.44 L63.781,4.44 C64.065,3.932 64.368,3.576 64.689,3.371 C65.01,3.166 65.401,3.061 65.858,3.061 L65.858,3.061 Z"></path>
                        <path d="M72.998,8.297 C72.998,8.915 72.764,9.391 72.294,9.723 C71.824,10.055 71.158,10.221 70.295,10.221 C69.372,10.221 68.64,10.079 68.098,9.795 L68.098,9.116 C68.792,9.463 69.525,9.637 70.295,9.637 C70.976,9.637 71.493,9.524 71.847,9.297 C72.2,9.07 72.377,8.77 72.377,8.393 C72.377,8.046 72.236,7.754 71.955,7.517 C71.673,7.28 71.211,7.047 70.567,6.819 C69.878,6.569 69.392,6.354 69.113,6.174 C68.834,5.994 68.624,5.791 68.482,5.565 C68.339,5.338 68.269,5.063 68.269,4.737 C68.269,4.22 68.486,3.812 68.919,3.512 C69.353,3.211 69.959,3.061 70.737,3.061 C71.482,3.061 72.189,3.201 72.858,3.48 L72.623,4.051 C71.946,3.772 71.317,3.632 70.737,3.632 C70.175,3.632 69.728,3.725 69.398,3.911 C69.068,4.097 68.903,4.355 68.903,4.685 C68.903,5.044 69.031,5.332 69.288,5.548 C69.544,5.764 70.044,6.005 70.788,6.272 C71.411,6.497 71.863,6.699 72.147,6.878 C72.43,7.058 72.643,7.262 72.785,7.49 C72.927,7.718 72.998,7.989 72.998,8.297 L72.998,8.297 Z"></path>
                        <path d="M78.082,10.221 C77.08,10.221 76.298,9.912 75.737,9.294 C75.175,8.676 74.896,7.811 74.896,6.697 C74.896,5.597 75.167,4.716 75.708,4.053 C76.249,3.391 76.979,3.06 77.897,3.06 C78.709,3.06 79.35,3.343 79.821,3.911 C80.29,4.478 80.525,5.248 80.525,6.222 L80.525,6.73 L75.555,6.73 C75.563,7.678 75.784,8.402 76.218,8.901 C76.652,9.4 77.273,9.65 78.08,9.65 C78.475,9.65 78.82,9.623 79.119,9.567 C79.417,9.512 79.795,9.394 80.252,9.212 L80.252,9.784 C79.862,9.953 79.502,10.068 79.172,10.13 C78.842,10.192 78.48,10.221 78.082,10.221 L78.082,10.221 Z M77.898,3.62 C77.234,3.62 76.701,3.839 76.298,4.277 C75.896,4.715 75.661,5.346 75.593,6.172 L79.859,6.172 C79.859,5.372 79.686,4.747 79.339,4.296 C78.992,3.845 78.512,3.62 77.898,3.62 L77.898,3.62 Z"></path>
                    </g>
                    <g transform="translate(557.000000, 42.000000)" id="Shape">
                        <g transform="translate(108.000000, 11.000000)">
                            <path d="M2.669,25.693 L2.669,0.497" stroke="#97998D"></path>
                            <path d="M5.312,24.919 L2.669,29.497 L0.026,24.919 L5.312,24.919 Z" fill="#97998D"></path>
                        </g>
                        <g fill="#797A72">
                            <path d="M5.66,11.356 L5.66,6.537 C5.66,5.79 5.503,5.246 5.188,4.907 C4.874,4.567 4.385,4.397 3.725,4.397 C2.836,4.397 2.185,4.622 1.773,5.071 C1.361,5.519 1.155,6.248 1.155,7.255 L1.155,11.357 L0.478,11.357 L0.478,3.926 L1.052,3.926 L1.182,4.945 L1.223,4.945 C1.705,4.171 2.565,3.783 3.8,3.783 C5.486,3.783 6.329,4.687 6.329,6.497 L6.329,11.357 L5.66,11.357 L5.66,11.356 Z"></path>
                            <path d="M12.297,11.493 C11.217,11.493 10.375,11.16 9.772,10.495 C9.168,9.83 8.866,8.897 8.866,7.699 C8.866,6.514 9.158,5.565 9.741,4.852 C10.325,4.138 11.11,3.782 12.099,3.782 C12.974,3.782 13.664,4.088 14.17,4.698 C14.676,5.308 14.929,6.138 14.929,7.186 L14.929,7.733 L9.576,7.733 C9.586,8.754 9.823,9.533 10.291,10.071 C10.758,10.609 11.427,10.878 12.297,10.878 C12.721,10.878 13.094,10.849 13.415,10.789 C13.736,10.729 14.143,10.602 14.635,10.406 L14.635,11.021 C14.216,11.204 13.828,11.328 13.473,11.393 C13.117,11.459 12.726,11.493 12.297,11.493 L12.297,11.493 Z M12.099,4.383 C11.383,4.383 10.809,4.619 10.376,5.09 C9.943,5.563 9.69,6.242 9.617,7.131 L14.211,7.131 C14.211,6.27 14.024,5.596 13.65,5.111 C13.277,4.625 12.76,4.383 12.099,4.383 L12.099,4.383 Z"></path>
                            <path d="M17.444,1.861 C17.444,1.423 17.588,1.205 17.875,1.205 C18.016,1.205 18.126,1.262 18.206,1.376 C18.286,1.49 18.326,1.651 18.326,1.861 C18.326,2.066 18.286,2.228 18.206,2.346 C18.126,2.464 18.016,2.524 17.875,2.524 C17.588,2.524 17.444,2.303 17.444,1.861 L17.444,1.861 Z M18.217,11.356 L17.54,11.356 L17.54,3.925 L18.217,3.925 L18.217,11.356 L18.217,11.356 Z"></path>
                            <path d="M27.062,3.925 L27.062,4.397 L25.524,4.493 C25.934,5.004 26.139,5.564 26.139,6.175 C26.139,6.891 25.901,7.47 25.425,7.915 C24.948,8.358 24.309,8.581 23.507,8.581 C23.17,8.581 22.933,8.567 22.796,8.54 C22.527,8.682 22.322,8.848 22.181,9.039 C22.04,9.23 21.969,9.434 21.969,9.647 C21.969,9.884 22.059,10.057 22.24,10.167 C22.42,10.276 22.721,10.331 23.145,10.331 L24.444,10.331 C25.251,10.331 25.868,10.494 26.297,10.819 C26.726,11.145 26.94,11.628 26.94,12.265 C26.94,13.049 26.623,13.654 25.987,14.08 C25.351,14.506 24.445,14.719 23.269,14.719 C22.334,14.719 21.612,14.539 21.099,14.179 C20.586,13.819 20.329,13.318 20.329,12.675 C20.329,12.164 20.487,11.74 20.805,11.404 C21.121,11.067 21.551,10.837 22.093,10.714 C21.869,10.618 21.691,10.483 21.557,10.308 C21.422,10.132 21.355,9.93 21.355,9.703 C21.355,9.206 21.671,8.768 22.305,8.391 C21.872,8.213 21.534,7.934 21.293,7.553 C21.052,7.173 20.931,6.737 20.931,6.244 C20.931,5.501 21.167,4.905 21.639,4.457 C22.111,4.008 22.747,3.783 23.549,3.783 C24.036,3.783 24.415,3.831 24.684,3.927 L27.062,3.927 L27.062,3.925 Z M21.046,12.614 C21.046,13.635 21.805,14.145 23.322,14.145 C25.272,14.145 26.248,13.523 26.248,12.279 C26.248,11.833 26.096,11.508 25.79,11.308 C25.484,11.108 24.99,11.007 24.307,11.007 L23.09,11.007 C21.728,11.007 21.046,11.542 21.046,12.614 L21.046,12.614 Z M21.613,6.243 C21.613,6.817 21.788,7.263 22.136,7.579 C22.485,7.896 22.95,8.055 23.533,8.055 C24.153,8.055 24.628,7.898 24.959,7.583 C25.289,7.269 25.454,6.812 25.454,6.216 C25.454,5.582 25.284,5.108 24.945,4.79 C24.605,4.474 24.13,4.315 23.519,4.315 C22.926,4.315 22.46,4.485 22.122,4.825 C21.783,5.164 21.613,5.636 21.613,6.243 L21.613,6.243 Z"></path>
                            <path d="M34.328,11.356 L34.328,6.537 C34.328,5.79 34.17,5.246 33.855,4.907 C33.541,4.567 33.053,4.397 32.392,4.397 C31.503,4.397 30.853,4.622 30.441,5.071 C30.029,5.519 29.822,6.248 29.822,7.255 L29.822,11.357 L29.146,11.357 L29.146,0.72 L29.822,0.72 L29.822,4.104 L29.789,5.054 L29.836,5.054 C30.114,4.608 30.465,4.283 30.889,4.083 C31.313,3.883 31.84,3.782 32.469,3.782 C34.155,3.782 34.998,4.686 34.998,6.496 L34.998,11.356 L34.328,11.356 L34.328,11.356 Z"></path>
                            <path d="M41.102,3.782 C42.141,3.782 42.924,4.109 43.45,4.762 C43.977,5.416 44.24,6.372 44.24,7.63 C44.24,8.865 43.964,9.818 43.409,10.487 C42.856,11.157 42.078,11.492 41.075,11.492 C40.547,11.492 40.07,11.383 39.646,11.164 C39.222,10.945 38.887,10.636 38.641,10.234 L38.579,10.234 L38.388,11.355 L37.964,11.355 L37.964,0.718 L38.641,0.718 L38.641,3.391 C38.641,3.792 38.632,4.162 38.614,4.498 L38.593,5.079 L38.641,5.079 C38.923,4.633 39.264,4.305 39.662,4.095 C40.062,3.886 40.541,3.782 41.102,3.782 L41.102,3.782 Z M41.088,4.397 C40.213,4.397 39.586,4.648 39.208,5.149 C38.83,5.65 38.641,6.477 38.641,7.63 L38.641,7.746 C38.641,8.867 38.838,9.672 39.233,10.159 C39.627,10.646 40.241,10.89 41.075,10.89 C41.887,10.89 42.497,10.607 42.907,10.038 C43.317,9.472 43.522,8.663 43.522,7.615 C43.521,5.47 42.71,4.397 41.088,4.397 L41.088,4.397 Z"></path>
                            <path d="M53.002,7.63 C53.002,8.842 52.708,9.789 52.12,10.471 C51.532,11.152 50.722,11.492 49.686,11.492 C49.035,11.492 48.46,11.335 47.963,11.02 C47.467,10.706 47.086,10.254 46.821,9.666 C46.557,9.078 46.425,8.399 46.425,7.629 C46.425,6.417 46.719,5.472 47.307,4.796 C47.895,4.118 48.702,3.78 49.727,3.78 C50.748,3.78 51.549,4.123 52.13,4.809 C52.712,5.497 53.002,6.436 53.002,7.63 L53.002,7.63 Z M47.137,7.63 C47.137,8.651 47.362,9.447 47.811,10.02 C48.26,10.591 48.894,10.877 49.714,10.877 C50.534,10.877 51.169,10.591 51.618,10.02 C52.066,9.448 52.291,8.651 52.291,7.63 C52.291,6.605 52.064,5.81 51.611,5.244 C51.158,4.678 50.52,4.396 49.7,4.396 C48.88,4.396 48.248,4.677 47.804,5.24 C47.359,5.804 47.137,6.6 47.137,7.63 L47.137,7.63 Z"></path>
                            <path d="M56.208,3.925 L56.208,8.737 C56.208,9.484 56.365,10.028 56.68,10.367 C56.994,10.707 57.482,10.877 58.143,10.877 C59.027,10.877 59.677,10.653 60.094,10.207 C60.511,9.761 60.72,9.033 60.72,8.026 L60.72,3.924 L61.39,3.924 L61.39,11.355 L60.816,11.355 L60.693,10.33 L60.652,10.33 C60.169,11.104 59.309,11.492 58.075,11.492 C56.384,11.492 55.539,10.588 55.539,8.778 L55.539,3.924 L56.208,3.924 L56.208,3.925 Z"></path>
                            <path d="M67.363,3.782 C67.677,3.782 68.015,3.814 68.375,3.878 L68.245,4.527 C67.935,4.45 67.614,4.411 67.281,4.411 C66.648,4.411 66.129,4.68 65.722,5.218 C65.317,5.756 65.114,6.435 65.114,7.255 L65.114,11.357 L64.437,11.357 L64.437,3.926 L65.011,3.926 L65.079,5.266 L65.127,5.266 C65.433,4.719 65.759,4.335 66.105,4.115 C66.452,3.892 66.871,3.782 67.363,3.782 L67.363,3.782 Z"></path>
                            <path d="M75.628,11.356 L75.628,6.537 C75.628,5.79 75.471,5.246 75.156,4.907 C74.842,4.567 74.353,4.397 73.693,4.397 C72.804,4.397 72.154,4.622 71.741,5.071 C71.329,5.519 71.123,6.248 71.123,7.255 L71.123,11.357 L70.446,11.357 L70.446,0.72 L71.123,0.72 L71.123,4.104 L71.089,5.054 L71.137,5.054 C71.414,4.608 71.766,4.283 72.19,4.083 C72.614,3.883 73.14,3.782 73.769,3.782 C75.455,3.782 76.298,4.686 76.298,6.496 L76.298,11.356 L75.628,11.356 L75.628,11.356 Z"></path>
                            <path d="M85.409,7.63 C85.409,8.842 85.115,9.789 84.527,10.471 C83.939,11.152 83.128,11.492 82.093,11.492 C81.442,11.492 80.867,11.335 80.37,11.02 C79.873,10.705 79.493,10.254 79.228,9.666 C78.963,9.078 78.832,8.399 78.832,7.629 C78.832,6.417 79.126,5.472 79.714,4.796 C80.302,4.118 81.109,3.78 82.134,3.78 C83.155,3.78 83.956,4.123 84.537,4.809 C85.119,5.497 85.409,6.436 85.409,7.63 L85.409,7.63 Z M79.544,7.63 C79.544,8.651 79.769,9.447 80.218,10.02 C80.666,10.591 81.301,10.877 82.121,10.877 C82.941,10.877 83.576,10.591 84.025,10.02 C84.473,9.448 84.698,8.651 84.698,7.63 C84.698,6.605 84.471,5.81 84.018,5.244 C83.564,4.679 82.927,4.396 82.107,4.396 C81.287,4.396 80.655,4.677 80.211,5.24 C79.767,5.804 79.544,6.6 79.544,7.63 L79.544,7.63 Z"></path>
                            <path d="M94.173,7.63 C94.173,8.842 93.879,9.789 93.291,10.471 C92.703,11.152 91.892,11.492 90.857,11.492 C90.205,11.492 89.63,11.335 89.134,11.02 C88.637,10.706 88.256,10.254 87.992,9.666 C87.727,9.078 87.596,8.399 87.596,7.629 C87.596,6.417 87.89,5.472 88.478,4.796 C89.066,4.118 89.873,3.78 90.898,3.78 C91.919,3.78 92.719,4.123 93.3,4.809 C93.882,5.497 94.173,6.436 94.173,7.63 L94.173,7.63 Z M88.308,7.63 C88.308,8.651 88.532,9.447 88.981,10.02 C89.43,10.591 90.065,10.877 90.885,10.877 C91.705,10.877 92.339,10.591 92.788,10.02 C93.237,9.448 93.462,8.651 93.462,7.63 C93.462,6.605 93.234,5.81 92.781,5.244 C92.328,4.678 91.691,4.396 90.871,4.396 C90.051,4.396 89.418,4.677 88.974,5.24 C88.529,5.804 88.308,6.6 88.308,7.63 L88.308,7.63 Z"></path>
                            <path d="M99.511,3.782 C100.049,3.782 100.514,3.88 100.906,4.076 C101.298,4.272 101.649,4.607 101.959,5.081 L102,5.081 C101.973,4.507 101.959,3.944 101.959,3.393 L101.959,0.72 L102.629,0.72 L102.629,11.357 L102.185,11.357 L102.014,10.222 L101.959,10.222 C101.394,11.07 100.583,11.493 99.525,11.493 C98.5,11.493 97.715,11.174 97.173,10.536 C96.631,9.898 96.36,8.969 96.36,7.747 C96.36,6.462 96.629,5.479 97.167,4.801 C97.705,4.123 98.485,3.782 99.511,3.782 L99.511,3.782 Z M99.511,4.397 C98.699,4.397 98.09,4.682 97.682,5.251 C97.275,5.82 97.071,6.647 97.071,7.732 C97.071,9.837 97.889,10.89 99.525,10.89 C100.364,10.89 100.979,10.646 101.371,10.159 C101.763,9.672 101.959,8.867 101.959,7.746 L101.959,7.63 C101.959,6.482 101.767,5.655 101.382,5.152 C100.995,4.649 100.372,4.397 99.511,4.397 L99.511,4.397 Z"></path>
                            <path d="M69.065,25.356 L69.065,20.537 C69.065,19.79 68.908,19.246 68.593,18.907 C68.279,18.567 67.791,18.397 67.13,18.397 C66.241,18.397 65.591,18.622 65.179,19.071 C64.766,19.519 64.56,20.248 64.56,21.255 L64.56,25.357 L63.883,25.357 L63.883,17.926 L64.457,17.926 L64.587,18.945 L64.628,18.945 C65.111,18.171 65.97,17.783 67.205,17.783 C68.892,17.783 69.734,18.687 69.734,20.497 L69.734,25.357 L69.065,25.357 L69.065,25.356 Z"></path>
                            <path d="M78.848,21.63 C78.848,22.842 78.554,23.789 77.966,24.471 C77.378,25.152 76.567,25.492 75.532,25.492 C74.88,25.492 74.305,25.335 73.809,25.02 C73.312,24.706 72.931,24.254 72.667,23.666 C72.402,23.078 72.271,22.399 72.271,21.629 C72.271,20.417 72.565,19.472 73.153,18.796 C73.741,18.118 74.548,17.78 75.573,17.78 C76.594,17.78 77.394,18.123 77.975,18.809 C78.557,19.497 78.848,20.436 78.848,21.63 L78.848,21.63 Z M72.982,21.63 C72.982,22.651 73.207,23.447 73.655,24.02 C74.104,24.591 74.739,24.877 75.559,24.877 C76.379,24.877 77.013,24.591 77.462,24.02 C77.911,23.448 78.136,22.651 78.136,21.63 C78.136,20.605 77.909,19.81 77.455,19.244 C77.002,18.679 76.365,18.396 75.545,18.396 C74.725,18.396 74.092,18.677 73.648,19.24 C73.204,19.804 72.982,20.6 72.982,21.63 L72.982,21.63 Z"></path>
                            <path d="M84.186,17.782 C84.724,17.782 85.189,17.88 85.581,18.076 C85.973,18.272 86.324,18.607 86.634,19.081 L86.675,19.081 C86.648,18.507 86.634,17.944 86.634,17.393 L86.634,14.72 L87.304,14.72 L87.304,25.357 L86.86,25.357 L86.689,24.222 L86.634,24.222 C86.069,25.07 85.258,25.493 84.2,25.493 C83.175,25.493 82.39,25.174 81.848,24.536 C81.306,23.898 81.035,22.969 81.035,21.747 C81.035,20.462 81.304,19.479 81.842,18.801 C82.38,18.123 83.16,17.782 84.186,17.782 L84.186,17.782 Z M84.186,18.397 C83.374,18.397 82.765,18.682 82.358,19.251 C81.95,19.82 81.746,20.647 81.746,21.732 C81.746,23.837 82.564,24.89 84.2,24.89 C85.039,24.89 85.654,24.646 86.046,24.159 C86.438,23.672 86.634,22.867 86.634,21.746 L86.634,21.63 C86.634,20.482 86.442,19.655 86.057,19.152 C85.67,18.649 85.047,18.397 84.186,18.397 L84.186,18.397 Z"></path>
                            <path d="M93.359,25.493 C92.279,25.493 91.436,25.16 90.833,24.495 C90.23,23.83 89.928,22.897 89.928,21.699 C89.928,20.514 90.219,19.565 90.803,18.852 C91.386,18.138 92.172,17.782 93.161,17.782 C94.036,17.782 94.726,18.088 95.232,18.698 C95.738,19.308 95.991,20.138 95.991,21.186 L95.991,21.733 L90.638,21.733 C90.647,22.754 90.885,23.533 91.352,24.071 C91.819,24.609 92.488,24.878 93.359,24.878 C93.783,24.878 94.155,24.849 94.476,24.789 C94.797,24.729 95.205,24.602 95.697,24.406 L95.697,25.021 C95.277,25.204 94.89,25.328 94.535,25.393 C94.18,25.459 93.787,25.493 93.359,25.493 L93.359,25.493 Z M93.161,18.383 C92.445,18.383 91.871,18.619 91.438,19.09 C91.004,19.563 90.751,20.242 90.679,21.131 L95.273,21.131 C95.273,20.27 95.085,19.596 94.712,19.111 C94.339,18.625 93.821,18.383 93.161,18.383 L93.161,18.383 Z"></path>
                            <path d="M103.209,23.421 C103.209,24.086 102.956,24.598 102.45,24.955 C101.944,25.313 101.226,25.492 100.297,25.492 C99.304,25.492 98.515,25.34 97.932,25.034 L97.932,24.303 C98.679,24.677 99.468,24.864 100.297,24.864 C101.03,24.864 101.588,24.742 101.969,24.499 C102.349,24.255 102.539,23.93 102.539,23.524 C102.539,23.15 102.388,22.836 102.084,22.581 C101.781,22.326 101.283,22.075 100.591,21.829 C99.848,21.56 99.326,21.329 99.026,21.136 C98.725,20.942 98.499,20.723 98.346,20.48 C98.193,20.236 98.117,19.938 98.117,19.587 C98.117,19.031 98.35,18.591 98.817,18.268 C99.285,17.945 99.937,17.783 100.776,17.783 C101.578,17.783 102.339,17.933 103.059,18.234 L102.806,18.849 C102.077,18.548 101.4,18.398 100.776,18.398 C100.17,18.398 99.689,18.499 99.334,18.699 C98.979,18.899 98.801,19.178 98.801,19.533 C98.801,19.921 98.939,20.23 99.214,20.463 C99.49,20.695 100.029,20.955 100.831,21.242 C101.501,21.483 101.988,21.701 102.294,21.894 C102.6,22.088 102.828,22.308 102.982,22.554 C103.133,22.799 103.209,23.088 103.209,23.421 L103.209,23.421 Z"></path>
                        </g>
                    </g>
                    <g transform="translate(155.000000, 42.000000)" id="Shape">
                        <g transform="translate(0.000000, 11.000000)">
                            <path d="M2.79,25.693 L2.79,0.497" stroke="#97998D"></path>
                            <path d="M5.433,24.919 L2.79,29.497 L0.147,24.919 L5.433,24.919 Z" fill="#97998D"></path>
                        </g>
                        <g transform="translate(8.000000, 0.000000)" fill="#797A72">
                            <path d="M5.642,9.561 C5.642,10.226 5.389,10.738 4.883,11.095 C4.377,11.453 3.659,11.632 2.73,11.632 C1.736,11.632 0.948,11.48 0.365,11.174 L0.365,10.443 C1.112,10.817 1.9,11.004 2.73,11.004 C3.463,11.004 4.021,10.882 4.401,10.639 C4.782,10.395 4.972,10.07 4.972,9.664 C4.972,9.29 4.821,8.976 4.517,8.721 C4.214,8.466 3.716,8.215 3.024,7.969 C2.281,7.7 1.759,7.469 1.459,7.276 C1.158,7.082 0.932,6.863 0.778,6.62 C0.626,6.376 0.549,6.078 0.549,5.727 C0.549,5.171 0.782,4.731 1.249,4.408 C1.717,4.085 2.369,3.923 3.208,3.923 C4.01,3.923 4.77,4.073 5.491,4.374 L5.238,4.989 C4.509,4.688 3.832,4.538 3.208,4.538 C2.602,4.538 2.121,4.639 1.766,4.839 C1.411,5.039 1.233,5.318 1.233,5.673 C1.233,6.061 1.371,6.37 1.646,6.603 C1.922,6.835 2.46,7.095 3.263,7.382 C3.933,7.623 4.42,7.841 4.726,8.034 C5.031,8.228 5.26,8.448 5.413,8.694 C5.565,8.939 5.642,9.228 5.642,9.561 L5.642,9.561 Z"></path>
                            <path d="M8.703,4.065 L8.703,8.877 C8.703,9.624 8.86,10.168 9.175,10.507 C9.489,10.847 9.978,11.017 10.638,11.017 C11.523,11.017 12.173,10.793 12.59,10.347 C13.007,9.901 13.215,9.173 13.215,8.166 L13.215,4.064 L13.885,4.064 L13.885,11.495 L13.311,11.495 L13.188,10.47 L13.147,10.47 C12.665,11.244 11.805,11.632 10.57,11.632 C8.88,11.632 8.034,10.728 8.034,8.918 L8.034,4.064 L8.703,4.064 L8.703,4.065 Z"></path>
                            <path d="M20.071,3.921 C21.11,3.921 21.892,4.248 22.419,4.901 C22.945,5.555 23.209,6.511 23.209,7.769 C23.209,9.004 22.932,9.957 22.378,10.626 C21.824,11.295 21.046,11.631 20.044,11.631 C19.515,11.631 19.039,11.522 18.615,11.303 C18.191,11.084 17.856,10.775 17.61,10.373 L17.548,10.373 L17.357,11.494 L16.933,11.494 L16.933,0.857 L17.61,0.857 L17.61,3.53 C17.61,3.931 17.6,4.301 17.583,4.637 L17.562,5.218 L17.61,5.218 C17.892,4.772 18.233,4.444 18.631,4.234 C19.029,4.024 19.511,3.921 20.071,3.921 L20.071,3.921 Z M20.058,4.537 C19.183,4.537 18.556,4.788 18.178,5.289 C17.799,5.79 17.611,6.617 17.611,7.77 L17.611,7.886 C17.611,9.007 17.807,9.812 18.202,10.299 C18.597,10.786 19.211,11.03 20.045,11.03 C20.856,11.03 21.467,10.747 21.877,10.178 C22.287,9.612 22.492,8.803 22.492,7.755 C22.491,5.61 21.68,4.537 20.058,4.537 L20.058,4.537 Z"></path>
                            <path d="M26.414,4.065 L26.414,8.877 C26.414,9.624 26.571,10.168 26.886,10.507 C27.2,10.847 27.688,11.017 28.349,11.017 C29.233,11.017 29.884,10.793 30.301,10.347 C30.718,9.901 30.926,9.173 30.926,8.166 L30.926,4.064 L31.596,4.064 L31.596,11.495 L31.022,11.495 L30.899,10.47 L30.858,10.47 C30.375,11.244 29.516,11.632 28.281,11.632 C26.591,11.632 25.745,10.728 25.745,8.918 L25.745,4.064 L26.414,4.064 L26.414,4.065 Z"></path>
                            <path d="M37.57,3.921 C37.884,3.921 38.221,3.953 38.582,4.017 L38.452,4.666 C38.141,4.589 37.82,4.55 37.488,4.55 C36.854,4.55 36.335,4.819 35.929,5.357 C35.523,5.895 35.321,6.574 35.321,7.394 L35.321,11.496 L34.644,11.496 L34.644,4.065 L35.218,4.065 L35.286,5.405 L35.334,5.405 C35.639,4.858 35.965,4.474 36.312,4.254 C36.658,4.032 37.078,3.921 37.57,3.921 L37.57,3.921 Z"></path>
                            <path d="M43.79,3.921 C44.829,3.921 45.612,4.248 46.139,4.901 C46.665,5.555 46.928,6.511 46.928,7.769 C46.928,9.004 46.652,9.957 46.098,10.626 C45.544,11.295 44.766,11.631 43.763,11.631 C43.235,11.631 42.758,11.522 42.334,11.303 C41.91,11.084 41.575,10.775 41.329,10.373 L41.267,10.373 L41.076,11.494 L40.652,11.494 L40.652,0.857 L41.329,0.857 L41.329,3.53 C41.329,3.931 41.32,4.301 41.302,4.637 L41.281,5.218 L41.329,5.218 C41.611,4.772 41.952,4.444 42.351,4.234 C42.75,4.026 43.229,3.921 43.79,3.921 L43.79,3.921 Z M43.776,4.537 C42.901,4.537 42.274,4.788 41.896,5.289 C41.518,5.79 41.329,6.617 41.329,7.77 L41.329,7.886 C41.329,9.007 41.526,9.812 41.921,10.299 C42.315,10.786 42.929,11.03 43.763,11.03 C44.575,11.03 45.185,10.747 45.595,10.178 C46.005,9.612 46.21,8.803 46.21,7.755 C46.21,5.61 45.398,4.537 43.776,4.537 L43.776,4.537 Z"></path>
                            <path d="M54.152,9.561 C54.152,10.226 53.899,10.738 53.393,11.095 C52.887,11.453 52.169,11.632 51.24,11.632 C50.247,11.632 49.459,11.48 48.875,11.174 L48.875,10.443 C49.623,10.817 50.411,11.004 51.24,11.004 C51.974,11.004 52.531,10.882 52.912,10.639 C53.293,10.395 53.482,10.07 53.482,9.664 C53.482,9.29 53.331,8.976 53.028,8.721 C52.725,8.466 52.227,8.215 51.534,7.969 C50.792,7.7 50.269,7.469 49.969,7.276 C49.668,7.082 49.442,6.863 49.289,6.62 C49.137,6.376 49.06,6.078 49.06,5.727 C49.06,5.171 49.294,4.731 49.761,4.408 C50.228,4.085 50.881,3.923 51.719,3.923 C52.522,3.923 53.282,4.073 54.002,4.374 L53.749,4.989 C53.02,4.688 52.344,4.538 51.719,4.538 C51.114,4.538 50.632,4.639 50.277,4.839 C49.922,5.039 49.744,5.318 49.744,5.673 C49.744,6.061 49.883,6.37 50.158,6.603 C50.433,6.836 50.972,7.095 51.774,7.382 C52.444,7.623 52.932,7.841 53.237,8.034 C53.543,8.228 53.772,8.448 53.925,8.694 C54.078,8.94 54.152,9.228 54.152,9.561 L54.152,9.561 Z"></path>
                        </g>
                    </g>
                    <g transform="translate(268.000000, 0.000000)">
                        <path d="M138.237,0.613 L7.237,0.613 L7.237,30.613 L138.237,30.613" id="Shape" fill="#000000"></path>
                        <rect id="Rectangle-path" fill="#000000" x="3.571" y="0.481" width="4" height="75.515"></rect>
                        <g transform="translate(23.000000, 9.000000)" id="Shape" fill="#FFFFFF">
                            <path d="M10.212,6.67 C10.212,8.556 9.689,9.997 8.642,10.994 C7.595,11.991 6.087,12.49 4.119,12.49 L0.924,12.49 L0.924,1.068 L4.455,1.068 C6.272,1.068 7.686,1.557 8.697,2.537 C9.706,3.517 10.212,4.894 10.212,6.67 L10.212,6.67 Z M8.243,6.733 C8.243,3.999 6.964,2.631 4.407,2.631 L2.79,2.631 L2.79,10.92 L4.118,10.92 C6.868,10.92 8.243,9.525 8.243,6.733 L8.243,6.733 Z"></path>
                            <path d="M22.806,6.764 C22.806,8.623 22.341,10.069 21.411,11.1 C20.481,12.131 19.165,12.647 17.462,12.647 C15.737,12.647 14.413,12.135 13.489,11.112 C12.564,10.089 12.102,8.634 12.102,6.749 C12.102,4.864 12.567,3.416 13.497,2.405 C14.427,1.394 15.753,0.889 17.477,0.889 C19.174,0.889 20.487,1.402 21.415,2.428 C22.342,3.455 22.806,4.9 22.806,6.764 L22.806,6.764 Z M14.087,6.764 C14.087,8.17 14.37,9.237 14.939,9.963 C15.506,10.69 16.347,11.053 17.462,11.053 C18.571,11.053 19.408,10.694 19.974,9.975 C20.538,9.256 20.822,8.186 20.822,6.764 C20.822,5.363 20.542,4.3 19.982,3.576 C19.421,2.852 18.587,2.49 17.478,2.49 C16.358,2.49 15.513,2.852 14.943,3.576 C14.373,4.3 14.087,5.363 14.087,6.764 L14.087,6.764 Z"></path>
                            <path d="M35.798,12.491 L33.767,12.491 L31.829,5.679 C31.745,5.382 31.641,4.953 31.517,4.394 C31.393,3.835 31.316,3.445 31.29,3.226 C31.237,3.559 31.153,3.992 31.036,4.523 C30.919,5.054 30.821,5.45 30.743,5.711 L28.852,12.492 L26.821,12.492 L25.344,6.773 L23.844,1.07 L25.75,1.07 L27.383,7.726 C27.638,8.793 27.821,9.737 27.93,10.554 C27.987,10.112 28.073,9.616 28.188,9.07 C28.302,8.523 28.407,8.081 28.5,7.742 L30.359,1.07 L32.211,1.07 L34.117,7.773 C34.299,8.393 34.492,9.32 34.695,10.554 C34.773,9.809 34.961,8.862 35.257,7.71 L36.882,1.069 L38.773,1.069 L35.798,12.491 L35.798,12.491 Z"></path>
                            <path d="M49.907,12.491 L47.618,12.491 L42.001,3.389 L41.939,3.389 L41.978,3.897 C42.05,4.866 42.087,5.751 42.087,6.553 L42.087,12.491 L40.392,12.491 L40.392,1.069 L42.658,1.069 L48.26,10.124 L48.307,10.124 C48.296,10.004 48.276,9.568 48.245,8.815 C48.214,8.062 48.198,7.475 48.198,7.053 L48.198,1.069 L49.909,1.069 L49.909,12.491 L49.907,12.491 Z"></path>
                            <path d="M56.868,12.491 L55.001,12.491 L55.001,2.671 L51.642,2.671 L51.642,1.069 L60.228,1.069 L60.228,2.671 L56.869,2.671 L56.869,12.491 L56.868,12.491 Z"></path>
                            <path d="M72.118,6.764 C72.118,8.623 71.653,10.069 70.723,11.1 C69.793,12.131 68.477,12.647 66.774,12.647 C65.049,12.647 63.725,12.135 62.801,11.112 C61.876,10.089 61.414,8.634 61.414,6.749 C61.414,4.864 61.879,3.416 62.809,2.405 C63.739,1.394 65.065,0.889 66.789,0.889 C68.486,0.889 69.799,1.402 70.727,2.428 C71.654,3.455 72.118,4.9 72.118,6.764 L72.118,6.764 Z M63.399,6.764 C63.399,8.17 63.682,9.237 64.251,9.963 C64.818,10.69 65.659,11.053 66.774,11.053 C67.883,11.053 68.72,10.694 69.286,9.975 C69.85,9.256 70.134,8.186 70.134,6.764 C70.134,5.363 69.854,4.3 69.294,3.576 C68.733,2.852 67.899,2.49 66.79,2.49 C65.67,2.49 64.825,2.852 64.255,3.576 C63.685,4.3 63.399,5.363 63.399,6.764 L63.399,6.764 Z"></path>
                            <path d="M85.11,12.491 L83.079,12.491 L81.141,5.679 C81.057,5.382 80.953,4.953 80.829,4.394 C80.705,3.835 80.628,3.445 80.602,3.226 C80.549,3.559 80.465,3.992 80.348,4.523 C80.231,5.054 80.133,5.45 80.055,5.711 L78.164,12.492 L76.133,12.492 L74.656,6.773 L73.156,1.07 L75.062,1.07 L76.695,7.726 C76.95,8.793 77.133,9.737 77.242,10.554 C77.299,10.112 77.385,9.616 77.5,9.07 C77.614,8.523 77.719,8.081 77.812,7.742 L79.671,1.07 L81.523,1.07 L83.429,7.773 C83.611,8.393 83.804,9.32 84.007,10.554 C84.085,9.809 84.273,8.862 84.569,7.71 L86.194,1.069 L88.085,1.069 L85.11,12.491 L85.11,12.491 Z"></path>
                            <path d="M99.22,12.491 L96.931,12.491 L91.314,3.389 L91.252,3.389 L91.291,3.897 C91.363,4.866 91.4,5.751 91.4,6.553 L91.4,12.491 L89.705,12.491 L89.705,1.069 L91.971,1.069 L97.573,10.124 L97.62,10.124 C97.609,10.004 97.589,9.568 97.558,8.815 C97.527,8.062 97.511,7.475 97.511,7.053 L97.511,1.069 L99.222,1.069 L99.222,12.491 L99.22,12.491 Z"></path>
                        </g>
                        <path d="M5.571,82.89 L8.071,79.258 L10.571,75.627 L5.571,75.627 L0.571,75.627 L3.071,79.258 L5.571,82.89 Z" id="Shape" fill="#333333"></path>
                    </g>
                    <g transform="translate(386.000000, 44.000000)" id="Shape">
                        <g transform="translate(0.000000, 9.000000)">
                            <path d="M2.723,25.693 L2.723,0.497" stroke="#97998D"></path>
                            <path d="M5.365,24.919 L2.723,29.497 L0.08,24.919 L5.365,24.919 Z" fill="#97998D"></path>
                        </g>
                        <g transform="translate(8.000000, 0.000000)" fill="#797A72">
                            <path d="M3.934,8.132 C2.872,8.132 2.04,7.797 1.439,7.127 C0.838,6.457 0.537,5.523 0.537,4.324 C0.537,3.094 0.849,2.136 1.474,1.45 C2.098,0.763 2.953,0.421 4.037,0.421 C4.68,0.421 5.295,0.532 5.883,0.756 L5.698,1.358 C5.055,1.144 4.497,1.037 4.023,1.037 C3.111,1.037 2.42,1.318 1.952,1.881 C1.482,2.444 1.248,3.254 1.248,4.312 C1.248,5.315 1.482,6.1 1.952,6.666 C2.421,7.234 3.077,7.518 3.921,7.518 C4.595,7.518 5.222,7.397 5.801,7.156 L5.801,7.785 C5.325,8.016 4.703,8.132 3.934,8.132 L3.934,8.132 Z"></path>
                            <path d="M14.324,4.27 C14.324,5.482 14.029,6.429 13.441,7.111 C12.853,7.792 12.043,8.132 11.007,8.132 C10.356,8.132 9.781,7.975 9.284,7.66 C8.788,7.346 8.407,6.894 8.142,6.306 C7.878,5.718 7.746,5.039 7.746,4.269 C7.746,3.057 8.04,2.112 8.628,1.436 C9.216,0.758 10.023,0.42 11.048,0.42 C12.069,0.42 12.87,0.763 13.451,1.449 C14.033,2.136 14.324,3.076 14.324,4.27 L14.324,4.27 Z M8.458,4.27 C8.458,5.291 8.683,6.087 9.132,6.66 C9.58,7.231 10.215,7.517 11.035,7.517 C11.855,7.517 12.49,7.231 12.939,6.66 C13.388,6.088 13.613,5.291 13.613,4.27 C13.613,3.245 13.385,2.45 12.932,1.884 C12.478,1.319 11.841,1.036 11.021,1.036 C10.201,1.036 9.569,1.317 9.125,1.88 C8.681,2.444 8.458,3.24 8.458,4.27 L8.458,4.27 Z"></path>
                            <path d="M19.867,0.421 C20.181,0.421 20.518,0.453 20.879,0.517 L20.749,1.166 C20.439,1.089 20.117,1.05 19.785,1.05 C19.151,1.05 18.632,1.319 18.226,1.857 C17.82,2.395 17.618,3.074 17.618,3.894 L17.618,7.996 L16.941,7.996 L16.941,0.565 L17.515,0.565 L17.583,1.905 L17.631,1.905 C17.937,1.358 18.262,0.974 18.609,0.754 C18.955,0.532 19.375,0.421 19.867,0.421 L19.867,0.421 Z"></path>
                            <path d="M28.131,7.996 L28.131,3.177 C28.131,2.43 27.975,1.886 27.66,1.547 C27.346,1.207 26.857,1.037 26.197,1.037 C25.308,1.037 24.657,1.262 24.245,1.711 C23.832,2.159 23.627,2.888 23.627,3.895 L23.627,7.997 L22.949,7.997 L22.949,0.566 L23.523,0.566 L23.654,1.585 L23.695,1.585 C24.177,0.811 25.037,0.423 26.271,0.423 C27.958,0.423 28.8,1.327 28.8,3.137 L28.8,7.997 L28.131,7.997 L28.131,7.996 Z"></path>
                            <path d="M34.769,8.132 C33.689,8.132 32.846,7.799 32.243,7.134 C31.64,6.469 31.338,5.536 31.338,4.338 C31.338,3.153 31.63,2.204 32.213,1.491 C32.796,0.777 33.582,0.421 34.571,0.421 C35.446,0.421 36.136,0.727 36.642,1.337 C37.148,1.947 37.401,2.777 37.401,3.825 L37.401,4.372 L32.048,4.372 C32.057,5.393 32.295,6.172 32.762,6.71 C33.229,7.248 33.899,7.517 34.769,7.517 C35.193,7.517 35.565,7.488 35.886,7.428 C36.207,7.368 36.615,7.241 37.107,7.045 L37.107,7.66 C36.688,7.843 36.3,7.967 35.945,8.032 C35.589,8.099 35.197,8.132 34.769,8.132 L34.769,8.132 Z M34.57,1.023 C33.854,1.023 33.28,1.259 32.847,1.73 C32.413,2.203 32.161,2.882 32.088,3.771 L36.682,3.771 C36.682,2.91 36.495,2.236 36.121,1.751 C35.748,1.265 35.23,1.023 34.57,1.023 L34.57,1.023 Z"></path>
                            <path d="M42.937,0.421 C43.251,0.421 43.588,0.453 43.949,0.517 L43.819,1.166 C43.509,1.089 43.188,1.05 42.855,1.05 C42.221,1.05 41.702,1.319 41.296,1.857 C40.89,2.395 40.688,3.074 40.688,3.894 L40.688,7.996 L40.011,7.996 L40.011,0.565 L40.585,0.565 L40.653,1.905 L40.701,1.905 C41.007,1.358 41.332,0.974 41.679,0.754 C42.025,0.532 42.444,0.421 42.937,0.421 L42.937,0.421 Z"></path>
                            <path d="M3.893,14.421 C4.207,14.421 4.544,14.453 4.905,14.517 L4.775,15.166 C4.464,15.089 4.143,15.05 3.811,15.05 C3.177,15.05 2.658,15.319 2.252,15.857 C1.846,16.395 1.644,17.074 1.644,17.894 L1.644,21.996 L0.967,21.996 L0.967,14.565 L1.541,14.565 L1.609,15.905 L1.657,15.905 C1.962,15.358 2.288,14.974 2.635,14.754 C2.98,14.532 3.4,14.421 3.893,14.421 L3.893,14.421 Z"></path>
                            <path d="M9.977,22.132 C8.897,22.132 8.054,21.799 7.451,21.134 C6.847,20.469 6.545,19.536 6.545,18.338 C6.545,17.153 6.837,16.204 7.42,15.491 C8.004,14.777 8.79,14.421 9.778,14.421 C10.653,14.421 11.344,14.727 11.85,15.337 C12.356,15.947 12.608,16.777 12.608,17.825 L12.608,18.372 L7.255,18.372 C7.265,19.393 7.502,20.172 7.97,20.71 C8.437,21.248 9.106,21.517 9.977,21.517 C10.401,21.517 10.773,21.488 11.094,21.428 C11.415,21.368 11.823,21.241 12.315,21.045 L12.315,21.66 C11.895,21.843 11.508,21.967 11.153,22.032 C10.797,22.099 10.404,22.132 9.977,22.132 L9.977,22.132 Z M9.777,15.023 C9.062,15.023 8.488,15.259 8.054,15.73 C7.621,16.203 7.368,16.882 7.295,17.771 L11.89,17.771 C11.89,16.91 11.702,16.236 11.329,15.751 C10.956,15.265 10.438,15.023 9.777,15.023 L9.777,15.023 Z"></path>
                            <path d="M17.181,21.531 C17.61,21.531 17.983,21.495 18.302,21.422 L18.302,21.969 C17.974,22.078 17.596,22.133 17.167,22.133 C16.511,22.133 16.026,21.957 15.715,21.607 C15.403,21.256 15.246,20.705 15.246,19.953 L15.246,15.154 L14.145,15.154 L14.145,14.758 L15.246,14.45 L15.588,12.768 L15.937,12.768 L15.937,14.566 L18.118,14.566 L18.118,15.154 L15.937,15.154 L15.937,19.857 C15.937,20.426 16.038,20.848 16.238,21.122 C16.438,21.396 16.752,21.531 17.181,21.531 L17.181,21.531 Z"></path>
                            <path d="M24.98,21.996 L24.808,20.82 L24.753,20.82 C24.38,21.299 23.995,21.636 23.602,21.836 C23.207,22.033 22.742,22.133 22.205,22.133 C21.475,22.133 20.908,21.946 20.502,21.572 C20.097,21.198 19.895,20.681 19.895,20.02 C19.895,19.295 20.196,18.733 20.8,18.332 C21.404,17.931 22.278,17.719 23.422,17.696 L24.836,17.655 L24.836,17.163 C24.836,16.457 24.693,15.924 24.406,15.563 C24.119,15.202 23.656,15.023 23.017,15.023 C22.329,15.023 21.617,15.214 20.878,15.597 L20.624,15.009 C21.44,14.626 22.247,14.435 23.044,14.435 C23.86,14.435 24.47,14.647 24.873,15.071 C25.276,15.495 25.477,16.156 25.477,17.053 L25.477,21.995 L24.98,21.995 L24.98,21.996 Z M22.246,21.517 C23.039,21.517 23.664,21.29 24.122,20.837 C24.58,20.383 24.809,19.753 24.809,18.946 L24.809,18.215 L23.51,18.27 C22.467,18.32 21.723,18.483 21.279,18.759 C20.835,19.034 20.612,19.464 20.612,20.047 C20.612,20.512 20.755,20.873 21.04,21.13 C21.324,21.388 21.727,21.517 22.246,21.517 L22.246,21.517 Z"></path>
                            <path d="M28.35,12.5 C28.35,12.062 28.494,11.844 28.781,11.844 C28.923,11.844 29.032,11.901 29.112,12.015 C29.192,12.129 29.232,12.29 29.232,12.5 C29.232,12.705 29.192,12.867 29.112,12.985 C29.032,13.103 28.923,13.163 28.781,13.163 C28.493,13.164 28.35,12.943 28.35,12.5 L28.35,12.5 Z M29.122,21.996 L28.445,21.996 L28.445,14.565 L29.122,14.565 L29.122,21.996 L29.122,21.996 Z"></path>
                            <path d="M32.847,21.996 L32.17,21.996 L32.17,11.359 L32.847,11.359 L32.847,21.996 L32.847,21.996 Z"></path>
                        </g>
                    </g>
                </g>
            </g>
        </g>
    </g>
</svg>